<svg width="661.97" height="832.34" enable-background="new 1005.5 1288 570 755" version="1.1" viewBox="1005.5 1288 661.97 832.34" xml:space="preserve" xmlns="http://www.w3.org/2000/svg" xmlns:ns="http://www.test.com">
<metadata>
	<ns:sfw>
		<ns:slices/>
		<ns:sliceSourceBounds x="190.232" y="-153.379" width="564.552" height="749.464" bottomLeftOrigin="true"/>
	</ns:sfw>
</metadata>
<g transform="translate(57.225 26.012)" fill="none">
	<g id="okinawa-area" transform="translate(-3e-6)"><path transform="translate(0)" d="m1583.7 1890.3c2.4959 0.8659 0.6905 2.6619-1.124 3.3291-2.7432 1.0086-2.8971 1.0806-3.0406-1.2642zm-137.55 139.33c2.4959 0.8659 2.9664 2.3368 1.1519 3.004-2.7432 1.0086-2.8971 1.0806-3.0406-1.2642zm-68.412 10.516c2.4959 0.8659 6.3 2.4518 4.4855 3.119-2.7432 1.0086-7.3802 1.6553-7.5237-0.6895zm79.938-11.289 0.8427-4.1536c1.8927 0.01 1.9098 4.1708 3.1378 4.8664 3.7604 2.1304 6.3 2.4518 4.4855 3.119-2.7432 1.0086-3.7018 0.7357-7.5237 0.1152-0.816-0.931-0.7423-0.895-0.9423-3.947zm17.642-49.616c2.9721-2.9299 7.5322 2.2752 3.6316 4.5907-1.9574 0.021-0.8061-0.4354-1.8025-2.0371-0.8656-1.3914-2.7058-0.9423-1.8291-2.5536zm52.55-46.441c1.6874-1.405 1.1157 0.7211 5.1282-0.7283 1.9645-2.3823 3.9801-4.7978 3.3842-0.036-1.6619 2.7389-3.1392 3.1973-5.8151 5.1725-3.4469-3.8308 0.1151-0.1615-2.6973-4.4079zm11.404-10.525c-0.426-1.8927-2.1356-5.4564-1.6996-5.9304 2.2103-3.2902 2.7453 0.087 6.2471 3.2412 0.7242 0.6523 4.7725 1.5207 3.6397 3.3877-1.6619 2.7389-2.3263 3.5224-5.0022 5.4976-2.8766 0.5203-0.1833-1.59-3.185-6.1961zm-115.93 122.7c-0.157-2.398 1.6595-2.5143 4.5096-2.7927 5.4718 1.3258 1.569-0.2305 7.2534-4.5795 0.879-0.6724-1.666 6.0962-2.3774 8.5601-0.7892 2.7329-1.5177 4.1843-5.3396 3.5638-0.816-0.931-1.7769-3.309-4.046-4.7517zm-17.923 4.9625c-0.157-2.398 3.039-2.5143 3.705-3.8273 0.712-1.405 0-2.0786 0.4383-2.5526 2.2103-3.2902 0.1535-0.8032 6.0105 3.146 3.8189 2.575-1.0229 3.8153-0.8831 6.376 0.1305 2.388-6.0008 0.5058-9.8227-0.1147-0.816-0.931 0.752 0.025 0.552-3.0274zm92.675-57.092c0.5472-1.7015 4.9397-3.0044 3.7511-3.8311-3.2757-2.2783-0.4478-7.0269 0.9376-9.6346 1.4779-2.7818-3.7628-3.3509 2.0817-5.8833 6.5178-2.824 4.2819-6.0398 7.1916-9.5211 5.1324-6.1407 12.8-5.5172 12.824-12.525 0.013-3.6154-3.0742-8.9398-5.5649-5.4785-2.9962 4.1637-7.2119 8.1937-8.6596 8.6901-2.9809 1.022-4.7932-1.2957-8.085 1.3401-1.6303 4.9663-0.295 4.0012 2.1782 6.2547 2.1351 1.9453-3.4546 4.5087-4.346 6.3542-1.1692 2.4207-7.4014 3.4455-3.4555 9.8733 1.5272 2.4878-3.3512 4.6098-4.5394 6.1542-2.9547 3.8405 3.6666 14.487 5.686 8.2073zm59.42-82.444c4.6841 4.5824 4.4121-3.384 5.9891-7.1256 3.2579-7.7295-2.5564-3.5789 5.6969-13.454 6.1867-1.8248 5.2068-12.336-3.6762-7.0378-5.2568 3.1354-5.9312 1.9556-7.1096 4.2663-5.295 3.0923-9.0478 0.894-5.4191 10.983 3.2042 8.9091-1.532 6.448 4.5189 12.368z" fill="none" stroke="#000"/></g>
	
	
	
	
	
	
	
	
	
	
	
	
	
	
	
	
	
	
	
	
	
	
	
	
	
	
	
	
	
<path id="divider" transform="translate(-3e-6)" d="m1346.7 2064.5 22.109-78.952 110.58-113.66 83.735-15.281" stroke="#000" stroke-width="2.4296"/><g id="kyushu-area" stroke="#000" stroke-width=".9"><path d="m1048.9 1904.3c-0.8185 1.0572-1.7189 2.4473-1.9375 3.8945-0.033 0.2212-0.049 0.436-0.051 0.6465 0 0.3231-0.051 0.671-0.1406 1.0274-2.8737 4.6023-3.8579 4.0722-7.9561 2.2077-1.1061-0.5032-2.4402 0.9819-3.2998 1.8613-0.2293 0.2346-0.4353 0.5041-0.6113 0.8047-0.1761 0.3006-0.3217 0.6328-0.4356 0.9922s-0.1954 0.7471-0.2382 1.1582c-0.053 0.5104-0.1293 0.9452-0.2305 1.3184-0.1012 0.3731-0.2271 0.6845-0.377 0.9414-0.1498 0.2568-0.3245 0.4597-0.5234 0.6211-0.1989 0.1613-0.4233 0.2804-0.6719 0.3672-0.2485 0.087-0.5216 0.1408-0.8203 0.1738s-0.6214 0.045-0.9707 0.045c-2.0892 0.026-2.5899-2.7826-6.2266 0.2297-0.155 0.065-0.306 0.1437-0.4492 0.2343-0.1432 0.091-0.2803 0.1945-0.4082 0.3145-1.7166 1.9272 1.1446 3.4821 0.095 7.4168 0.5851 2.7547-1.453 1.6829-2.2163 0.4807-1.72-2.7091-5.34-2.3391-8.3886-1.0256-0.2564 0.1299-2.6859 0.7357-2.9166 0.8973-1.8712 1.3105-0.5673 3.1235 0.9923 5.6222 0.3743 0.6493 2.2701-0.2713 3.9781 2.4609 2.0891 3.3416 3.9507 4.1846 5.9979 5.7578 1.7913 1.3766 3.8029-0.1805 4.9989 0.4104 1.8944 0.9359 1.5169 3.048 1.6218 4.595 0.121 1.786 1.1291 3.1031 2.5143 4.4974-0.2995 2.4077-3.368-0.7925-3.4342 0.07-0.1337 1.7418-1.6007 1.6163-2.3877 0.2887-0.1686-0.099-0.395-0.1542-0.4844-0.3282-1.4618-2.8443 2.0638-4.0107-2.0636-5.5556-2.1901-2.5856-3.2302-1.9033-4.3045-1.7254-1.0301 0.1707-1.7745 1.2516-1.7567 3.9711 0.035 5.4146 3.4044 7.1109 6.2559 10.804 1.0919 3.4527-1.7674 7.5387-0.3219 6.8132 4.7261-2.3721 5.6038-2.3404 7.5368-6.5502 2.3033-5.0162 9.6124-6.178 9.9061-0.4039-1.5715 2.9808-0.8516 5.1882 0.7085 5.0292 1.8499 0.5221 2.9742-1.2166 3.7469-2.196 1.0216-1.2949 4.4859-1.8477 4.1314-4.2056-0.4018-2.6731 2.1327-5.4545-1.002-6.6932-4.392-1.7355-5.7558 2.3289-6.7384 0.308-3.1752-2.5667-0.026-2.4859 0.9605-5.5186-2.1352-3.4414-2.5982-2.4616-3.3072-5.5009-1.7059-3.1972 0.44-4.0146 3.2943-5.0837 0.2273-0.045 0.4612-0.068 0.6993-0.068 5.0032-0.1183 3.8438 2.3579 6.1226 4.3012 3.6255 3.0918 3.674 6.0706 3.5426 7.6031-0.054 3.539 4.3153 4.2729 4.448 6.8511 0.016 0.3206 0.016 0.6403 0 0.9551-1.1206 2.7952-1.9356 1.4602-1.471 5.2798 0.2626 2.1591-0.9089 3.6169-3.0707 4.3902-2.5644 0.9173-4.3626 3.9376-1.2529 2.808 2.0526-0.7457 2.7598 0.2642 3.8347-0.183 2.0905-0.8692 1.8143 2.8273 1.5108 4.6195-0.9115 5.3808-3.1754 5.7299-6.805 9.9621-0.8585 1.0123-1.1727 3.4845-2.6523 3.2969-3.1093-0.3943-4.4256-3.1916-5.1232-0.4896-0.5313 2.0577 1.7476 2.2688 2.3419 4.2845 1.6726 5.6726-0.7878 7.6605-1.6786 11.717-0.2324 1.0582-1.2052 2.9935 0.3993 4.1718 2.802 2.0578 3.3879 1.9178 4.8496 4.8672 0.1293 0.2607 0.2459 0.5368 0.3477 0.8242s0.1899 0.5865 0.2637 0.8945c0.074 0.308 0.1325 0.6248 0.1777 0.9473 0.3193 2.2876 0.3109 4.2714-0.7973 7.0521-0.9457 2.3728-4.4921 1.7274-3.5484 4.7637 2.0718 4.9006 2.943 3.0579 7.1752 4.2138 2.4771 0.6765 3.916 0.6589 4.4845 1.6655 1.5784 2.7951 2.1653 2.4258 3.7864 2.8094 2.3093 0.03 2.6556-0.1549 2.9929-3.4233 0.489-1.3531-0.8322-2.8565-3.2353-4.9141-2.4763-2.1204-2.692-6.7692-2.254-10.147 0.078-0.2544 0.181-0.5098 0.3145-0.7676 0.1335-0.2577 0.2969-0.5172 0.4922-0.7773s0.4224-0.5217 0.6855-0.7832c0.2632-0.2616 0.5633-0.5232 0.9004-0.7852 0.7485-0.5825 1.353-0.912 2.1866-2.907 3.0928-7.4017 7.9767-0.044 5.7926 1.5887-1.9769 1.1536-3.8425 0.8777-3.8035 2.9114-0.2447 3.1266 0.1902 4.1229 2.5293 5.6993 0.3453 0.242 0.7406 0.5353 1.1914 0.9043 0.387 0.3167 0.7479 0.6579 1.0742 1.0175 2.1368 2.3548 2.7912 5.5293 0.074 8.5977-0.2103 0.2375-0.4416 0.4748-0.6933 0.7109-0.4658 0.4372-0.8822 0.8559-1.252 1.2559-0.3697 0.4-0.6931 0.78-0.9726 1.1426-0.6864 1.0595-0.7123 1.1384-1.091 2.7539 0.058 2.6207-2.3851 2.8383 3.8412 2.2203 0.3288-0.066 0.6703-0.1528 1.0195-0.2598 0.3492-0.1069 0.7066-0.2331 1.0703-0.3808 1.3753-0.4597 1.9603-0.4309 3.0389-1.3476 0.5548-0.4598 1.6285-2.0346 2.4513-2.586 0.4115-0.2758 0.8605-0.5593 1.3555-0.8497 0.495-0.2903 1.0354-0.5872 1.625-0.8867 2.0023-2.2746 2.7697-2.1584 3.0371-5.4648-0.082-1.468 1.7275-3.2322 0.377-4.4102-2.7334-2.3842 0.8579-4.2014 3.1484-4.0718 0.1415 0.01 0.2827 0.029 0.4219 0.064 0.2783 0.07 0.55 0.1919 0.8086 0.3496 0.2586 0.1578 0.5038 0.3513 0.7285 0.5664 0.2246 0.2152 0.429 0.4528 0.6055 0.6953 0.1765 0.2426 0.3253 0.4905 0.4394 0.7305 1.0229 2.1503 4.018 4.5722 5.875 0.3047 0.015-0.034 0.8834-2.1754 1.4478-4.557 0.3286-1.3864 1.3689-3.0157 1.2703-4.1927 0.088-0.9158-0.5959-2.104-0.4879-3.6093 0.1352-1.884 0.238-4.0102 0.1882-5.8285-0.044-1.6059-0.085-3.2111-0.088-4.7559 0-0.7724 0.01-1.5293 0.029-2.2636 0.023-0.7343 0.061-1.446 0.1172-2.127 0.061-0.7362 0.077-1.4648 0.1035-2.2207 0.027-0.7559 0.065-1.5394 0.168-2.3887 0.052-0.4246 0.1194-0.8663 0.2109-1.3281 0.091-0.4618 0.2083-0.943 0.3535-1.4512 0.1453-0.5081 0.3204-1.0436 0.5332-1.6074s0.4616-1.1565 0.7559-1.7851c0.2675-0.572 0.5541-1.0501 0.834-1.5235 0.2798-0.4733 0.5548-0.942 0.8007-1.498 0.123-0.278 0.238-0.5774 0.3438-0.9102 0.1058-0.3327 0.2023-0.6992 0.2852-1.1093 0.083-0.4102 0.1528-0.8649 0.207-1.375 0.054-0.5102 0.092-1.0762 0.1113-1.709 0.016-0.506 0.038-1.3496 0.1309-2.3926 0.046-0.5215 0.1094-1.0913 0.1992-1.6953 0.09-0.604 0.2059-1.2406 0.3555-1.8926 0.1495-0.652 0.3329-1.3209 0.5586-1.9863 0.2256-0.6654 0.4924-1.3284 0.8105-1.9727 0.159-0.3222 0.3305-0.6388 0.5156-0.9492 0.1852-0.3104 0.3843-0.6138 0.5977-0.9082 0.2133-0.2944 0.442-0.5795 0.6855-0.8535 0.2436-0.274 0.5035-0.5378 0.7793-0.7871 0.321-0.2903 0.7279-0.6746 1.1621-1.1348s0.8945-0.9959 1.3223-1.5859c0.2139-0.295 0.4195-0.604 0.6094-0.9239 0.1898-0.3199 0.3648-0.6505 0.5156-0.9902s0.2781-0.6884 0.375-1.043c0.097-0.3545 0.1634-0.7157 0.1914-1.08 0.032-0.4188 0.054-0.8052 0.1055-1.1836 0.051-0.3784 0.1296-0.7491 0.2715-1.1387 0.071-0.1948 0.1585-0.3943 0.2656-0.6016s0.2344-0.4222 0.3867-0.6484c0.3046-0.4524 1.0775-0.7517 1.2461-1.5156 0.6751-3.0584 4.7383-4.4061 1.0335-8.0684-0.7707-0.7619-1.3253-1.7963-1.9414-2.7227-0.3995-0.6268-0.7942-1.3073-1.1856-1.996-1.7271-2.5122-3.1956-4.8102-3.4412-8.1162-0.1549-2.085-2.567-0.9654-4.5366-0.955-2.1057 0.011-4.2752 0.1456-5.8379-1.5022-1.9734-2.9032 3.8068-4.6714 4.7183-7.034 0.1702-0.4413-0.037-1.6923 0.032-2.1233 0.07-0.431 0.093-0.8543 0.072-1.2676s-0.086-0.8169-0.1875-1.2051c-0.1016-0.3881-0.24-0.7615-0.4122-1.1172-0.1721-0.3556-0.3784-0.6939-0.6113-1.0097-0.2328-0.3158-0.4938-0.6084-0.7773-0.877-0.2836-0.2685-0.5898-0.5126-0.9141-0.7265s-0.6664-0.3989-1.0215-0.5508c-0.355-0.1519-0.7218-0.2711-1.0976-0.3535-0.3758-0.082-0.7599-0.1272-1.1465-0.1328-0.3866-0.01-0.7767 0.029-1.1641 0.1074-0.3874 0.078-0.7721 0.2011-1.1504 0.3711-0.3782 0.17-0.7502 0.3873-1.1093 0.6562-0.3592 0.269-0.7052 0.5896-1.0352 0.9649-0.1577 0.1792-0.4141 0.389-0.7715 0.5976-0.1787 0.1043-0.382 0.2083-0.6113 0.3067-0.2293 0.098-0.4853 0.1917-0.7656 0.2753-0.2803 0.084-0.5862 0.1586-0.918 0.2188-0.3318 0.06-0.6885 0.107-1.0723 0.1348-0.3838 0.028-0.7942 0.037-1.2304 0.023-0.4363-0.013-0.8996-0.05-1.3887-0.1133-0.4205-0.055-0.8674-0.1609-1.334-0.3125-0.4666-0.1515-0.9521-0.348-1.4473-0.5859-0.4951-0.238-0.9998-0.5162-1.5058-0.8301s-1.0143-0.6637-1.5137-1.043c-0.4993-0.3792-0.9898-0.7885-1.4648-1.2226-0.4751-0.4341-0.934-0.8926-1.3672-1.3711-1.0157-0.955-2.0629-1.07-2.3396-3.3519-0.4588-3.7844 0.3916-8.2529-2.8402-6.5118-1.8797 1.0126-3.1057 4.3403-6.6565 1.2708-2.0517-1.6353-10.282 1.6104-13.756 5.9344zm-0.9411 72.706c1.5124-1.125 1.0648-2.1321 1.3952-2.6462 1.3329-2.074 3.4801-3.2307 1.4825-3.473-1.4966-0.1815-0.5821-1.1343-3.4342 0.036-2.2492 0.9227-1.5814 1.6706-3.007 1.5312-1.477-0.1444-1.0022-2.6932-2.0423-3.017-1.4823-0.4615-2.9681-0.2371-3.1753-0.024-2.374 2.4375-2.4656 1.8812-2.7927 3.6038-0.3791 1.9962 0.3164 3.9062 0.2389 5.5717-0.069 1.4762-0.9361 2.7603-0.8555 3.7423 0.1416 1.7253 1.6263 0.1507 3.2506-0.5982 0.6623-0.3053 2.627-0.9938 3.5375-2.5147 0.9084-1.5173 0.4815-4.0711 0.8049-4.162 0.097 0.063 3.2017 2.989 4.5974 1.9508z" stroke="#000" stroke-width=".9"/><g id="nagasaki" transform="translate(-3e-6)" stroke="#000"><path d="m1022.2 1934c0.505 0.894 1.34 1.668 2.202 2.657 1.403 1.609 4.4475 2.5155 6.0855 2.9515 3.8981-0.6645 0.6611 3.1222 3.5585 3.5025 3.2271 2.5143 6.7467 3.0672 6.7467 3.0672-0.7558 3.1635-3.905 3.0827-0.7298 5.6494 0.9826 2.0209 2.3464-2.0435 6.7384-0.308 3.1347 1.2387 0.6002 4.0201 1.002 6.6932 0.3545 2.3579-3.1098 2.9107-4.1314 4.2056-0.7727 0.9794-1.897 2.7181-3.7469 2.196-1.5601 0.159-2.28-2.0484-0.7085-5.0292-0.2937-5.7741-7.6028-4.6123-9.9061 0.4039-1.933 4.2098-2.8107 4.1781-7.5368 6.5502-1.4455 0.7255 1.4138-3.3605 0.3219-6.8132-2.8515-3.6932-6.2209-5.3895-6.2559-10.804-0.018-2.7195 0.7266-3.8004 1.7567-3.9711 1.0743-0.1779 2.1144-0.8602 4.3045 1.7254 4.1274 1.5449 0.6018 2.7113 2.0636 5.5556 0.089 0.174 0.3158 0.2292 0.4844 0.3282 0.787 1.3276 2.254 1.4531 2.3877-0.2887 0.066-0.8625 3.1347 2.3377 3.4342-0.07-1.3852-1.3943-2.3933-2.7114-2.5143-4.4974-0.1049-1.547 0.2726-3.6591-1.6218-4.595-1.196-0.5909-3.2076 0.9662-4.9989-0.4104-2.0472-1.5732-3.9088-2.4162-5.9979-5.7578-1.708-2.7322-3.6038-1.8116-3.9781-2.4609-1.5596-2.4987-2.8635-4.3117-0.9923-5.6222 0.2307-0.1616 2.6602-0.7674 2.9166-0.8973 3.0486-1.3135 6.6686-1.6835 8.3886 1.0256 0.1697 0.2673 0.4025 0.5283 0.6155 0.4095 0 0-0.4141 3.6715 0.1119 4.6045z" stroke-width=".5"/><g stroke-width="1"><path d="m1020.1 1910.4c-0.1165-1.7737 0.9729-1.7751 1.4665-2.7464 0.5267-1.0418-0.2542-1.1138 0.061-1.4648 1.6347-2.4351 1.0758-0.1667 3.2562 0.2858 1.9056 0.3952-0.8917 3.1526-0.9075 4.4648-0.052 3.927-3.4723 0.2746-3.8858-0.5394z"/><path d="m992.69 1943.1c-0.91348 2.4236-2.0981 5.1833-5.1369 5.1403-4.2871-0.061-4.3051-1.1087-3.2659 3.4715 0.99927 4.4044-1.1666 3.2226-1.2384 7.6619-0.0145 0.8944 4.8454 0.078 7.4602 2.2846 1.8837 1.5894 0.97078-2.5011 2.1073-4.3123 0.8037-1.2809 3.9784 0.069 4.4234-0.9399 1.7469-3.9623-1.5499-3.3543-1.5726-6.7013-0.0119-1.758 1.2441-3.8196 2.3309-5.1511 0.23966-0.2936 4.2847 3.9057 4.1072 2.0458-0.5861-6.1407 2.065-6.7651 3.5331-7.6879 3.6249-2.2785-1.2531-2.8132-0.9857-7.2691 0.187-3.1162-2.996-9.3495-5.6408-2.6117-0.47351 1.2063 4.7734 1.8861-1.0278 6.7219-1.1732 0.8162-3.8958 4.1686-5.0939 7.3473z"/><path d="m1007.9 1898.1c4.6025-4.6644 1.5018-3.9551 4.0384-7.1256 3.2661-4.0823 6.0177-3.4231 5.9832-5.5581-0.074-4.5764-3.5212-6.365-0.6115-9.8463 5.1324-6.1407 4.1419-0.4886 4.5334-7.4858 0.3281-5.8625-3.4147-3.6048-5.9337-1.5028-1.0301 0.8595-3.005-1.2957-4.1834 1.015-0.4923 0.9022-1.9207 2.5381 0.5525 4.7916 2.1351 1.9453-1.8289 5.9718-2.7203 7.8173-4.829 9.9975-6.0838 22.379-1.6586 17.895z"/><path d="m1048 1977c1.5124-1.125 1.0648-2.1321 1.3952-2.6462 1.3329-2.074 3.4801-3.2307 1.4825-3.473-1.4966-0.1815-0.5821-1.1343-3.4342 0.036-2.2492 0.9227-1.5814 1.6706-3.007 1.5312-1.477-0.1444-1.0022-2.6932-2.0423-3.017-1.4823-0.4615-2.9681-0.2371-3.1753-0.024-2.374 2.4375-2.4656 1.8812-2.7927 3.6038-0.3791 1.9962 0.3164 3.9062 0.2389 5.5717-0.069 1.4762-0.9361 2.7603-0.8555 3.7423 0.1416 1.7253 1.6263 0.1507 3.2506-0.5982 0.6623-0.3053 2.627-0.9938 3.5375-2.5147 0.9084-1.5173 0.4815-4.0711 0.8049-4.162 0.097 0.063 3.2017 2.989 4.5974 1.9508z"/></g></g><g id="kagoshima" transform="translate(-3e-6)" stroke="#000"><path d="m1070.4 2066.7c1.7349-4.3917-0.3177-3.25 0.9958-4.6626 3.6413-3.9159 3.7243-4.7207 3.9599-9.3263 0.1659-3.2436-1.384-1.726-3.9167 0.2183-3.2665 2.5077-1.8977 2.7592-2.4032 4.6055-1.0595 3.871-0.208 1.9313-1.0131 3.5984-1.1523 2.3858-3.1158 1.7859-2.7466 5.4748 0.2865 2.8532-0.6473 5.0076 2.0783 3.4788v1e-4c3.7576-2.1077 2.3203-1.5506 3.0456-3.387z" stroke-width=".9"/><path d="m1042.3 2064.1c0.712-1.405 4.7153-2.4235 5.1513-2.8975 2.2103-3.0603 5.1323-2.5226 10.149 2.9161 1.7828 1.9329 0.3986 7.0687-1.6877 8.5601-2.8583 2.0432-7.0354 1.5404-10.857 0.9199-0.816-0.931-1.547-0.895-1.747-3.947-0.157-2.398-1.674-4.2386-1.008-5.5516z" stroke-width=".9"/><path d="m1053.3 1985.3c2.6043-0.045 3.0012-3.4939 6.9013 0.5957 1.7069 1.6237 6.1442 2.3464 5.1792 4.1946-1.4135 2.7073 2.7012 2.5033 3.4008 4.2324 1.657 4.095 3.994 7.209 6.529 8.731 5.058 3.04 4.753 3.36 6.605 4.557 4.975 3.213 3.1126 9.8695 3.1126 9.8695-0.2917-0.1106-0.4329-0.1296-0.5744-0.1396-2.2905-0.1296-5.8818 1.6876-3.1484 4.0718 1.3505 1.178-0.459 2.9422-0.377 4.4102-0.2674 3.3064-1.0348 3.1902-3.0371 5.4648-0.5896 0.2995-1.13 0.5964-1.625 0.8867-0.495 0.2904-0.944 0.5739-1.3555 0.8497-0.8228 0.5514-1.8965 2.1262-2.4513 2.586-1.0786 0.9167-1.6636 0.8879-3.0389 1.3476-0.3637 0.1477-0.7211 0.2739-1.0703 0.3808-0.3492 0.107-0.6907 0.1938-1.0195 0.2598-6.2263 0.618-3.7832 0.4004-3.8412-2.2203 0.3787-1.6155 0.4046-1.6944 1.091-2.7539 0.2795-0.3626 0.6029-0.7426 0.9726-1.1426 0.3698-0.4 0.7862-0.8187 1.252-1.2559 0.2517-0.2361 0.483-0.4734 0.6933-0.7109 2.7172-3.0684 2.0628-6.2429-0.074-8.5977-0.5466-0.6024-1.2708-1.2246-2.2656-1.9218-2.3391-1.5764-2.774-2.5727-2.5293-5.6993-0.039-2.0337 1.8266-1.7578 3.8035-2.9114 2.1841-1.6327-2.6998-8.9904-5.7926-1.5887-0.7369 1.5686-1.7257 2.6587-3.087 3.6922-0.3473 0.3452-0.8282 0.8858-1.1777 1.5605-0.1335 0.2578-0.2365 0.5132-0.3145 0.7676-0.438 3.3781-0.2223 8.0269 2.254 10.147 2.4031 2.0576 3.7243 3.561 3.2353 4.9141-0.3373 3.2684-0.6836 3.4533-2.9929 3.4233-1.6211-0.3836-2.208-0.014-3.7864-2.8094-0.5685-1.0066-2.0074-0.989-4.4845-1.6655-4.2322-1.1559-5.1034 0.6868-7.1752-4.2138-0.9437-3.0363 2.6027-2.3909 3.5484-4.7637 1.1082-2.7807 1.1166-4.7645 0.7973-7.0521-0.045-0.3225-0.1037-0.6393-0.1777-0.9473s-0.1619-0.6071-0.2637-0.8945-0.2184-0.5635-0.3477-0.8242c-1.4617-2.9494-2.0476-2.8094-4.8496-4.8672-1.6045-1.1783-0.6317-3.1136-0.3993-4.1718 0.8908-4.0564 3.3512-6.0443 1.6786-11.717-0.5943-2.0157-2.8732-2.2268-2.3419-4.2845 0.6976-2.702 2.0139 0.095 5.1232 0.4896 1.4796 0.1876 1.7938-2.2846 2.8438-3.1175 0 0 0.9144 2.9021 4.5773 2.8383z" stroke-width=".5"/></g><g id="miyazaki" transform="translate(-3e-6)"><path d="m1068.8 1994.3c1.657 4.095 3.994 7.209 6.529 8.731 5.058 3.04 4.753 3.36 6.605 4.557 4.975 3.213 3.1126 9.8695 3.1126 9.8695 0.1258-0.01 0.3975 0.1163 0.6561 0.274 0.2586 0.1578 0.5038 0.3513 0.7285 0.5664 0.2246 0.2152 0.429 0.4528 0.6055 0.6953 0.1765 0.2426 0.3253 0.4905 0.4394 0.7305 1.0229 2.1503 4.018 4.5722 5.875 0.3047 0.015-0.034 0.8834-2.1754 1.4478-4.557 0.3286-1.3864 1.3689-3.0157 1.2703-4.1927 0.088-0.9158-0.5959-2.104-0.4879-3.6093 0.1352-1.884 0.238-4.0102 0.1882-5.8285-0.044-1.6059-0.085-3.2111-0.088-4.7559 0-0.7724 0.01-1.5293 0.029-2.2636 0.023-0.7343 0.061-1.446 0.1172-2.127 0.061-0.7362 0.077-1.4648 0.1035-2.2207 0.027-0.7559 0.065-1.5394 0.168-2.3887 0.052-0.4246 0.1194-0.8663 0.2109-1.3281 0.091-0.4618 0.2083-0.943 0.3535-1.4512 0.1453-0.5081 0.3204-1.0436 0.5332-1.6074s0.4616-1.1565 0.7559-1.7851c1.2812-2.0221 2.1672-4.0427 2.4707-6.416 0.054-0.5102 0.092-1.0762 0.1113-1.709 0.016-0.506 0.038-1.3496 0.1309-2.3926 0.046-0.5215 0.1094-1.0913 0.1992-1.6953 0.09-0.604 0.2059-1.2406 0.3555-1.8926 0.1495-0.652 0.3329-1.3209 0.5586-1.9863 0.2256-0.6654 0.4924-1.3284 0.8105-1.9727 0.159-0.3222 0.3305-0.6388 0.5156-0.9492 0.1852-0.3104 0.3843-0.6138 0.5977-0.9082 0.2133-0.2944 0.442-0.5795 0.6855-0.8535 0.2436-0.274 0.5035-0.5378 0.7793-0.7871 0.321-0.2903 0.7279-0.6746 1.1621-1.1348s0.8945-0.9959 1.3223-1.5859c0.2139-0.295 0.4195-0.604 0.6094-0.9239 0.1898-0.3199 0.3648-0.6505 0.5156-0.9902s0.2781-0.6884 0.375-1.043c0.097-0.3545 0.1634-0.7157 0.1914-1.08 0.032-0.4188 0.054-0.8052 0.01-1.0825-0.1195 0.065-1.7879 0.8715-1.8589-2.7177-0.034-1.7114-3.4952-1.5343-4.4479 1.0014-1.122 1.547-3.578 2.347-4.708 1.595-1.451-0.966-3.875-0.548-5.618-0.531-1.0655 0.01-2.1304-0.3381-3.1608-0.9931 0 0-3.0338-1.6585-3.6962-0.9308-0.3997 0.4391-1.0243 0.9749-1.9998 1.5639-2.2824 1.3781-3.8937 4.5112-4.1262 6.0549-1.5275 3.0227-4.1199 2.3562-5.1723 3.8114-1.3644 1.8866-0.4996 4.2845 1.7553 7.1226 1.185 1.49 2.199 4.02 2.278 5.922 0.079 1.892-2.7278 2.3367-2.757 5.8869 1.1173 2.2749 2.8608 1.9202 3.1574 4.5064 0.2852 2.4874-2.4808 1.113-6.0184 1.3757-3.236 0.682-7.6229 3.5013-7.6229 3.5013-1.3674 3.0956 2.7473 2.8916 3.4469 4.6207z" fill="none" stroke="#000" stroke-width=".5"/></g><g id="oita" transform="translate(-3e-6)"><path d="m1109.7 1951.3c0.071-0.1948 0.1585-0.3943 0.2656-0.6016s0.2344-0.4222 0.3867-0.6484c0.3046-0.4524 1.0775-0.7517 1.2461-1.5156 0.6751-3.0584 4.7383-4.4061 1.0335-8.0684-0.7707-0.7619-1.3253-1.7963-1.9414-2.7227-0.3995-0.6268-0.7942-1.3073-1.1856-1.996-1.7271-2.5122-3.1956-4.8102-3.4412-8.1162-0.1549-2.085-2.567-0.9654-4.5366-0.955-2.1057 0.011-4.2752 0.1456-5.8379-1.5022-1.9734-2.9032 3.8068-4.6714 4.7183-7.034 0.1702-0.4413-0.037-1.6923 0.032-2.1233 0.07-0.431 0.093-0.8543 0.072-1.2676s-0.086-0.8169-0.1875-1.2051c-0.1016-0.3881-0.24-0.7615-0.4122-1.1172-0.1721-0.3556-0.3784-0.6939-0.6113-1.0097-0.2328-0.3158-0.4938-0.6084-0.7773-0.877-0.2836-0.2685-0.5898-0.5126-0.9141-0.7265s-0.6664-0.3989-1.0215-0.5508c-0.355-0.1519-0.7218-0.2711-1.0976-0.3535-0.3758-0.082-0.7599-0.1272-1.1465-0.1328-0.3866-0.01-0.7767 0.029-1.1641 0.1074-0.3874 0.078-0.7721 0.2011-1.1504 0.3711-0.3782 0.17-0.7502 0.3873-1.1093 0.6562-0.3592 0.269-0.7052 0.5896-1.0352 0.9649-0.1577 0.1792-0.4141 0.389-0.7715 0.5976-0.1787 0.1043-0.382 0.2083-0.6113 0.3067-0.2293 0.098-0.4853 0.1917-0.7656 0.2753-0.2803 0.084-0.5862 0.1586-0.918 0.2188-0.3318 0.06-0.6885 0.107-1.0723 0.1348-0.3838 0.028-0.7942 0.037-1.1992 0.092 0 0-0.7787 5.1789-5.8067 5.0426-2.572-0.07-5.7743 0.5581-7.0449 1.0831-4.814 1.99-5.8793 5.8217-5.5733 8.4337 0.226 1.922-0.011 4.757-0.152 6.605-0.066 0.8668-0.3806 1.5873-0.7572 2.2302 4.4832 3.9988 5.3312 5.9258 6.8644 1.5629-0.7206-1.4523-0.4364-3.0282 1.2024-3.2758 1.8418-0.2783 4.7992-0.2925 6.8008 2.4851 0.4146 0.5753 0.8031 1.2654 1.1506 2.0836 1.3103 5.0868 6.382 13.183 11.465 13.136 1.743-0.017 4.167-0.435 5.618 0.531 1.13 0.752 3.586-0.048 4.708-1.595 0.9527-2.5357 4.4142-2.7128 4.4479-1.0014 0.071 3.5892 1.7394 2.7828 1.8589 2.7177 0.151-0.4795 0.2296-0.8502 0.3715-1.2398z" fill="none" stroke="#000" stroke-width=".5"/></g><g id="fukuoka" transform="translate(-3e-6)"><path d="m1054.1 1943c1.006-0.454 0.111-2.7533 0.814-3.2043 1.686-1.08 3.654-1.033 5.543-1.367 0.933-0.164 5.276-1.276 5.542-4.783 0.141-1.848 0.378-4.683 0.152-6.605-0.306-2.612 0.7593-6.4437 5.5733-8.4337 1.2706-0.525 4.4729-1.1529 7.0449-1.0831 5.028 0.1363 5.8068-5.0426 5.8068-5.0426-0.4673-0.082-0.9306-0.1189-1.4197-0.1822-0.4205-0.055-0.8674-0.1609-1.334-0.3125-0.4666-0.1515-0.9521-0.348-1.4473-0.5859-0.4951-0.238-0.9998-0.5162-1.5058-0.8301s-1.0143-0.6637-1.5137-1.043c-0.4993-0.3792-0.9898-0.7885-1.4648-1.2226-0.4751-0.4341-0.934-0.8926-1.3672-1.3711-1.0157-0.955-2.0629-1.07-2.3396-3.3519-0.4588-3.7844 0.3916-8.2529-2.8402-6.5118-1.8797 1.0126-3.1057 4.3403-6.6565 1.2708-2.0517-1.6353-10.282 1.6104-13.756 5.9344l8e-4 9e-4c-0.8185 1.0572-1.7189 2.4473-1.9375 3.8945-0.033 0.2212-0.049 0.436-0.051 0.6465 0 0.3231-0.051 0.671-0.1406 1.0274-2.8737 4.6023-3.8579 4.0722-7.9561 2.2077-1.1061-0.5032-2.4402 0.9819-3.2998 1.8613-0.2293 0.2346-0.4353 0.5041-0.6113 0.8047-0.1761 0.3006-0.3217 0.6328-0.4356 0.9922s-0.1954 0.7471-0.2382 1.1582c-0.053 0.5104-0.1293 0.9452-0.2305 1.3184-0.1012 0.3731-0.2271 0.6845-0.3254 0.9413 0 0 5.2054-0.3666 7.0252 1.0217 6.777 5.1703 6.7881 3.0156 6.7881 3.0156 2.367-2.5569 7.2928-1.3491 5.4966 4.1019-0.915 1.232-4.3739 1.1813-5.3769 2.5003-1.849 2.429-0.4091 4.0107-2.8177 6.3945 1.4924 0.9152 1.4437 2.4925 3.0013 3.8208 1.5502 1.322 2.4465 2.6234 3.1338 3.7022 0 0 2.1135-0.2215 3.1435-0.6855z" fill="none" stroke="#000" stroke-width=".5"/></g><g id="kumamoto" transform="translate(-3e-6)"><path d="m1085.9 1950c-0.3997 0.4391-1.0243 0.9749-1.9998 1.5639-2.2824 1.3781-3.8937 4.5112-4.1262 6.0549-1.5275 3.0227-4.1199 2.3562-5.1723 3.8114-1.3644 1.8866-0.4996 4.2845 1.7553 7.1226 1.185 1.49 2.199 4.02 2.278 5.922 0.079 1.892-2.7278 2.3367-2.757 5.8869 1.1173 2.2749 2.8608 1.9202 3.1574 4.5064 0.2852 2.4874-2.4808 1.113-6.0184 1.3757-3.236 0.682-7.6229 3.5013-7.6229 3.5013 1.0111-1.4599-3.4262-2.1826-5.1331-3.8063-3.9001-4.0896-4.297-0.6407-6.9013-0.5957-3.6629 0.064-4.5774-2.8383-4.5774-2.8383 3.4382-4.4116 5.7021-4.7607 6.6136-10.142 0.3035-1.7922 0.5797-5.4887-1.5108-4.6195-1.0749 0.4472-1.7821-0.5627-3.8347 0.183-3.1097 1.1296-1.3115-1.8907 1.2529-2.808 2.1618-0.7733 3.3333-2.2311 3.0707-4.3902-0.4646-3.8196 0.3504-2.4846 1.471-5.2798 0.016-0.3148 0.016-0.6345 0-0.9551-0.1327-2.5782-4.502-3.3121-4.448-6.8511 0.072-0.8376 0.09-2.1074-0.3647-3.795 0 0 2.0697-0.3274 3.0997-0.7914 1.006-0.454 0.111-2.7533 0.814-3.2043 1.686-1.08 3.654-1.033 5.543-1.367 0.6637-0.1167 3.0528-0.713 4.6658-2.4079 4.6022 3.8539 5.4502 5.7809 6.9834 1.418-0.7206-1.4523-0.4364-3.0282 1.2024-3.2758 1.8418-0.2783 4.7992-0.2925 6.8008 2.4851 0.4146 0.5753 0.8031 1.2654 1.1506 2.0836 0.8968 3.4817 3.5558 8.3732 7.539 11.595 0 0-2.2686-1.1103-2.931-0.3826z" fill="none" stroke="#000" stroke-width=".5"/></g><g id="saga" transform="translate(-3e-6)"><path d="m1022.2 1934c0.505 0.894 1.34 1.668 2.202 2.657 1.403 1.609 4.4475 2.5155 6.0855 2.9515 3.8981-0.6645 0.6611 3.1222 3.5585 3.5025 3.2271 2.5143 6.7466 3.0672 6.7466 3.0672-1.9044-3.3106-2.3674-2.3308-3.0764-5.3701-1.7059-3.1972 0.44-4.0146 3.2943-5.0837 0.2273-0.045 0.4612-0.068 0.6993-0.068 1.5798-0.037 2.5451 0.184 3.1192 0.4791 2.411-2.3825 0.9711-3.9642 2.8201-6.3932 1.003-1.319 4.4619-1.2683 5.3769-2.5003 1.7962-5.451-3.1296-6.6588-5.4966-4.1019 0 0-0.011 2.1547-6.7881-3.0156-1.8198-1.3883-7.0254-1.0217-7.0254-1.0217-0.2015 0.2569-0.3762 0.4598-0.5751 0.6212-0.1989 0.1613-0.4233 0.2804-0.6719 0.3672-0.2485 0.087-0.5216 0.1408-0.8203 0.1738s-0.6214 0.045-0.9707 0.045c-2.0892 0.026-2.5899-2.7826-6.2266 0.2297-0.155 0.065-0.306 0.1437-0.4492 0.2343-0.1432 0.091-0.2803 0.1945-0.4082 0.3145-1.7166 1.9272 1.1446 3.4821 0.095 7.4168 0.4764 2.2427-0.786 1.9491-1.6623 0.8357 0 0-0.3526 3.726 0.1734 4.659z" fill="none" stroke="#000" stroke-width=".5"/></g></g><g transform="translate(-3e-6)"><path id="shikoku" d="m1193.2 1868c1.6565 0.5404 2.5587 1.2743 3.795 0.76 0.6397-1.229 2.061-1.351 3.646-0.607 0.854 0.4 1.599 1.436 3.188 1.519 3.244 0.171 3.426 1.825 3.493 2.05 0.363 1.231 3.874 1.61 5.087 1.366 3.588-0.72 3.868 0.629 3.721 1.899-0.322 2.747 1.315 6.335 2.809 6.757 1.574 0.446 2.197 2.748 2.506 5.542 0.275 2.488-1.206 4.886-2.733 5.923-4.554 3.089-10.091 8.335-13.136 12.68-0.713 1.018-1.302 3.411-2.429 5.313-1.056 1.781-1.495 3.597-2.05 5.392-0.669 2.161-1.947 4.207-4.557 1.366-1.104-1.202-3.158-1.788-4.707-4.251-0.742-1.181-2.527-2.277-3.645-3.113-1.878-1.403-4.062-2.373-7.593-2.202-2.05 0.1-5.174-0.602-6.605 2.581-0.544 1.212-2.454 3.146-4.251 3.873-3.424 1.385-6.926 2.762-7.062 7.745-0.098 3.615-1.146 5.216-2.506 7.289-1.13 1.722-2.55 4.192-4.327 5.693-2.416 2.041-4.613 4.683-2.582 6.682 1.325 1.305 2.441 5.288-1.519 4.555-1.839-0.34-4.615 0.081-6.074 1.671-1.91 2.082-4.458 3.058-6.226 0-0.6034-1.0433-2.4276-0.2841-3.2162-1.4494-0.7157-1.0576-0.3921-4.0441-1.0358-4.9276-2.5638-5.9019-6.3294 1.8436-7.4001-1.7243-1.1778-3.9245 1.4764-3.2323 1.8114-5.3463 0.456-2.865 1.6817-4.4004 2.7797-5.3824 1.2661-0.7602 1.588-2.929 0.683-3.644-1.073-0.846-1.0942-2.4024-1.9302-3.4834-0.6028-0.7801-2.0103 0.8121-3.4214 0.023-1.1519-0.6445-0.7594-3.1153-1.8639-3.7902-1.7408-1.0636-4.0726 0.2631-6.4515 0.2766-8.8217 1.764-5.011-1.03 0-1.821 6.1357-2.2012 8.503-5.3896 11.997-8.4386 0.995-0.868 2.268-2.308 3.417-2.961 2.396-1.362 2.994-2.579 3.189-4.48 0.168-1.64 0.917-3.493 1.898-4.327 1.839-1.563 1.663-3.682 1.67-4.177 0.054-3.203 1.95-5.813 3.949-7.667 4.489-4.162 6.506-1.035 8.959 2.125 1.767 2.276 3.936 5.404 6.378 2.278 1.618-2.07 5.081-2.295 6.226-2.126 4.698 0.692 8.733-3.338 8.808-5.999 0.9168-3.4652 0.79-4.921 4.404-8.2 1.7876-1.494 3.637-2.6853 5.4987-3.6272 2.8134-1.0027 5.7146-2.4204 7.4083-1.6138z" stroke="#000" stroke-width="1.2148"/><g id="kochi" transform="translate(0)"><path d="m1138.8 1936.4c0.6461-0.9209-0.1014-2.454 0-3.0994-0.6218-1.325-1.1167-2.9136-0.9567-3.5376 0.283-1.104 2.8075-0.5297 3.6935-1.1237 1.21-0.813 1.9916-4.3996 3.5556-5.5906 1.535-1.166 3.4573-2.2085 2.7445-4.7821-1.5525-1.7038-3.4029-2.8279-2.9391-3.7887 0.4228-0.8756 4.2677-1.0409 4.9862-1.5253 3.063-2.062 5.176-6.257 6.911-9.187 1.096-1.853 0.705-3.848 4.251-5.847 1.652-0.931 4.44-2.274 5.619-3.341 1.223-1.105 5.062-1.429 7.972-3.113 1.477-0.854 5.812-1 7.896 0.684 1.276 1.031 2.914 1.524 4.707 1.367 3.008-0.263 3.621 0.358 5.619 1.519 1.5111 0.8776-0.09 4.6249 1.6866 6.1204 0.8937 0.7522 3.9088-1.6816 5.0184-1.119 1.4694 0.7451 2.3669 2.193 2.71 3.5543 0.5162 2.0476 3.2858 2.2858 3.2858 2.2858-0.7344 1.0298-1.3234 3.4228-2.4504 5.3248-1.056 1.781-1.495 3.597-2.05 5.392-0.669 2.161-1.947 4.207-4.557 1.366-1.104-1.202-3.158-1.788-4.707-4.251-0.742-1.181-2.527-2.277-3.645-3.113-1.878-1.403-4.062-2.373-7.593-2.202-2.05 0.1-5.174-0.602-6.605 2.581-0.544 1.212-2.454 3.146-4.251 3.873-3.424 1.385-6.926 2.762-7.062 7.745-0.098 3.615-1.146 5.216-2.506 7.289-1.13 1.722-2.55 4.192-4.327 5.693-2.416 2.041-4.613 4.683-2.582 6.682 1.325 1.305 2.441 5.288-1.519 4.555-1.839-0.34-4.615 0.081-6.074 1.671-1.91 2.082-4.458 3.058-6.226 0-0.6034-1.0433-2.4276-0.2841-3.2162-1.4494-0.7157-1.0576-0.3921-4.0441-0.762-4.7852 0.5946-1.3201 2.1973-4.1718 3.3728-5.8473z" fill="none" stroke="#000" stroke-width=".5"/></g><g id="kagawa" transform="translate(0)"><path d="m1203.8 1869.7c-1.589-0.083-2.334-1.119-3.188-1.519-1.585-0.744-3.0063-0.622-3.646 0.607-1.2363 0.5143-2.1385-0.2196-3.795-0.76v4e-4c-1.6937-0.8066-4.5949 0.6111-7.4083 1.6138-1.8617 0.9419-3.7111 2.1332-5.4987 3.6272-3.614 3.279-3.4872 4.7348-4.404 8.2-0.022 0.7855-0.3893 1.6902-1.0453 2.6675 1.1903 0.2539 1.7428 0.8192 2.5727 1.0258 1.672 0.4164 0.9049 3.8388 0.9751 5.7726 0 0-0.6339-4.2926 1.2181-5.4376 1.022-0.634 3.227-1.839 3.948-2.582 1.375-1.417 3.773-1.726 5.694-2.126 1.504-0.313 3.2026 0.4641 4.5666-0.2449 0.849-0.441 2.9681-2.5486 4.0071-2.6126 2.2924-0.1385 5.2675-0.4167 7.2915-0.6505 2.0745-0.2396 2.007-3.7504 2.6985-5.1498-0.5603-0.6069-0.7423-2.2609-3.9863-2.4319z" fill="none" stroke="#000" stroke-width=".5"/></g><g id="tokushima" transform="translate(0)"><path d="m1205.1 1877.3c-2.024 0.2338-4.9991 0.512-7.2915 0.6505-1.039 0.064-3.1581 2.1716-4.0071 2.6126-1.364 0.709-3.0626-0.068-4.5666 0.2449-1.921 0.4-4.319 0.709-5.694 2.126-0.721 0.743-2.926 1.948-3.948 2.582-1.852 1.145-1.1371 5.3117-1.1371 5.3117 1.4544 0.1427 3.0571 0.5271 4.0981 1.3683 1.276 1.0311 2.914 1.524 4.707 1.367 3.008-0.263 3.621 0.358 5.619 1.519 1.5111 0.8776-0.09 4.6249 1.6866 6.1204 0.8937 0.7522 3.9088-1.6816 5.0184-1.119 1.4694 0.7451 2.3669 2.193 2.71 3.5543 0.5162 2.0476 3.2858 2.2858 3.2858 2.2858 3.0234-4.3334 8.5606-9.5792 13.115-12.668 1.527-1.037 3.008-3.435 2.733-5.923-0.309-2.794-0.932-5.096-2.506-5.542-1.494-0.422-3.131-4.01-2.809-6.757 0.147-1.27-0.133-2.619-3.721-1.899-1.213 0.244-4.724-0.135-4.5937-0.9841-0.6915 1.3994-0.624 4.9102-2.6985 5.1498z" fill="none" stroke="#000" stroke-width=".5"/></g><g id="ehime" transform="translate(0)"><path d="m1127.8 1940.4c-1.1778-3.9245 1.4764-3.2323 1.8114-5.3463 0.456-2.865 1.6817-4.4004 2.7797-5.3824 1.2661-0.7602 1.588-2.929 0.683-3.644-1.073-0.846-1.0942-2.4024-1.9302-3.4834-0.6028-0.7801-2.0103 0.8121-3.4214 0.023-1.1519-0.6445-0.7594-3.1153-1.8639-3.7902-1.7408-1.0636-4.0726 0.2631-6.4515 0.2766-8.8217 1.764-5.011-1.03 0-1.821 6.1357-2.2012 8.503-5.3896 11.997-8.4386 0.995-0.868 2.268-2.308 3.417-2.961 2.396-1.362 2.994-2.579 3.189-4.48 0.168-1.64 0.917-3.493 1.898-4.327 1.839-1.563 1.663-3.682 1.67-4.177 0.054-3.203 1.95-5.813 3.949-7.667 4.489-4.162 6.506-1.035 8.959 2.125 1.767 2.276 3.936 5.404 6.378 2.278 1.618-2.07 5.081-2.295 6.226-2.126 3.1918 0.4701 6.0776-1.2393 7.6788-3.2198 1.2742 0.1422 1.8267 0.7075 2.6566 0.9141 1.672 0.4164 0.9049 3.8388 0.8058 5.8439-1.4742-0.1691-2.8394 0.078-3.5476 0.4871-2.91 1.684-6.749 2.008-7.972 3.113-1.179 1.067-3.967 2.41-5.619 3.341-3.546 1.999-3.155 3.994-4.251 5.847-1.735 2.93-3.848 7.125-6.911 9.187-0.7185 0.4844-4.5634 0.6497-4.9862 1.5253-0.4638 0.9608 1.3866 2.0849 2.9391 3.7887 0.7128 2.5736-1.2095 3.6161-2.7445 4.7821-1.564 1.191-2.3456 4.7776-3.5556 5.5906-0.886 0.594-3.4105 0.02-3.6935 1.1237-0.16 0.624 0.3349 2.2126 0.9567 3.5376-0.1014 0.6454 0.6461 2.1785 0 3.0994-1.1755 1.6755-2.7782 4.5272-3.3728 5.8473-2.8376-6.0443-6.6032 1.7012-7.6739-1.8667z" fill="none"/></g></g><g id="chugoku-area" transform="translate(-57.225 -26.012)" stroke="#000"><g stroke="#000"><path id="oki" transform="translate(57.225 26.012)" d="m1142.1 1781c-0.157-2.398 0.625-3.319 1.291-4.632 0.712-1.405 2.4163-3.3431 2.8523-3.8171 2.2103-3.2902 5.1323-2.5226 10.149 2.9161 1.7828 1.9329-0.9763 6.0962-1.6877 8.5601-0.7892 2.7329-7.0354 1.5404-10.857 0.9199-0.816-0.931-1.547-0.895-1.747-3.947z"/><path id="insel" transform="translate(57.225 26.012)" d="m1129.8 1794.8c-0.157-2.398-1.2142-1.2499-0.5482-2.5629 0.712-1.405 4.7153-1.7338 5.1513-2.2078 1.2155-1.8094 1.887-1.8616 3.6783-1.7603 1.4661 0.083 5.1331-0.2627 4.1714 3.0671-1.2382 4.2869-2.7089 0.8007-4.9063 2.1228-3.778 2.2731 0.5513 1.7703-3.2706 1.1498-1.7356-2.0805-4.0759 3.2433-4.2759 0.1913z"/><path transform="translate(57.225 26.012)" d="m1201.3 1852.8c-2.109 2.391-6.066 5.592-7.821 6.377-4.786 2.144-5.73 4.279-5.922 5.087-0.703 2.974-6.576 3.961-7.744 2.43-0.971-1.271-3.627-2.665-4.708-0.911-0.721 1.172-2.052 1.574-4.404 1.063-1.99-0.433-4.778 1.225-4.708 2.885 0.109 2.555-2.365 3.093-4.404 1.52-2.427-1.875-7.06 1.116-7.896 2.354-2.076 3.068-5.319 4.077-8.048 4.327-2.705 0.248-6.3976 2.1783-8.504 4.024-1.5147 3.2077-8.0778 8.2313-9.111-0.229-1.3712-5.9746-9.1839-1.1496-11.085 2.43-0.545 1.9958 0.525 2.8858 0.8498 4.8716 0.2454 1.5009-0.4425 2.2067-2.1081 3.644-1.3457 1.2693 0.3151 5.871 0.058 7.327-0.254 1.438-2.0878 7.2074-4.7218 4.0514-0.708-0.85-1.425-0.924-2.126-1.216-1.104-0.458-2.302-1.638-3.037-2.58-0.559-0.719-1.71-2.001-3.189-2.733-0.949-0.471-2.675-1.518-3.34-1.747-6.206-2.146-9.2195-2.0856-10.674-0.3886-0.723 0.846-2.3018 2.0359-3.3448 2.5079-1.938 0.878-3.4227 1.8867-4.1827 2.3307-2.3468 1.15-2.0439 0.4436-4.6633-1.3572-0.7453-1.3851 0.3428-4.1722-0.6828-5.474-0.568-0.948-4.7622-3.1788-5.6948-0.5768-1.5237 2.2376-3.4165 4.5328-3.9965 3.2715-0.231-0.34 0.2252-4.0497-1.3788-5.588-0.9147-2.5053 0.5291-1.106 0.7829-3.0388 0.4301-3.2755-1.821-2.1035 0.3931-6.0396l2.0092-1.6681c2.2616 0.139 3.648 0.23 4.404-0.38 1.981-1.604 4.221-1.403 5.922-1.898 3.592-1.046 4.634-3.9 5.618-5.922 1.36-2.792 4.747-6.808 7.821-6.379 2.695 0.377 4.545-0.649 8.124-5.314 1.73-2.254 3.94-5.197 6.226-7.137 3.393-2.881 4.84-5.24 6.757-7.593 3.772-4.625 8.9315-9.7974 13.439-12.907 3.4905-2.408 4.3264-4.625 3.3949-5.9705-5.1963-3.5198 3.4437-4.4467 6.53-6.453 2.279-1.4816 5.2091-2.1225 5.9431-3.4445 0.875-1.574 2.896-1.866 4.935-1.898 3.9-0.062 3.801 1.77 2.582 2.962-1.355 1.324 0.779 3.201 2.733 2.96 1.719-0.211 4.433 0.145 6.151-0.075 4.328-0.554 4.948-4.246 11.692-3.645 2.94 0.262 7.33 0.232 9.566 0 1.88-0.195 4.217-0.962 5.998-1.595 2.14-0.761 3.655-2.782 7.289-3.189 2.11-0.235 4.702-2.031 6.529-3.113 1.1677-0.01 0.3705 4.3645 6.5015 11.377 1.8206 2.0824-1.8469 6.1339-4.1513 8.1368-3.8357 3.3336-6.1657 7.6773-4.4064 11.512 1.0372 2.261-0.9505 3.8124-1.0657 5.9077-0.1096 1.9942 4.8805 5.4965 4.87 7.1033z"/></g><g id="okayama" transform="translate(57.225 26.012)"><path d="m1157.8 1838.8c1.0653-0.8435 4.8813-1.3001 4.0987-3.4805-1.7436-4.8579 5.4708-1.4538 6.757-6.378 0.965-0.517 0.7529-2.9104 2.1819-3.4804 1.539-0.613 4.1301 1.2884 5.6391 1.5824 1.0629 0.2079 2.2354 1.8388 3.5093 1.4484 0.7421-0.2275 1.626-1.6241 2.2607-3.1184 1.7084-1.8691 2.0953-2.0616 3.7009-1.9532 1.639 0.1106-0.5301 1.5392 1.0145 2.6266 0.8049 1.808 5.2734-1.186 8.2739 1.1232 0.7562 0.9078 2.5225-0.4666 4.0591-0.3526 1.4799 0.1097 2.7466 1.7235 2.6164 1.627-3.9118 3.2145-6.2418 7.5582-4.4825 11.393 1.0372 2.261-0.9505 3.8124-1.0657 5.9077-0.1096 1.9942 4.8805 5.4965 4.87 7.1033-2.109 2.391-6.066 5.592-7.821 6.377-4.786 2.144-5.73 4.279-5.922 5.087-0.703 2.974-6.576 3.961-7.744 2.43-0.971-1.271-3.627-2.665-4.708-0.911-0.721 1.172-2.052 1.574-4.404 1.063-1.0322-0.2246-2.279 0.1134-3.288 0.6685-0.016-0.054-2.8266-3.3336-4.3086-5.6306-0.772-1.194-1.519-5.0102-1.975-6.2672-0.526-1.447-0.38-3.271-2.354-4.783-0.788-0.601-2.787-3.704-2.05-5.694 0.2999-0.8092 0.2702-2.7747-0.7329-3.9044-0.3253-0.3663-0.8923-0.468-1.4625-0.55-0.644-0.093-1.292-0.1608-0.7904-0.2762 1.9205-0.076 2.88-0.672 4.1271-1.6579z" fill="none" stroke="#000" stroke-width=".5"/></g><g id="tottori" transform="translate(57.225 26.012)"><path d="m1206 1820.2c-6.131-7.0123-5.3338-11.387-6.5015-11.377-1.827 1.082-4.419 2.878-6.529 3.113-3.634 0.407-5.149 2.428-7.289 3.189-1.781 0.633-4.118 1.4-5.998 1.595-2.236 0.232-6.626 0.262-9.566 0-6.744-0.601-7.8722 3.4225-12.523 3.724 0.05 0.4845-0.8933 3.2114-0.3339 4.4406 0.8206 1.8031-0.522 3.846-3.684 5.0805-1.9892 0.7767-4.9586 2.4878-3.7727 3.3336 4.8685 3.4722 0.4798 3.5542 3.0729 6.889 0.3086 0.3968 0.9566 0.4646 1.6106 0.5602 1.1201-0.3545 2.0796-0.9508 3.3267-1.9367 1.0653-0.8435 4.8813-1.3001 4.0987-3.4805-1.7436-4.8579 5.4708-1.4538 6.757-6.378 0.965-0.517 0.7529-2.9104 2.1819-3.4804 1.539-0.613 4.1301 1.2884 5.6391 1.5824 1.0629 0.2079 2.2354 1.8388 3.5093 1.4484 0.7421-0.2275 1.626-1.6241 2.2607-3.1184 1.7084-1.8691 2.0953-2.0616 3.7009-1.9532 1.639 0.1106-0.5301 1.5392 1.0145 2.6266 0.8049 1.808 5.2734-1.186 8.2739 1.1232 0.7562 0.9078 2.5225-0.4666 4.0591-0.3526 1.4799 0.1097 2.7466 1.7235 2.6165 1.627 2.2282-2.122 5.8957-6.1735 4.0751-8.2559z" fill="none" stroke="#000" stroke-width=".5"/></g><g id="hiroshima" transform="translate(57.225 26.012)"><path d="m1154.5 1840.7c0.5702 0.082 1.1372 0.1837 1.4625 0.55 1.0031 1.1297 1.0328 3.0952 0.7329 3.9044-0.737 1.99 1.262 5.093 2.05 5.694 1.974 1.512 1.828 3.336 2.354 4.783 0.456 1.257 1.203 5.0732 1.975 6.2672 1.482 2.297 4.293 5.5768 4.2781 5.6505-0.8236 0.6362-1.4224 1.4162-1.3895 2.1966 0.109 2.555-2.365 3.093-4.404 1.52-2.427-1.875-7.06 1.116-7.896 2.354-2.076 3.068-5.319 4.077-8.048 4.327-2.705 0.248-6.3976 2.1783-8.504 4.024-1.5147 3.2077-8.0778 8.2313-9.111-0.229-1.3712-5.9746-9.1839-1.1496-11.088 1.8269 0 0-2.1239-1.6182-2.9629-2.1962-2.022-1.394-2.41-3.227-3.417-4.557-0.3885-0.5145-0.2942-1.8649-0.018-3.3716 0.4796-2.6169-3.1382-2.0697-3.1382-2.0697 0.082-0.2799 0.2679-1.2919 0.3677-1.5388 1.5047-3.7219 4.8409-3.9887 5.8268-9.5699 0.899-0.798 3.236-1.744 4.1-2.582 1.923-1.864 3.597-1.964 5.77-1.746 3.776 0.3791 8.3795 0.3359 6.8036-3.4822-0.7597-1.8406 3.2242-2.6437 4.1304-4.1858 4.997-8.508 4.984-7.126 12.831-7.062 3.7076 0.031 7.9735-0.1299 7.6975-0.8168 1.4158-0.4366-1.0469 0.2166-0.4029 0.3094z" fill="none" stroke="#000" stroke-width=".5"/></g><g id="shimane" transform="translate(57.225 26.012)"><path transform="translate(-3e-6)" d="m1152.3 1820.4c-1.954 0.241-4.088-1.636-2.733-2.96 1.219-1.192 1.318-3.024-2.582-2.962-2.039 0.032-4.06 0.324-4.935 1.898-0.734 1.322-3.6641 1.9629-5.9431 3.4445-3.0863 2.0063-11.726 2.9332-6.53 6.453 0.9315 1.3455 0.096 3.5625-3.3949 5.9705-4.5075 3.1096-9.667 8.282-13.439 12.907-1.917 2.353-3.364 4.712-6.757 7.593-2.286 1.94-4.496 4.883-6.226 7.137-3.579 4.665-5.429 5.691-8.124 5.314l0.4148 0.081c0.2326 2.5717 0.1869 4.513 0.9234 6.2864 0.6826 1.644 4.1064 0.3849 4.5783 4.8034 1.9962 1.3036 1.513 2.8709 4.7468 2.184 5.0645-1.0758 4.6753-4.0972 4.9363-6.896 0.058-0.6248 0.1489-1.2385 0.3399-1.817 1.223-3.706 4.9467-3.6146 5.998-9.566 0.899-0.798 3.236-1.744 4.1-2.582 1.923-1.864 3.597-1.964 5.77-1.746 3.776 0.3791 8.3795 0.3359 6.8036-3.4822-0.7597-1.8406 3.2242-2.6437 4.1304-4.1858 4.997-8.508 4.984-7.126 12.831-7.062 3.7076 0.031 5.6754 0.025 7.3046-0.5048-0.654-0.095-1.302-0.1634-1.6106-0.5602-2.5931-3.3348 1.7956-3.4168-3.0729-6.889-1.1859-0.8458 1.7835-2.5569 3.7727-3.3336 3.162-1.2345 4.7167-3.1399 3.684-4.8305-0.4953-0.8107 0.2159-3.658 0.2391-4.569 0.013-0.5133-1.8295-0.02-2.4946-0.349z" fill="none" stroke="#000" stroke-width=".5"/></g><g id="yamaguchi" transform="translate(57.225 26.012)"><path transform="translate(-3e-6)" d="m1117.8 1889.1c0.2454 1.5009-0.4425 2.2067-2.1081 3.644-1.3457 1.2693 0.3151 5.871 0.058 7.327-0.254 1.438-2.0878 7.2074-4.7218 4.0514-0.708-0.85-1.425-0.924-2.126-1.216-1.104-0.458-2.302-1.638-3.037-2.58-0.559-0.719-1.71-2.001-3.189-2.733-0.949-0.471-2.675-1.518-3.34-1.747-6.206-2.146-9.2195-2.0856-10.674-0.3886-0.723 0.846-2.3018 2.0359-3.3448 2.5079-1.938 0.878-3.4227 1.8867-4.1827 2.3307-2.3468 1.15-2.0439 0.4436-4.6633-1.3572-0.7453-1.3851 0.3428-4.1722-0.6828-5.474-0.568-0.948-4.7622-3.1788-5.6948-0.5768-1.5237 2.2376-3.4165 4.5328-3.9965 3.2715-0.231-0.34 0.2252-4.0497-1.3788-5.588-0.9147-2.5053 0.5291-1.106 0.7829-3.0388 0.4301-3.2755-1.821-2.1035 0.3931-6.0396l2.0092-1.6681c2.2616 0.139 3.648 0.23 4.404-0.38 1.981-1.604 4.221-1.403 5.922-1.898 3.592-1.046 4.634-3.9 5.618-5.922 1.36-2.792 4.747-6.808 7.821-6.379l0.4148 0.081c0.2326 2.5717 0.1869 4.513 0.9234 6.2864 0.6826 1.644 4.1064 0.3849 4.5783 4.8034 1.9962 1.3036 1.513 2.8709 4.7468 2.184 5.0645-1.0758 4.6753-4.0972 5.0034-7.0118 0 0 3.6941-0.7057 3.2145 1.9112-0.2762 1.5067-0.3705 2.8571 0.018 3.3716 1.007 1.33 1.395 3.163 3.417 4.557 0.839 0.578 2.963 2.1962 2.963 2.1962-0.5421 2.5989 0.5279 3.4889 0.8527 5.4747z" fill="none" stroke="#000" stroke-width=".5"/></g></g><g id="kansai-area" transform="translate(-57.225 -26.012)"><path transform="translate(57.225 26.012)" d="m1218.3 1869.8c-0.157-2.398 0.625-3.319 1.291-4.632 0.712-1.405 1.766-1.88 2.202-2.354 0.563-0.609 1.521-1.629 1.898-2.506 0.382-0.891 2.063-1.356 2.429-2.354 0.352-0.958 1.695-1.354 2.81-0.985 1.692 0.558 2.394 2.081 1.898 3.644-0.221 0.7-0.371 1.962-0.607 2.658-0.347 1.025-0.841 1.88-1.595 2.656-1.854 1.911-1.616 3.621-1.594 3.948 0.399 5.965-4.835 6.328-6.985 3.872-0.816-0.931-1.547-0.895-1.747-3.947z" stroke="#000" stroke-width="1.2148"/><path transform="translate(57.225 26.012)" d="m1244.6 1811.5c-0.3883 1.5698-0.8184 3.1312 0.6138 4.3037 0.3259 0.2668-0.4281 0.6285 1.1708 0.7355 1.4611 0.098 3.2065-0.051 5.0015 0.2403 1.2329 0.2001 2.4893 0.9722 3.6929 0.7125 2.369-1.794 2.3755-2.68 4.5221-3.4572 2.1885-0.091 2.2789-2.0188 3.1519-2.5378 1.08-0.643-0.5848-1.9975 0.8618-3.9931 1.2095-1.4246 3.578 0.7722 6.7722-2.5799 1.744-1.808-0.8377-3.0108 0.2303-4.5748 1.8961-0.3901 3.3504-0.1983 4.3541 0.9637 1.1766 1.3622 2.8257 6.2853 3.4576 8.3571 0.891 2.916 2.326 2.724 2.726 4.728-0.7646 6.8858 1.3311 6.3007 6.9009 5.7788 1.5478-0.145 1.7518 4.8208 4.3281 4.5752 1.19 3.777 3.941 3.932 4.861 6.825m0.01 0c-1.058 0.337-4.437 2.394-5.087 3.569-0.88 1.587 0.6488 2.6338-1.4007 6.4953-3.1962 3.893-1.6728 6.2101 1.4788 9.6208 1.029 1.03 8.213 1.1872 9.66 1.9212 3.271 1.656 10.533 7.0743 1.5001 13.09-0.8418 0.3711-2.8568-0.3779-4.4798 0.3051-2.729 1.149-7.35 1.756-10.098 3.493-2.777 1.756-5.86 1.82-5.467 6.832 0.379 4.812-1.253 5.611-5.314 8.96-5.436 4.484-5.27 2.847-5.239 10.478 0.017 4.157 0.848 7.844-2.202 8.579-2.317 0.561-3.875 2.646-4.327 3.038-1.12 0.971-2.05 2.837-4.556 2.506-0.521-0.069-1.525-0.927-2.505-0.911-1.04 0.015-2.034-0.411-3.342-1.519-1.448-1.228-3.583-2.486-5.466-2.734-0.674-0.088-1.473-0.271-4.328-2.277-0.59-0.414-1.376-1.881-1.975-2.505-1.004-1.047-2.232-1.976-2.505-3.267-0.386-1.825-1.92-3.663-4.101-4.1-1.935-0.385-3.909-3.643-3.188-6.529 0.571-2.283 0.358-5.548 0-7.136-1.367-6.061-0.745-7.31 1.974-8.731 1.287-0.674 3.4-2.227 4.176-3.342 0.672-0.964 1.406-2.218 2.3538-3.0371 1.6058-1.3881 2.6698-3.3491 2.5048-5.4671-0.182-2.352 0.435-5.74-3.947-5.087-2.501 0.375-6.368 2.376-11.465 0.607-2.065-0.717-4.955-1.29-7.441-1.063-3.187 0.292-6.03-0.914-9.188-1.441-4.649-0.781-10.479-0.811-11.996 0.91 0.043-1.9004-3.621-3.8051-4.5518-5.9944-1.1736-2.7605 1.7685-4.4294 0.9172-6.3539-1.5775-3.5663-0.2753-8.1526 2.3858-10.364 4.4765-3.7205 7.0112-7.5246 6.4534-9.1192-0.5001-1.4298-2.5771-3.0607-3.7286-5.0629-1.3543-2.3551-2.2737-5.267-3.2241-7.1423 0.018-0.01 0.035-0.021 0.053-0.031 2.2896-1.3703 1.7913-2.2589 6.4014-2.3978 4.602-0.142 6.638 1.4 9.643 1.595 5.056 0.327 4.994-0.804 7.44-2.431 0.996-0.661 1.892-2.211 2.582-3.188 1.646-2.325 3.1209-2.3914 4.556-3.34 1.6862-1.1145 4.4611 0.7111 5.4058 4.6194-2.5775 4.4969-1.5481 1.8392-2.9758 4.4916 1.011 5.65 3.878 6.518 4.859 3.188 0.857-2.91 4.279-4.557 5.239-2.353 0.44 1.009 1.159 2.093 1.87 2.549" stroke="#000"/><g id="nara" transform="translate(57.225 26.012)"><path d="m1259.7 1847.8c0.686-0.081 2.916 0.189 3.568 0.456 1.4043 0.5731 2.4768-0.1828 3.4935-1.2812 1.0596 0.9922 2.0206 1.9542 2.5795 2.9532 0.5958 3.5795 5.173 0.7267 5.9245 3.8866 0.185 0.7779-1.8717 2.7597-1.8225 3.9334 0.104 2.5112-4.1495 3.8656-4.1541 6.6975 0 2.5586 4.2414 6.5977 4.3041 8.8675 0.059 2.105-0.5787 4.5254 0.6148 6.6792 1.0097 1.8222-1.9206-0.6356-3.1958 1.2928-1.003 1.335-1.753 3-3.038 4.024-0.768 0.6128-0.1667 0.8441-2.1233 1.685-1.7561 0.7547-2.5447 2.0067-1.9112 3.6985 0 0-2.3101-0.088-3.8591 0.01-1.093 0.068-4.8872 0.1137-5.8262-0.4493-0.939-0.564 0.7009-2.3601 0.4876-4.121-0.811-1.376-1.7995-3.0616-1.8715-4.6586-0.056-1.247 2.0557-3.3536 3.291-3.9299 1.4842-0.6924 0.6826-3.3141-1.1669-2.9382-1.7679-2.5468 0.872-4.4617-0.01-6.8187-0.802-2.143 0.01-5.6203-0.1434-7.6833-0.091-1.2383-1.0244-2.7311-1.0094-4.2749 0.012-1.2787 1.3615-2.4775 1.6363-3.7108 0.2207-0.9907-0.6169-2.0444-0.6269-2.8713-0.017-1.733 0.077-2.838 0.6779-4.3432 1.7231 1.4519 3.0026 3.0388 4.1811 2.8992z" fill="none" stroke="#000" stroke-width=".5"/></g><g id="hyogo" transform="translate(57.225 26.012)"><path transform="translate(-3e-6)" d="m1241.4 1853.8c-2.501 0.375-6.368 2.376-11.465 0.607-2.065-0.717-4.955-1.29-7.441-1.063-3.187 0.292-6.03-0.914-9.188-1.441-4.649-0.781-10.479-0.811-11.996 0.91 0.043-1.9004-3.621-3.8051-4.5518-5.9944-1.1736-2.7605 1.7685-4.4294 0.9172-6.3539-1.5775-3.5663-0.2753-8.1526 2.3858-10.364 4.4765-3.7205 7.0112-7.5246 6.4534-9.1192-0.5001-1.4298-2.5771-3.0607-3.7286-5.0629-1.3543-2.3551-2.2737-5.267-3.2241-7.1423 0.018-0.01 0.035-0.021 0.053-0.031 2.2896-1.3703 1.7913-2.2589 6.4014-2.3978 4.602-0.142 6.638 1.4 9.643 1.595 1.3119 0.085 2.2793 0.072 3.069-0.048 1.0368 1.896 0.4428 4.3388 2.8978 5.9038 0.6892 0.4396 3.1593-0.3028 3.7015-0.5986 2.734-1.4912 3.4228 5.229 0.4195 6.4378-4.3301 0.2357-0.05 8.0603 4.328 6.075 1.3555-0.1717 3.4633-0.7186 4.4213 0.7204 1.1417 1.7149 2.8845 2.7269 3.5829 4.2819 0.6905 1.5366 7.0555 0.3186 6.4471 3.0417-0.3101 1.3879-0.3486 2.2764-0.1272 2.8825-5.7894 0.019-3.3202 2.2073-2.5436 3.8846 0.4294 0.9274 1.1496 1.804 1.9303 2.299 2.9038 1.841 4.6627 4.1733 2.8035 4.6957-1.5819 0.4445-1.4652 2.2556-2.0449 4.2185-0.3335 1.129-1.071 1.6003-0.5375 2.3585-1.3376-0.6712-1.6707-0.435-2.607-0.2951z" fill="none" stroke="#000" stroke-width=".5"/></g><g id="shiga" transform="translate(57.225 26.012)"><path transform="translate(-3e-6)" d="m1259.6 1814c2.1885-0.091 2.2789-2.0188 3.1519-2.5378 1.08-0.643-0.5848-1.9975 0.8618-3.9931 1.2095-1.4246 3.578 0.7722 6.7722-2.5799 1.744-1.808-0.8377-3.0108 0.2303-4.5748 1.8961-0.3901 3.3504-0.1983 4.3541 0.9637 1.1766 1.3622 2.8257 6.2853 3.4576 8.3571 0.891 2.916 2.326 2.724 2.726 4.728-0.4298 3.8703 0.044 5.3804 1.4456 5.8678 0.042 4.7962-2.2025 3.0127 2.2089 8.342 1.5237 1.8406-1.9951 3.0343-1.9151 5.0976 0.143 3.636-4.391 5.949-7.288 5.997-1.1673 0.019-3.3117 0.4569-5.3399 1.5947-1.2349 0.6927-1.0473 2.2196-1.9491 3.4942-0.4917 0.6947-0.983 1.4462-1.55 2.0998-0.9223-0.8389-1.8176-1.6886-2.4683-2.5618-0.9429-1.2654-0.7947-2.5801-1.45-4.0176-0.545-1.195 0.4471-4.0666-0.1319-5.2466-0.989-2.013-4.0951-4.0264-3.7401-6.5204 0.2759-5.5048 3.0919-4.161-0.5709-5.4948-2.4986-2.3252-1.2646-4.8394-3.2177-5.4966 2.2595-1.8553 2.266-2.7413 4.4126-3.5185z" fill="none" stroke="#000" stroke-width=".5"/></g><g id="osaka" transform="translate(57.225 26.012)"><path d="m1244.9 1855.1c0.4922 1.071 0.3682 2.5892 0.4632 3.8226 0.165 2.118-0.899 4.079-2.5048 5.4671-0.9478 0.8191-1.6818 2.0731-2.3538 3.0371-0.776 1.115-2.889 2.668-4.4768 3.4057 0.3491 0.451 1.1914 2.7822 3.0089 3.049 1.9154 0.2811 2.8961-2.9065 7.226-2.1323 2.9676 0.5306 6.7858-3.2826 8.8779-3.6543-0.8799-2.4133-0.07-5.8906-0.2213-7.9536-0.091-1.2383-1.0244-2.7311-1.0094-4.2749 0.012-1.2787 1.3615-2.4775 1.6363-3.7108 0.2207-0.9907-0.6169-2.0444-0.6269-2.8713-0.017-1.733 0.077-2.838 0.7052-4.3175-0.4659-0.5977-1.0744-1.1262-1.7376-1.58-1.3263-0.9076-3.7988-0.42-4.629-1.3612-1.933-2.192 0.3731-5.0463-2.5389-4.8143-1.1883 0.095-1.9007-0.056-2.3046-0.5383-5.7884 0.02-3.3192 2.2091-2.5426 3.8864 0.4294 0.9274 1.1496 1.804 1.9303 2.299 2.9038 1.841 4.6627 4.1732 2.8035 4.6957-2.1269 0.5976-0.9933 3.3745-3.1728 6.5342 0.1925-0.8445 1.0209 0.04 1.4672 1.0117z" fill="none" stroke="#000" stroke-width=".5"/></g><g id="wakayama" transform="translate(57.225 26.012)"><path d="m1270.6 1904.9c-2.317 0.561-3.875 2.646-4.327 3.038-1.12 0.971-2.05 2.837-4.556 2.506-0.521-0.069-1.525-0.927-2.505-0.911-1.04 0.015-2.034-0.411-3.342-1.519-1.448-1.228-3.583-2.486-5.466-2.734-0.674-0.088-1.473-0.271-4.328-2.277-0.59-0.414-1.376-1.881-1.975-2.505-1.004-1.047-2.232-1.976-2.505-3.267-0.386-1.825-1.92-3.663-4.101-4.1-1.935-0.385-3.909-3.643-3.188-6.529 0.571-2.283 0.358-5.548 0-7.136-1.367-6.061-0.745-7.31 1.6732-8.6673 0.3491 0.451 1.1914 2.7822 3.0089 3.049 1.9154 0.2811 2.8961-2.9065 7.226-2.1323 2.9676 0.5306 6.7858-3.2826 8.8779-3.6543 0.8041 2.0867-1.8358 4.0016-0.068 6.5484 1.8495-0.3759 2.6511 2.2458 1.1669 2.9382-1.2353 0.5763-3.3471 2.6829-3.291 3.9299 0.072 1.597 1.0605 3.2826 1.8715 4.6586 0.2133 1.7609-1.4266 3.557-0.4876 4.121 0.939 0.563 4.7332 0.5173 5.8262 0.4493 1.549-0.096 3.9069 0.1 3.9069 0.1 0.51 0.9346 1.2638 1.8706 2.4316 2.9003 1.9062 0.8686 1.5691 1.5167 2.5733 2.0224 1.1773 0.5928 2.6901 0.875 4.0385 0.8974-0.2424 3.8517 0.5886 7.5387-2.4614 8.2737z" fill="none" stroke="#000" stroke-width=".5"/></g><g id="mie" transform="translate(57.225 26.012)"><path transform="translate(-3e-6)" d="m1268.3 1844.8c0.9018-1.2746 0.7142-2.8015 1.9491-3.4942 2.0282-1.1378 4.1726-1.5761 5.3399-1.5947 2.897-0.048 7.431-2.361 7.288-5.997-0.08-2.0633 3.4388-3.257 1.9151-5.0976-4.4114-5.3293-2.1664-3.5458-1.9454-8.2795 1.4934 0.2498 3.097 0.044 5.1921-0.1518 1.5478-0.145 1.7518 4.8208 4.3281 4.5752 1.19 3.777 3.941 3.932 4.866 6.825-1.053 0.337-4.432 2.394-5.082 3.569-0.88 1.587 0.6488 2.6338-1.4007 6.4953-3.1962 3.893-1.6728 6.2101 1.4788 9.6208 1.029 1.03 8.213 1.1872 9.66 1.9212 3.271 1.656 10.533 7.0743 1.5001 13.09-0.8418 0.3711-2.8568-0.3779-4.4798 0.3051-2.729 1.149-7.35 1.756-10.098 3.493-2.777 1.756-5.86 1.82-5.467 6.832 0.379 4.812-1.253 5.611-5.314 8.96-5.436 4.484-5.27 2.847-4.9796 10.783-1.3484-0.022-2.8612-0.3046-4.0385-0.8974-1.0042-0.5057-0.6671-1.1538-2.5733-2.0224-3.6755-3.2409-3.2501-5.5534-0.5682-6.706 1.9566-0.8409 1.3553-1.0722 2.1233-1.685 1.285-1.024 2.035-2.689 3.038-4.024 1.2752-1.9284 4.2055 0.5294 3.1958-1.2928-1.1935-2.1538-0.5558-4.5742-0.6148-6.6792-0.063-2.2698-4.3041-6.3089-4.3041-8.8675 0-2.8319 4.2581-4.1863 4.1541-6.6975-0.049-1.1737 2.0075-3.1555 1.8225-3.9334-0.7515-3.1599-5.3287-0.3071-5.9245-3.8866-0.487-0.8705-1.2793-1.7129-2.3159-2.918 0.1136-0.7824 0.9654-1.8361 1.2549-2.2451z" fill="none" stroke="#000" stroke-width=".5"/></g><g id="kyoto" transform="translate(57.225 26.012)"><path transform="translate(-3e-6)" d="m1263.3 1848.3c-0.652-0.267-2.882-0.537-3.568-0.456-1.5706 0.186-3.3208-2.6946-5.8911-4.4535-1.3263-0.9076-3.7988-0.42-4.629-1.3612-1.933-2.192 0.3731-5.0463-2.5389-4.8143-1.1507 0.092-1.8551-0.047-2.1916-0.5676-0.3359-0.5196-0.305-1.4198 0.015-2.8514 0.6084-2.7231-5.7566-1.5051-6.4471-3.0417-0.6984-1.555-2.4412-2.567-3.5829-4.2819-0.958-1.439-3.0658-0.8921-4.4213-0.7204-4.378 1.9853-8.6581-5.8393-4.328-6.075 3.0033-1.2088 2.3145-7.929-0.4195-6.4378-0.5422 0.2958-3.0123 1.0382-3.7015 0.5986-2.455-1.565-1.861-4.0078-2.7917-5.9189 2.0485-0.2938 2.5145-1.2041 4.2649-2.3684 0.996-0.661 1.892-2.211 2.582-3.188 1.646-2.325 3.1209-2.3914 4.556-3.34 1.6862-1.1145 4.4611 0.7111 5.4058 4.6194-2.5775 4.4969-1.5481 1.8392-2.9758 4.4916 1.011 5.65 3.878 6.518 4.859 3.188 0.857-2.91 4.279-4.557 5.239-2.353 0.44 1.009 1.159 2.093 1.8649 2.5489-0.3935 1.5697-0.8236 3.1311 0.6086 4.3036 0.3259 0.2668-0.4281 0.6285 1.1708 0.7355 1.4611 0.098 3.2065-0.051 5.0015 0.2403 1.2329 0.2001 2.4893 0.9722 3.8024 0.7737 1.9531 0.6573 0.7191 3.1715 3.2177 5.4967 3.6628 1.3338 0.8468-0.01 0.5709 5.4948-0.355 2.494 2.7511 4.5074 3.7401 6.5204 0.579 1.18-0.4131 4.0516 0.1319 5.2466 0.6553 1.4375 0.5071 2.7522 1.45 4.0176 0.6675 0.8959 1.5926 1.767 2.3749 2.744-1.0286 1.1164-2.0531 1.7464-3.3689 1.2094z" fill="none" stroke="#000" stroke-width=".5"/></g></g><g id="chubu-area" transform="translate(-57.225 -26.012)"><path transform="translate(57.225 26.012)" d="m1347.4 1666.9c-0.673 0.873-0.822 2.312-1.215 3.341-1.552 4.076 0.447 5.18 1.595 4.858 3-0.836 3.306 1.965 1.671 4.557-1.42 2.248-4.389 4.396-6.074 6.453-1.192 1.455-3.451 3.915-3.796-0.684-0.066-0.873 0.187-2.32 0.304-3.188 0.333-2.498-0.624-3.445-1.291-3.645-1.589-0.472-3.083-2.854-0.988-5.087 1.147-1.221 2.23-0.82 2.203-3.796-0.016-1.6 1.167-3.416 1.669-4.935 2.237-6.769 9.369-2.344 5.922 2.126z" stroke="#000"/><path transform="translate(57.225 26.012)" d="m1292.4 1824.8c-2.5763 0.2456-2.7803-4.7202-4.3281-4.5752-5.5698 0.5219-7.6655 1.107-6.9009-5.7788-0.4-2.004-1.835-1.812-2.726-4.728-0.6319-2.0718-2.281-6.9949-3.4576-8.3571-1.0037-1.162-2.458-1.3538-4.3541-0.9637-1.068 1.564 1.5137 2.7668-0.2303 4.5748-3.1942 3.3521-5.5627 1.1553-6.7722 2.5799-1.4466 1.9956 0.2182 3.3501-0.8618 3.9931-0.873 0.519-0.9634 2.4468-3.1519 2.5378-2.1466 0.7772-2.1531 1.6632-4.5221 3.4572-1.2036 0.2597-2.46-0.5124-3.6929-0.7125-1.795-0.2913-3.5404-0.1423-5.0015-0.2403-1.5989-0.107-0.8449-0.4687-1.1708-0.7355-1.4322-1.1725-1.0021-2.7339-0.6103-4.3057 1.4485 0.927 2.9975 0.278 3.9805-0.198 1.4-0.677 2.884-0.827 3.947-1.518 1.08-0.702 2.316-1.9989 2.811-3.188 0.2036-0.4892 1.875-1.8707 1.1728-4.8407-0.5926-2.5063 2.8438-6.0815 3.8372-1.742 1.0777 2.4765 3.4494 1.3256 3.5609 0.063 0.3574-4.0501-0.4285-7.7493-1.5099-8.9694-0.7327-0.8263-2.9912-1.6284-2.8971-2.5673 0.335-3.3436-1.9113-4.2311 0.1863-6.4581 1.648-1.75 4.4018-4.0116 5.5958-6.6166 0.6086-1.3257 0.4424-5.6638 2.2982-4.8007 1.2176 0.5663 1.9407-1.1776 2.5608-2.0323 0.2142-0.2951 0.435-0.5965 0.6612-0.9033 2.7635-3.7477 6.3443-8.3055 8.8298-12.004 0.832-1.238 1.743-3.321 2.581-4.555 1.4214-2.0948 2.5453-4.6679 1.9634-8.8119 1.5725-5.2501-0.2123-9.7025-1.7354-12.449-0.06-2.3993-0.4346-5.0083-2.4858-4.4846-1.5645 0.3995 0.1527-4.0432 1.8788-5.9934 0.896-0.886 2.009-2.157 2.734-3.188 0.985-1.399 4.214-3.64 5.77-3.797 5.3386-1.8275 6.691-2.697 7.441-4.099 1.316-2.467 8.8344-4.1793 9.2093-0.9238 0.5699 4.9492-1.2979 2.6281-3.1085 4.9084-0.8979 2.1458 2.9376 2.9812-1.6898 4.5759-3.1829 1.8886 0.5491 2.8938-1.9394 4.9185-1.8619 1.5149-1.1423-0.2009-4.0647 0.831-2.221 1.175-4.4729 4.69-1.2929 5.43 2.896 0.674 3.781 2.22 1.822 4.251-0.5061 0.5253-0.3644 1.9407 0.2589 3.5499 1.0639 2.747 3.5309 6.0588 6.5741 6.4731 4.396 0.597 6.771-2.513 6.757-5.088-0.01-1.519 1.176-2.787 1.746-2.961 0.989-0.299 2.293-1.955 3.114-2.582 1.1195-0.8538 3.196-0.7593 4.9188-0.9364 0.5332-0.055 1.0326-0.1356 1.4592-0.2786 3.688-1.233 5.379-1.502 7.212-3.188 1.444-1.327 3.718-1.997 4.86-3.264 0.855-0.949 2.397-2.043 3.795-2.658 1.402-0.616 3.013-1.96 4.101-3.037 1.192-1.179 2.941-2.465 4.252-3.34 1.74-1.164 3.438-3.635 4.783-5.239 1.257-1.497 2.028-3.773 2.657-5.695 0.523-1.597 1.347-5.054 2.581-6.833 1.75-2.52 2.71-5.19 2.887-6.605 0.674-5.414 8.522-12.714 10.933-13.895 5.688-2.787 11.06-11.283 11.236-18.223 0.073-2.832-0.268-8.705 0.5311-9.7205 0.714-0.9075 1.322-2.2055 1.794-3.5004 2.205 2.591 7.8248 2.4209 6.5025 4.9212-2.5223 4.7692 2.8955 3.8868 5.9463 4.0441 3.7235 0.192 2.871 5.6073-1.1978 8.4307-6.1039-0.3633-2.9207 3.59-3.841 7.169-0.7141 8.0899 2.271 7.544 5.506 9.332-3.486 4.973-5.2684 6.401-3.913 9.718 2.1369 9.8179-2.9086 7.0086-6.5118 7.0703-1.7617 0.03-0.9791 2.5379-1.8192 2.6287-5.285 0.574-5.583 3.211-5.573 6.519 2.3074 0.5655 1.1835 3.0136 1.6089 4.6991 0.4718 1.8699-0.176 4.6644 1.2271 5.1749 3.306 1.2029 2.5407 2.6671 3.0987 5.7836 0.036-0.5748-0.1403 4.164-0.4532 5.5718-0.1409 0.6337-2.5356 0.103-5.9138-3.6034-1.3449-1.4756-1.7884 2.6892-3.7217 4.885-2.9259 2.2126 0.1468 4.6031-3.2376 6.5905-2.7743 0.7341-2.9199 2.3191-5.1154 2.2145 0.1037 3.7452-5.8076 4.1652-7.534 6.729-2.4803 3.079-3.8782 8.0252-0.3859 9.1415 4.6158 1.4754 3.459-0.5503 5.9181 1.975 3.0634 2.2252 3.5531 5.9446 1.4398 9.5315-0.5693 2.0872 1.0545 3.2098-0.4908 5.4875-0.8059 1.1878 0.4673 2.2204 3.4148 3.1325 0.7867 0.2434 0.9645 1.5376 1.724 2.1466 0.4832 0.3874 1.0083 0.7683 1.5656 1.1388 1.5781 1.0492 3.4141 2.0146 5.2847 2.8056 2.55 2.226 2.4794 4.1378 8.3027 4.6 1.606 0.959 3.214 1.331 4.322 2.434 0.1583 3.0164 1.096 5.9202-0.8463 7.7844-0.896 0.8601-1.3239 1.335-2.4127 1.4846-2.941 1.7844-5.089 3.588-4.796 4.929 1.328 0.133 3.2427 0.3509 3.9727 1.0579 2.254 2.181 0.9893 3.7521 0.9973 4.9601 0.014 2.1226 0.8142 3.628 1.9385 4.9802 0.6459 0.7767 2.9595 0.7809 4.1115 0.8058 0.109 0.865 0.384 1.662 0.932 2.219 1.17 1.186 2.295 2.55 2.202 4.328-0.095 1.819-0.163 4.26 0 6.074 0.26 2.894-1.167 4.591-2.582 5.391-2.5294 2.3482-0.9426 3.9175-5.769 7.516-4.7426 3.8345-6.647-1.363-6.378-5.923 0.177-2.991-2.2099-6.1829 0.3136-9.2514 5.9738-3.8842-3.5706-5.6536-6.1596-4.4896-2.567 1.151-4.409 2.679-5.694 3.112-1.79 0.604-3.448 2.976-3.493 5.011-0.076 3.456-1.022 6.337-2.506 7.745-1.5449 0.2559-3.7402 0.8977-2.809 5.998 4.3754 8.7263-0.7988 3.9659-5.163 4.631-6.566 0.867-17.582-0.451-24.068 0.76-0.3462 0.064-1.9881 0.4052-4.0269 0.8644-3.0497 0.687-6.9874 1.6386-8.8051 2.3236-3.8459 1.4507-11.794 4.1273-6.8163-0.6716 0.8055-0.7766 2.9884-0.6193 5.2973-2.0614 1.665-1.039 3.4838-5.5191-1.821-4.556-1.024 0.094-2.2034 1.0862-4.9677 0.76-3.7456 0.036-4.2808-2.106-5.833 4.1936-0.6963 2.8257-2.4875-1.6992-3.126-5.1056-0.896-1.462 0.4397-3.907 0.5627-5.617 0.388-5.39-0.331-4.538-4.3305-3.264-0.9236-2.891-3.6746-3.046-4.8646-6.823z" stroke="#000"/><g id="shizuoka" transform="translate(57.225 26.012)"><path d="m1373.3 1802.2c-2.6738-2.3785-4.9879-0.9327-4.7544 3.3694-1.6222 3.751-1.006 11.408-6.088 3.666-0.4265-0.5315-0.9924-3.8033-3.1708-2.3296-1.8154 1.2282-3.4589-3.1427-3.1595-5.5814 0.3067-2.4982-2.6527-3.4614-2.6527-3.4614-1.277 1.8767-1.2074 2.938-0.5889 4.4457 0.5503 1.3414-2.0183 2.722-0.9068 5.2432-0.034 2.7449-2.8783 2.667-3.5193 3.681-0.1062 2.2749-3.06 1.8988-4.326 3.0708-0.836 0.7746-2.1705 2.0004-3.3183 3.3877-0.946 1.1435-1.7652 2.3967-2.0737 3.5973-0.985 1.612-1.298 3.075-3.417 4.632-1.4968 2.346-6.3108 2.8788-6.5504 5.9659-0.1184 1.5247-0.3216 3.7681-1.4216 5.2711-1.4232 1.9445-0.503 4.277-0.2994 8.2167 2.0433-0.2905 3.6852-0.6317 4.0314-0.6957 6.486-1.211 17.502 0.107 24.068-0.76 4.3642-0.6651 9.5384 4.0953 5.163-4.631-0.9312-5.1003 1.2641-5.7421 2.809-5.998 1.484-1.408 2.43-4.289 2.506-7.745 0.045-2.035 1.703-4.407 3.493-5.011 1.285-0.433 3.127-1.961 5.694-3.112 2.589-1.164 12.133 0.6054 6.1596 4.4896-2.5235 3.0685-0.1366 6.2604-0.3136 9.2514-0.269 4.56 1.6354 9.7575 6.378 5.923 4.8264-3.5985 3.2396-5.1678 5.769-7.516 1.415-0.8 2.842-2.497 2.582-5.391-0.163-1.814-0.095-4.255 0-6.074 0.093-1.778-1.032-3.142-2.202-4.328-0.548-0.557-0.823-1.354-0.932-2.219-1.152-0.025-3.4656-0.029-4.1115-0.8058-1.1243-1.3522-1.9245-2.8576-1.9385-4.9802-0.01-1.208 1.2567-2.7791-0.9973-4.9601-0.73-0.707-2.6447-0.9249-3.6432-1.0901-1.4845 1.8069-6.6331 3.677-8.2681 2.4785z" fill="none" stroke="#000" stroke-width=".5"/></g><g id="aichi" transform="translate(57.225 26.012)"><path d="m1318.3 1847.9c-3.8459 1.4507-11.794 4.1273-6.8163-0.6716 0.8055-0.7766 2.9884-0.6193 5.2973-2.0614 1.665-1.039 3.4838-5.5191-1.821-4.556-1.024 0.094-2.2034 1.0862-4.9677 0.76-3.7456 0.036-4.2808-2.106-5.833 4.1936-0.6963 2.8257-2.4875-1.6992-3.126-5.1056-0.896-1.462 0.4397-3.907 0.5627-5.617 0.388-5.39-0.331-4.538-4.3305-3.264-0.9236-2.891-3.6746-3.046-4.8275-6.7521 0.893-2.7752 3.017-2.0382 3.227-6.3822 0.153-3.213 2.896-5.326 5.466-5.314 1.003 0 3.258-0.056 4.252 0.075 2.432 0.321 5.587 0.99 6.985 2.051 2.642 2.002 3.6671 2.6106 7.479 2.7046 2.4959-1.9692 4.567-1.2156 6.947-1.1856 1.515 0.018 2.5856 4.7969 5.5839 1.3746 0.9483-1.9378 5.529-2.1416 8.5875-0.4066-1.0487 1.1255-1.8679 2.3787-2.1764 3.5793-0.985 1.612-1.298 3.075-3.417 4.632-1.4968 2.346-6.3108 2.8788-6.5504 5.9659-0.1184 1.5247-0.3216 3.7681-1.4216 5.2711-1.4232 1.9445-0.503 4.277-0.2994 8.2167-3.0452 0.8557-6.9829 1.8073-8.8006 2.4923z" fill="none" stroke="#000" stroke-width=".5"/></g><g id="gifu" transform="translate(57.225 26.012)"><path d="m1327.9 1802.1c-2.4941-2.9173-3.175-7.958-6.073-9.87-2.709-1.786-5.83-4.895-1.063-8.049 2.1131-1.1374 3.2487-3.4194 3.493-7.668 0.097-3.333 2.9666-4.9272 2.0258-8.1937-0.2979-2.3815-2.3818-2.2683-2.4818-3.3473-0.12-1.295-0.939-3.353 5e-4 -4.516 0 0-4.3765-1.9803-7.9739-0.3683-3.0754 1.3781-6.3886 0.6414-6.8263-0.2271-2.9179-2.3902-6.9257 0.3711-7.4178 3.5944-1.3835 2.777-8.3679 4.8979-5.1905 1.746-0.624-1.2-3.0937-0.5759-3.0937-0.5759 0.1367 4.5515-0.2024 8.5877-3.1343 10.674-3.137 2.235-2.272 7.734-0.151 9.111 4.2342 2.7496 3.3013 6.3161 0.3871 8.1889-1.461 0.9389-3.5921 1.1079-5.4741 1.2261-0.8416 0.053-1.7612 1.1969-2.525 1.3549-2.202 0.4557-3.9506 0.2802-5.3884 1.347-1.5971 1.185-1.6343 3.3162-2.0592 4.796 1.1784 1.4125 2.8275 6.3356 3.4594 8.4074 0.891 2.916 2.326 2.724 2.726 4.728-0.7646 6.8858 1.3311 6.3007 6.9009 5.7788 1.5478-0.145 1.7518 4.8208 4.3652 4.6461 0.893-2.7752 3.017-2.0382 3.227-6.3822 0.153-3.213 2.896-5.326 5.466-5.314 1.003 0 3.258-0.056 4.252 0.075 2.432 0.321 5.587 0.99 6.985 2.051 2.642 2.002 3.6671 2.6106 7.479 2.7046 2.4959-1.9692 4.567-1.2156 7.3641-1.0346 1.1332-4.6503 2.8184-10.248 0.721-14.883z" fill="none" stroke="#000" stroke-width=".5"/></g><g id="fukui" transform="translate(57.225 26.012)"><path d="m1274.4 1771.8c0.8064 1.705 2.8969 0.9239 4.7733 2.9438 2.971 3.07 4.429 3.377 9.0565 3.5972-0.4399 2.4703 0.4107 5.1425 1.8005 6.0448 4.2342 2.7496 3.3013 6.3161 0.3871 8.1889-1.461 0.9389-3.5921 1.1079-5.4741 1.2261-0.8416 0.053-1.7612 1.1969-2.525 1.3549-2.202 0.4557-3.9506 0.2802-5.3884 1.347-1.5971 1.185-1.6343 3.3162-2.0592 4.7961-1.0019-1.1118-2.4562-1.3036-4.3523-0.9135-1.068 1.564 1.5137 2.7668-0.2303 4.5748-3.1942 3.3521-5.5627 1.1553-6.7722 2.5799-1.4466 1.9956 0.2182 3.3501-0.8618 3.9931-0.873 0.519-0.9634 2.4468-3.1519 2.5378-2.1466 0.7772-2.1531 1.6632-4.5221 3.4572-1.2036 0.2597-2.46-0.5124-3.6929-0.7125-1.795-0.2913-3.5404-0.1423-5.0015-0.2403-1.5989-0.107-0.8449-0.4687-1.1708-0.7355-1.4322-1.1725-1.0021-2.7339-0.6103-4.3057 1.4485 0.927 2.9975 0.278 3.9805-0.198 1.4-0.677 2.884-0.827 3.947-1.518 1.08-0.702 2.316-1.9989 2.811-3.188 0.2036-0.4892 1.875-1.8707 1.1728-4.8407-0.5926-2.5063 2.8438-6.0815 3.8372-1.742 1.0777 2.4765 3.4494 1.3256 3.5609 0.063 0.3574-4.0501-0.4285-7.7493-1.5099-8.9694-0.7327-0.8263-2.9912-1.6284-2.8971-2.5673 0.335-3.3436-1.9113-4.2311 0.1863-6.4581 1.648-1.75 4.4018-4.0116 5.5958-6.6166 0.6086-1.3257 0.4424-5.6638 2.2982-4.8007 1.2176 0.5663 1.9407-1.1776 2.5608-2.0323 0.2142-0.2951 0.435-0.5965 0.5152-0.9817 0 0 2.6948 1.9127 3.7367 4.1157z" fill="none" stroke="#000" stroke-width=".5"/></g><g id="ishikawa" transform="translate(57.225 26.012)"><path d="m1279.6 1755.7c0.832-1.238 1.743-3.321 2.581-4.555 1.4214-2.0948 2.5453-4.6679 1.9634-8.8119 1.5725-5.2501-0.2123-9.7025-1.7354-12.449-0.06-2.3993-0.4346-5.0083-2.4858-4.4846-1.5645 0.3995 0.1527-4.0432 1.8788-5.9934 0.896-0.886 2.009-2.157 2.734-3.188 0.985-1.399 4.214-3.64 5.77-3.797 5.3386-1.8275 6.691-2.697 7.441-4.099 1.316-2.467 8.8344-4.1793 9.2093-0.9238 0.5699 4.9492-1.2979 2.6281-3.1085 4.9084-0.8979 2.1458 2.9376 2.9812-1.6898 4.5759-3.1829 1.8886 0.5491 2.8938-1.9394 4.9185-1.8619 1.5149-1.1423-0.2009-4.0647 0.831-2.221 1.175-4.4729 4.69-1.2929 5.43 2.896 0.674 3.781 2.22 1.822 4.251-0.5061 0.5253-0.3644 1.9407 0.1238 3.5243-2.269 0.5734-3.5086 3.1888-4.388 6.9594 0.032 1.7132 0.5964 3.8263 0.5794 5.877-0.022 2.529-0.6324 5.0055-0.6544 7.03-0.015 1.52 0.585 3.722 0.683 5.239 0.08 1.2246 0.1614 2.442 0.2084 3.6259 0.1776 4.5247-0.1615 8.5609-3.0934 10.647-1.0415 0.742-1.6419 1.8438-1.9371 2.9976-4.6415-0.1515-6.0995-0.4585-9.0705-3.5285-1.8764-2.0199-3.9669-1.2388-4.7733-2.9438-1.0419-2.203-3.7367-4.1157-3.7367-4.1157 2.9095-3.6693 6.4903-8.2271 8.9758-11.925z" fill="none" stroke="#000" stroke-width=".5"/></g><g id="toyama" transform="translate(57.225 26.012)"><path d="m1326.2 1741.6c0.2345 1.495 1.1017 3.3027 1.1022 4.875 0 3.123-2.0532 6.7533-2.2052 9.9133-0.223 4.637-0.468 3.163-1.2905 3.988 0 0-4.3765-1.9803-7.9739-0.3683-3.0754 1.3781-6.3886 0.6414-6.8263-0.2271-2.9179-2.3902-6.9257 0.3711-7.4178 3.5944-1.3835 2.777-8.3679 4.8979-5.1905 1.746-0.624-1.2-3.0937-0.5759-3.0937-0.5759-0.088-1.1571-0.1692-2.3745-0.2493-3.5991-0.098-1.517-0.698-3.719-0.683-5.239 0.022-2.0245 0.6328-4.501 0.6544-7.03 0.017-2.0507-0.5476-4.1638-0.5794-5.877 0.8794-3.7706 2.119-6.386 4.3878-6.9595 1.1988 2.7726 3.6658 6.0844 6.709 6.4987 4.396 0.597 6.771-2.513 6.757-5.088-0.01-1.519 1.176-2.787 1.746-2.961 0.989-0.299 2.293-1.955 3.114-2.582 1.1195-0.8538 3.196-0.7593 4.77-1.0733 0 0 1.064 2.1172 3.3987 2.9862 1.3686 1.3615-0.2374 1.1641 2.4726 4.5127 0 0 0.1218 1.7061 0.3979 3.4659z" fill="none" stroke="#000" stroke-width=".5"/></g><g id="niigata" transform="translate(57.225 26.012)"><path d="m1321.5 1730.5c3.688-1.233 5.379-1.502 7.212-3.188 1.444-1.327 3.718-1.997 4.86-3.264 0.855-0.949 2.397-2.043 3.795-2.658 1.402-0.616 3.013-1.96 4.101-3.037 1.192-1.179 2.941-2.465 4.252-3.34 1.74-1.164 3.438-3.635 4.783-5.239 1.257-1.497 2.028-3.773 2.657-5.695 0.523-1.597 1.347-5.054 2.581-6.833 1.75-2.52 2.71-5.19 2.887-6.605 0.674-5.414 8.522-12.714 10.933-13.895 5.688-2.787 11.06-11.283 11.236-18.223 0.073-2.832-0.268-8.705 0.5311-9.7205 0.714-0.9075 1.322-2.2055 1.794-3.5004 2.205 2.591 7.8248 2.4209 6.5025 4.9212-2.5223 4.7692 2.8955 3.8868 5.9463 4.0441 3.7235 0.192 2.871 5.6073-1.1978 8.4307-6.1039-0.3633-2.9207 3.59-3.841 7.169-0.7141 8.0899 2.271 7.544 5.506 9.332-3.486 4.973-5.2684 6.401-3.913 9.718 2.1369 9.8179-2.9086 7.0086-6.5118 7.0703-1.7617 0.03-0.9791 2.5379-1.8192 2.6287-5.285 0.574-5.583 3.211-5.573 6.519 2.3074 0.5655 1.1835 3.0136 1.6089 4.6991 0.4718 1.8699-0.176 4.6644 1.2271 5.1749 3.306 1.2029 2.5407 2.6671 3.0987 5.7836 0.036-0.5748-0.1403 4.164-0.3949 5.6918-0.1992 0.5137-2.5939-0.017-5.9721-3.7234-1.3449-1.4756-1.7884 2.6892-3.7217 4.885-2.9259 2.2126 0.1468 4.6031-3.2376 6.5905-2.7743 0.7341-2.9199 2.3191-5.0199 2.2024-1.9524-1.2908-5.1717-2.0505-4.8234-4.3198 0.4928-3.2118-0.3146-3.9922-1.3061-5.1834-1.912-2.296-5.569-3.899-8.124 0.684-1.191 2.14-1.5719 4.1645-2.4079 5.4005-1.499 2.2185-3.3761 2.0955-5.8681 2.1935-1.613 0.061-3.77 0.66-4.252 1.29-1.398 1.828-2.528 0.274-3.037-0.835 1.2468-2.8385-5.6359-7.8241-5.8988-0.5521-1.3143 3.3575-2.1759 4.4344-4.8009 2.6444-2.2381-2.9691-0.6321-2.7717-2.0007-4.1332-2.3347-0.869-3.3987-2.9862-3.3987-2.9862 0.682 0.082 1.1814 0 1.608-0.1417z" fill="none" stroke="#000" stroke-width=".5"/></g><g id="nagano" transform="translate(57.225 26.012)"><path d="m1326.2 1741.6c0.2345 1.495 1.1017 3.3027 1.1022 4.875 0 3.123-2.0532 6.7533-2.2052 9.9133-0.223 4.637-0.468 3.163-1.367 4.177-0.863 0.974-0.044 3.032 0.076 4.327 0.1 1.079 2.1839 0.9658 2.4818 3.3473 0.9408 3.2665-1.9288 4.8607-2.0258 8.1937-0.2443 4.2486-1.3799 6.5306-3.493 7.668-4.767 3.154-1.646 6.263 1.063 8.049 2.898 1.912 3.5789 6.9527 6.073 9.87 2.0974 4.6345 0.4122 10.233-0.721 14.883 1.0979-0.133 2.1685 4.6459 5.1668 1.2236 0.9483-1.9378 5.529-2.1416 8.5875-0.4066 1.0451-1.4053 2.3796-2.6311 3.2156-3.4057 1.266-1.172 4.2198-0.7959 4.326-3.0708 0.641-1.014 3.4853-0.9361 3.5193-3.681-1.1115-2.5212 1.4571-3.9018 0.9068-5.2432-0.6185-1.5077-0.6881-2.569 0.7379-4.403 1.128-1.448 1.204-3.565 1.367-5.392 0.226-2.524-1.0907-6.5148-0.38-8.731 2.6579-2.0698 1.3093-4.3252 4.6853-4.2692 2.4003 2.1981 3.6117 2.2292 5.8687 1.9162 2.139-0.298 3.3612 1.5539 5.6152-4.2871 0.1222-0.3173 0.3104-0.8349 0.6206-1.4069-0.5738-0.39-1.0989-0.7709-1.5821-1.1583-0.7595-0.609-0.9373-1.9032-1.724-2.1466-2.9475-0.9121-4.2207-1.9447-3.4148-3.1325 1.5453-2.2777-0.079-3.4003 0.4908-5.4875 2.1133-3.5869 1.6236-7.3063-1.4398-9.5315-2.4591-2.5253-1.3023-0.4996-5.9181-1.975-3.4923-1.1163-2.0944-6.0625 0.3859-9.1415 1.7264-2.5638 7.6377-2.9838 7.6297-6.7412-1.9523-1.2908-5.1716-2.0505-4.8233-4.3198 0.4928-3.2118-0.3146-3.9922-1.3061-5.1834-1.912-2.296-5.569-3.899-8.124 0.684-1.191 2.14-1.5719 4.1645-2.4079 5.4005-1.499 2.2185-3.3761 2.0955-5.8681 2.1935-1.613 0.061-3.77 0.66-4.252 1.29-1.398 1.828-2.528 0.274-3.037-0.835 1.2468-2.8385-5.6359-7.8241-5.8988-0.5521-1.3143 3.3575-2.1759 4.4344-4.329 3.0239 0 0 0.1218 1.7061 0.3979 3.4659z" fill="none" stroke="#000" stroke-width=".5"/></g><g id="yamanashi" transform="translate(57.225 26.012)"><path d="m1386.1 1794.9c1.0888-0.1496 1.5167-0.6245 2.4127-1.4846 1.9423-1.8642 1.0046-4.768 0.8463-7.7844-1.108-1.103-2.716-1.475-4.322-2.434-5.8233-0.4622-5.7527-2.374-8.3027-4.6-1.8706-0.791-3.7066-1.7564-5.2684-2.786-0.3103 0.572-0.4985 1.0896-0.6207 1.4069-2.254 5.841-3.4762 3.9891-5.6152 4.2871-2.257 0.313-3.4684 0.2819-5.8687-1.9162-3.376-0.056-2.0274 2.1994-4.6853 4.2692-0.7107 2.2162 0.606 6.207 0.38 8.731-0.163 1.827-0.239 3.944-1.516 5.3495 0 0 2.9594 0.9633 2.6527 3.4615-0.2994 2.4387 1.3441 6.8096 3.1595 5.5814 2.1784-1.4737 2.7443 1.7981 3.1708 2.3296 5.082 7.7418 4.4658 0.085 6.088-3.666-0.2335-4.3021 2.0806-5.7479 4.7544-3.3694 1.635 1.1985 6.7836-0.6716 8.2681-2.4786-0.6225-1.309 1.5255-3.1126 4.4665-4.897z" fill="none" stroke="#000" stroke-width=".5"/></g></g><g id="kanto-area" transform="translate(-57.225 -26.012)"><path transform="translate(57.225 26.012)" d="m1388.7 1727.9c3.4229 1.3322 4.3943-3.4008 6.9331-5.1849 1.925-1.35 4.144-2.519 5.596-4.191 0.7209-0.8308 3.3534 0.4287 3.4514-1.9358 0.2234-5.3803 5.1779-4.7742 14.592-2.8882 2.1709 1.3731 2.8873 1.646 4.2157 2.9261 1.3756 1.3254 3.0212 3.1962 4.4741 4.5051 0.621 1.3387 2.0836 0.9559 2.6268 1.7276 2.3934 3.4 4.9862 1.5146 4.5504-1.5808-0.556-5.0677 1.5787-3.0188 2.6269-2.4178 1.7613 1.0099 4.9251 0.8065 9.3855 1.8378-0.9437 2.847-2.3507 5.682-3.4917 8.047-1.137 2.356-1.908 5.696-1.822 8.201 0.102 2.959 0.088 7.062 0.076 10.021-0.021 5.019 2.098 10.904 5.39 14.73 1.517 1.76 3.962 4.294 5.62 5.921 2.081 2.046 4.562 4.564-0.532 6.985-1.785 0.85-3.712 2.292-5.543 3.037-5.022 2.046-4.576 6.41-4.479 9.947 0.066 2.451-0.638 6.378-0.38 9.414 0.516 6.106-1.414 7.519-3.948 8.579-2.035 0.853-4.134 3.102-5.694 4.024-3.197 1.89-3.367 4.143-3.569 5.089-0.506 2.366-2.618 4.228-5.011 4.554-1.822 0.25-4.6805 0.9353-3.189-3.644 0.158-1.313 0.074-2.661-0.455-3.872-0.48-1.104 0.036-2.918-0.028-4.024-0.159-2.774 0.6107-5.7563 0.6147-8.5333-2.1741-5.9834-0.3702-6.2497 2.2314-7.5978 1.7297-1.5088 2.3563-3.4449 3.1813-4.3679 5.185-5.813-6.0874-6.9613-7.213-5.468-1.0326 1.8729-0.023 0.3864-3.6976 2.6081-0.9385 2.0546 2.3622 1.784-2.2381 3.5569-1.6857 0.6497-1.3372 1.5416-1.3533 3.4585 0.18 2.298 1.373 4.6045 2.278 5.7135 4.1171 6.1003-0.4366 6.6647 0 9.3095 0.4296 2.6203-3.7602 1.9767-4.249-1.7175-0.384-2.041-1.22-3.803-4.556-3.644-2.402 0.115-5.713-0.171-7.82 0.987-1.781 0.979-3.774 2.594-4.556 5.238-0.283 0.961-0.667 2.789-0.476 4.3895-1.1511-0.022-3.4647-0.027-4.1106-0.8033-1.1243-1.3522-1.9245-2.8576-1.9385-4.9802-0.01-1.208 1.2567-2.7791-0.9973-4.9601-0.73-0.707-2.6447-0.9249-3.9727-1.0579-0.293-1.341 1.855-3.1446 4.796-4.929 1.0888-0.1496 1.5167-0.6245 2.4127-1.4846 1.9423-1.8642 1.0046-4.768 0.8463-7.7844-1.108-1.103-2.716-1.475-4.322-2.434-5.8233-0.4622-5.7527-2.374-8.3027-4.6-2.5312-1.0703-4.9989-2.46-6.8503-3.9444-0.7595-0.609-0.9373-1.9032-1.724-2.1466-2.9475-0.9121-4.2207-1.9447-3.4148-3.1325 1.5453-2.2777-0.079-3.4003 0.4908-5.4875 2.1133-3.5869 1.6236-7.3063-1.4398-9.5315-2.4591-2.5253-1.3023-0.4996-5.9181-1.975-3.4923-1.1163-2.0944-6.0625 0.3859-9.1415 1.7264-2.5638 7.6377-2.9838 7.534-6.729 2.1955 0.1046 2.3411-1.4804 5.1154-2.2145 3.3844-1.9874 0.3117-4.3779 3.2376-6.5905 1.9333-2.1958 2.3768-6.3606 3.7217-4.885 3.3782 3.7064 5.7729 4.2371 6.0304 3.8434 2.2017 0.9512 3.172 0.5646 4.8778 1.2285z" stroke="#000"/><g id="ibaraki" transform="translate(57.225 26.012)"><path d="m1407.6 1760.6c-0.014-0.9375-0.398-1.8082-1.0096-2.6108 1.5883-0.3891 2.9349-1.1258 4.2736-1.6412 2.863-1.101 6.0007-2.4361 6.834-4.403 0.1777-2.4588 5.1811-4.4623 8.3587-6.8643 0.881-0.937 0.8323-4.5027 0.4493-7.1827-0.345-2.42-0.7519-5.7579 0.5036-7.973 0.4998-1.4368-1.3796-1.919-1.7936-3.188-0.625-1.91-0.098-4.6218 0.4924-7.8927 0.8134 0.78 1.6002 1.5888 2.3374 2.2529 0.621 1.3387 2.0836 0.9559 2.6268 1.7276 2.3934 3.4 4.9862 1.5146 4.5504-1.5808-0.556-5.0677 1.5787-3.0188 2.6269-2.4178 1.7613 1.0099 4.9251 0.8065 9.3855 1.8378-0.9437 2.847-2.3507 5.682-3.4917 8.047-1.137 2.356-1.908 5.696-1.822 8.201 0.102 2.959 0.088 7.062 0.076 10.021-0.021 5.019 2.098 10.904 5.39 14.73 1.517 1.76 3.962 4.294 5.62 5.921 1.3043 1.2823 2.7657 2.7501 2.2515 4.1503-2.045-1.9771-4.7551-0.2159-6.8511-3.3029-1.526-2.246-4.9081-4.9027-8.9941-3.4217-1.165 0.423-2.618 0.6-3.796 0.987-2.183 0.717-1.3778 1.7891-3.872 3.189-2.8726 0.8206-7.4107 1.2607-10.448 0-3.3095-2.8117-4.4863-4.2217-6.2573-4.1817-1.217 0.028-4.115-1.0803-4.115-1.0803-0.9791-1.3286-3.276 0.075-3.326-3.3237z" fill="none" stroke="#000" stroke-width=".5"/></g><g id="tochigi" transform="translate(57.225 26.012)"><path d="m1389 1729.4c0.136 5.603 1.9757 4.64 2.656 8.048 0.864 4.3281-0.9177 3.9018 4.9305 6.3295 0.9527 2.7267-2.2255 4.3385-1.2855 5.7435 0.851 1.273 0.054 3.3389 3.872 4.1 3.0276 1.065 5.9912 2.5757 7.4273 4.4336 1.5426-0.4283 2.9078-1.1781 4.2647-1.7006 2.863-1.101 6.0007-2.4361 6.834-4.403 0.1777-2.4588 5.1811-4.4623 8.3587-6.8643 0.881-0.937 0.8323-4.5027 0.4493-7.1827-0.345-2.42-0.7519-5.7579 0.5036-7.973 0.4998-1.4368-1.3796-1.919-1.7936-3.188-0.625-1.91-0.098-4.6218 0.6438-7.7352-0.6673-0.7591-1.5198-1.6694-2.2881-2.4097-1.3285-1.28-2.0448-1.553-4.2157-2.9261-9.4137-1.886-14.368-2.4921-14.592 2.8882-0.098 2.3645-2.7305 1.105-3.4514 1.9358-1.452 1.672-3.671 2.841-5.596 4.191-2.5388 1.7841-3.5102 6.5171-9.6241 4.542 0.2379 0.9941 2.8281-1.031 2.9061 2.171z" fill="none" stroke="#000" stroke-width=".5"/></g><g id="saitama" transform="translate(57.225 26.012)"><path d="m1376.7 1778.6c-1.7947-0.7589-3.5575-1.6783-5.2515-2.5789 0.4102-0.9898 1.5013-2.3436 3.7228-2.5687 1.385-0.1403 1.9173-2.3922 2.7957-4.2854 2.457-2.4224 4.4077-2.5275 5.5008-4.0029 1.0835-1.4625 0.8506-4.0695 2.6079-5.2951 4.095-2.856 2.5524-1.8083 11.113-0.9423 6.0902 1.9102 5.4896-0.6527 7.3366-0.6527 0.7328 0 1.4155-0.098 2.0274-0.2568 0.6116 0.8026 0.9959 1.6733 1.0096 2.6108 0.05 3.3992 2.3469 1.9951 3.614 3.5333 1.1687 1.4187 1.7346 3.6954 2.6917 5.4927 0.9782 1.8368 1.6445 3.1984 1.5873 5.0336-0.033 1.0529-0.2377 2.2828-0.3107 3.5205 0 0-1.6543-0.3581-2.5703 0.6429-0.849 0.926-2.669 0.637-4.404 0.759-1.102 0.078-3.255 0.419-4.327 0.684-4.727 1.163-8.501-0.022-9.871-0.835-4.8099 0.5189-4.6256-0.8804-5.8901 0.7158-1.0128 1.2784-3.649 2.0751-2.6189 3.3182-6.2843-0.7552-6.2137-2.667-8.7637-4.893z" fill="none" stroke="#000" stroke-width=".5"/></g><g id="chiba" transform="translate(57.225 26.012)"><path transform="translate(-3e-6)" d="m1413.9 1769.6c0.9782 1.8368 1.6445 3.1984 1.5873 5.0336-0.033 1.0529-0.2377 2.2828-0.2368 3.5625 0 1.6507 0.3449 3.3842 1.8147 5.0253 1.5683-0.6816 1.1056-0.059 1.9232-1.5414 1.1256-1.4933 12.398-0.345 7.213 5.468-0.825 0.923-1.4516 2.8591-3.1813 4.3679-2.6016 1.3481-4.4055 1.6144-2.2314 7.5978-0 2.777-0.7737 5.7593-0.6147 8.5333 0.064 1.106-0.452 2.92 0.028 4.024 0.529 1.211 0.613 2.559 0.455 3.872-1.4915 4.5793 1.367 3.894 3.189 3.644 2.393-0.326 4.505-2.188 5.011-4.554 0.202-0.946 0.372-3.199 3.569-5.089 1.56-0.922 3.659-3.171 5.694-4.024 2.534-1.06 4.464-2.473 3.948-8.579-0.258-3.036 0.446-6.963 0.38-9.414-0.097-3.537-0.543-7.901 4.479-9.947 1.831-0.745 3.758-2.187 5.543-3.037 1.9013-0.9036 2.7473-1.8208 2.7835-2.8347-2.045-1.9771-4.7551-0.2159-6.8511-3.3029-1.526-2.246-4.9081-4.9027-8.9941-3.4217-1.165 0.423-2.618 0.6-3.796 0.987-2.183 0.717-1.3778 1.7891-3.872 3.189-2.8726 0.8206-7.4107 1.2607-10.448 0-3.3095-2.8117-4.4863-4.2217-6.2573-4.1817-1.217 0.028-4.115-1.0804-4.115-1.0804 1.4567 1.6284 2.0226 3.9051 2.9797 5.7024z" fill="none" stroke="#000" stroke-width=".5"/></g><g id="tokyo" transform="translate(57.225 26.012)"><path transform="translate(-3e-6)" d="m1389.2 1785.6s3.0365-1.4706 4.8723 0.2794c2.1284 2.029 4.7652 3.1511 6.1903 3.1404 2.41-0.019 3.3049-0.8107 4.177 0.1606 2.8083 1.4881 3.2541 2.8101 3.721-1.8316 0.2064-2.052 3.8132 0.8829 3.8132 0.8829 0.2968 0.017 0.5979-0.1686 1.0372-0.3379 4.6003-1.7729 1.2996-1.5023 2.2381-3.5569 0.7651-0.4626 1.3271-0.7644 1.7745-1.0667-1.4699-1.6411-1.8148-3.3746-1.8887-5.0673 0 0-1.6543-0.3581-2.5703 0.6429-0.849 0.926-2.669 0.637-4.404 0.759-1.102 0.078-3.255 0.419-4.327 0.684-4.727 1.163-8.501-0.022-9.871-0.835-4.8099 0.5189-4.6256-0.8804-5.8901 0.7158-1.0128 1.2784-3.649 2.0751-2.6189 3.3182 1.145 0.666 2.753 1.038 3.7464 2.1122z" fill="none" stroke="#000" stroke-width=".5"/></g><g id="kanagawa" transform="translate(57.225 26.012)"><path transform="translate(-3e-6)" d="m1411.7 1791.3c0.18 2.298 1.373 4.6045 2.278 5.7135 4.1171 6.1003-0.4366 6.6647 0 9.3095 0.4296 2.6203-3.7602 1.9767-4.249-1.7175-0.384-2.041-1.22-3.803-4.556-3.644-2.402 0.115-5.713-0.171-7.82 0.987-1.781 0.979-3.774 2.594-4.556 5.238-0.283 0.961-0.667 2.789-0.476 4.3895-1.1511-0.022-3.4647-0.027-4.1106-0.8033-1.1243-1.3522-1.9245-2.8576-1.9385-4.9802-0.01-1.208 1.2567-2.7791-0.9973-4.9601-0.73-0.707-2.6447-0.9249-3.9727-1.0579-0.293-1.341 1.855-3.1446 4.796-4.929 1.0888-0.1496 1.5167-0.6245 2.4127-1.4846 1.9423-1.8642 1.0046-4.768 0.7317-7.8134 0 0 3.0365-1.4709 4.8723 0.2791 2.1284 2.029 4.7652 3.1511 6.1903 3.1404 2.41-0.019 3.3049-0.8107 4.177 0.1606 2.8083 1.4881 3.2541 2.8101 3.721-1.8316 0.2064-2.052 3.8132 0.8832 3.8132 0.8832-0.4916 0.8465-0.3042 1.7034-0.3161 3.1208z" fill="none" stroke="#000" stroke-width=".5"/></g><g id="gunma" transform="translate(57.225 26.012)"><path d="m1369.8 1774.6c-0.7595-0.609-0.9373-1.9032-1.724-2.1466-2.9475-0.9121-4.2207-1.9447-3.4148-3.1325 1.5453-2.2777-0.079-3.4003 0.4908-5.4875 2.1133-3.5869 1.6236-7.3063-1.4398-9.5315-2.4591-2.5253-1.3023-0.4996-5.9181-1.975-3.4923-1.1163-2.0944-6.0625 0.3859-9.1415 1.7264-2.5638 7.6377-2.9838 7.534-6.729 2.1955 0.1046 2.3411-1.4804 5.1154-2.2145 3.3844-1.9874 0.3117-4.3779 3.2376-6.5905 1.9333-2.1958 2.3768-6.3606 3.7217-4.885 3.3782 3.7064 5.7729 4.2371 5.7783 3.8149 2.6768 1.6085 5.267-0.4166 5.345 2.7854 0.136 5.603 1.9757 4.64 2.656 8.048 0.864 4.3281-0.9177 3.9018 4.9305 6.3295 0.9527 2.7267-2.2255 4.3385-1.2855 5.7435 0.851 1.273 0.054 3.3389 3.872 4.1 2.9727 1.0457 5.8838 2.5211 7.4184 4.374-0.6119 0.1583-1.2946 0.2585-2.0274 0.2567-1.847 0-1.2464 2.5629-7.3366 0.6527-8.561-0.866-7.0184-1.9137-11.113 0.9423-1.7573 1.2256-1.5244 3.8326-2.6079 5.2951-1.0931 1.4754-3.0438 1.5805-5.5008 4.0029-0.8784 1.8932-1.4107 4.145-2.7957 4.2854-3.1214 0.3163-4.0111 2.8611-3.9615 3.119-0.2305-1.06-0.8214-1.4839-1.3601-1.9158z" fill="none" stroke="#000" stroke-width=".5"/></g></g><g id="tohoku-area" transform="translate(-57.225 -26.012)"><path id="tohoku" transform="translate(57.225 26.012)" d="m1388.7 1727.9c3.4229 1.3322 4.3943-3.4008 6.9331-5.1849 1.925-1.35 4.144-2.519 5.596-4.191 0.7209-0.8308 3.3534 0.4287 3.4514-1.9358 0.2234-5.3803 5.1779-4.7742 14.592-2.8882 2.1709 1.3731 2.8873 1.646 4.2157 2.9261 1.3756 1.3254 3.0212 3.1962 4.4741 4.5051 0.621 1.3387 2.0836 0.9559 2.6268 1.7276 2.3934 3.4 4.9862 1.5146 4.5504-1.5808-0.556-5.0677 1.5787-3.0188 2.6269-2.4178 1.7613 1.0099 4.9251 0.8065 9.3855 1.8378 0.5563-1.671 0.1223-3.596 3.3423-7.441 1.33-1.59 2.137-4.969 2.276-7.896 0.094-1.975 0.203-5.04 0.153-7.441-0.043-1.966-0.822-4.344-1.291-6.074-0.531-1.953-0.573-4.74-1.139-6.682-1.097-3.756-3.036-8.777-5.468-11.844-1.539-1.942-2.841-4.967-3.188-7.441-0.437-3.12-1.0681-6.8526-1.2351-10.184-0.1733-2.6228 5.4552-3.475 3.3928-6.2418 0.2157-1.5746 1.1188-4.1396 2.8687-2.0482 1.3628 1.6287 2.7891-0.6153 2.7531-1.7582-0.06-1.8899 0.8427-1.5368 1.7105-2.0132 3.1891-1.4533 7.4429-1.6006 9.187 1.063 3.9567 6.0427 5.1608-1.0402 1.367-4.557-1.291-1.495-2.346-4.297-3.037-6.148-3.117-8.336 0.254-18.849 4.858-22.476 1.255-0.986 4.174-5.43 4.403-6.832 0.366-2.228 1.49-5.784 1.671-9.263 0.038-0.73 0.242-2.935 0.76-4.404 2.423-6.883 0.747-11.125-0.456-15.185-1.529-5.157-3.82-10.924-6.378-13.287-4.348-4.015-6.104-8.592-8.504-12.376-1.738-2.743-4.086-6.207-6.985-8.808-1.317-1.181-2.793-2.899-4.1-4.708-1.23-1.702-2.945-4.083-5.011-5.618-0.77-0.572-1.653-2.539-2.354-3.873-0.641-1.218-1.014-2.994-0.76-5.922 0.163-1.863 0.376-5.425 0.228-7.289-0.306-3.867-1.527-4.021-1.974-5.239-0.552-1.506-0.403-3.259-0.531-4.859-0.091-1.142-0.294-2.383-0.304-5.77-0.012-3.998-1.897-3.503-4.632-1.519-2.011 1.46-5.677 1.684-8.353-1.822-2.14-2.806-7.869-1.403-7.4373 3.341v-1e-4c0.182 2.001-0.876 3.868-1.512 5.008-1.135 2.02-3.737 6.652-1.063 7.745 6.747 2.759 10.84-2.126 11.997-3.493 2.691-3.176 5.778-3.378 5.693 1.519-0.057 3.268 0.788 10.332-0.228 11.921-2.272 3.557-3.052 3.151-4.858 1.366-3.624-3.579-6.677-1.13-7.593 1.595-1.566 4.651-4.53 3.261-5.771 1.898-1.267-1.392-2.976-3.074-3.188-5.239-0.23-2.344 0.378-6.411 0-7.517-1.039-3.032-2.602-6.725-6.683-4.479-0.93 0.514-2.702 1.244-3.947 0.835-1.895-0.621-2.967 4.052-3.038 6.15-0.036 1.097 0.427 11.149 0.076 12.451-0.877 3.263-2.114 6.489-7.061 9.719-0.942 0.616-2.486 0.864-3.493 1.367-2.04 1.021-4.978 2.775-1.519 5.922 0.945 0.859 1.802 2.382 2.43 3.492 0.52 0.919 1.83 2.524 3.113 3.493 1.849 1.395 2.134 3.514 2.202 5.315 0.032 0.857-0.025 2.0384-0.1011 3.256-0.072 1.1678-0.1609 2.3689-0.2029 3.349-0.073 1.7119-0.6808 3.508-1.4862 5.0672-0.9339 1.8081-2.1333 3.2977-3.0708 3.9678-1.69 1.21-0.776 0.9248-8.1199 3.4086-1.5621 2.5073 2.5184 4.7824 4.1406 7.1546 1.0226 1.4953 2.5141-1.8236 3.7238-2.9385 2.986-2.3091 5.7745-2.0657 5.7995-3.5257 0.11-6.024 2.652-2.939 2.05 0.152-0.287 1.476-0.083 3.509-0.152 5.011-0.078 1.723 0.666 3.937 1.974 5.01 1.275 1.045 1.216 3.517 1.216 5.163-0.01 3.995 0.245 12.051 0 15.338-0.131 1.754-0.634 4.199-1.671 5.619-1.555 2.129-1.384 5.304-1.063 8.884 0.194 2.153-2.368 9.446-4.555 12.375-1.976 2.644-3.439 5.395-3.342 8.275 0.027 0.809-0.161 1.582-0.558 2.6521 2.205 2.591 7.8248 2.4209 6.5025 4.9212-2.5223 4.7692 2.8955 3.8868 5.9463 4.0441 3.7235 0.192 2.871 5.6073-1.1978 8.4307-6.1039-0.3633-2.9207 3.59-3.841 7.169-0.7141 8.0899 2.271 7.544 5.506 9.332-3.486 4.973-5.2684 6.401-3.913 9.718 2.1369 9.8179-2.9086 7.0086-6.5118 7.0703-1.7617 0.03-0.9791 2.5379-1.8192 2.6287-5.285 0.574-5.583 3.211-5.573 6.519 2.3074 0.5655 1.1835 3.0136 1.6089 4.6991 0.4718 1.8699-0.176 4.6644 1.2271 5.1749 3.306 1.2029 2.5407 2.6671 3.0987 5.7836 0.036-0.5748-0.1403 4.164-0.3366 5.8118 2.2017 0.9512 3.172 0.5646 4.8778 1.2285z" stroke="#000"/><g id="fukushima" transform="translate(57.225 26.012)"><path transform="translate(-3e-6)" d="m1392.2 1688.9c2.1369 9.8179-2.9086 7.0086-6.5118 7.0703-1.7617 0.03-0.9791 2.5379-1.8192 2.6287-5.285 0.574-5.583 3.211-5.573 6.519 2.3074 0.5655 1.1835 3.0136 1.6089 4.6991 0.4718 1.8699-0.176 4.6644 1.2271 5.1749 3.306 1.2029 2.5407 2.6671 3.0987 5.7836 0.036-0.5748-0.1403 4.164-0.3366 5.8118 2.2017 0.9512 3.172 0.5646 4.8778 1.2285 3.4229 1.3322 4.3943-3.4008 6.9331-5.1849 1.925-1.35 4.144-2.519 5.596-4.191 0.7209-0.8308 3.3534 0.4287 3.4514-1.9358 0.2234-5.3803 5.1779-4.7742 14.592-2.8882 2.1709 1.3731 2.8873 1.646 4.2157 2.9261 1.3756 1.3254 3.0212 3.1962 4.4741 4.5051 0.621 1.3387 2.0836 0.9559 2.6268 1.7276 2.3934 3.4 4.9862 1.5146 4.5504-1.5808-0.556-5.0677 1.5787-3.0188 2.6269-2.4178 1.7613 1.0099 4.9251 0.8065 9.3855 1.8378 0.5563-1.671 0.1223-3.596 3.3423-7.441 1.33-1.59 2.137-4.969 2.276-7.896 0.094-1.975 0.203-5.04 0.153-7.441-0.043-1.966-0.822-4.344-1.291-6.074-0.531-1.953-0.573-4.74-1.139-6.682-1.097-3.756-3.036-8.777-5.468-11.844-0.7157-0.9031-1.3802-2.0405-1.9257-3.1533 0.1587 0.2938-4.7785-0.1181-4.7315 2.559 0.1362 7.7368-0.5489 4.6138-6.168 4.5668-2.6819-0.022-1.3851-2.9567-3.1537-5.8186-3.5447-0.6685-5.2977 0.278-8.3462-0.4729-0.5338 0.4533-1.3264 0.7044-2.0333 1.0863-0.9432 0.5094-1.7341 1.2516-1.5557 3.0167 0.5875 5.8115-2.6956 7.5076-7.2201 5.8595-3.193-0.133-6.0352-2.2079-9.4179-1.2425-2.118-1.3095-4.5803-0.5985-4.5803-0.5985-3.3373 5.1165-5.1197 6.5445-3.7643 9.8615z" fill="none" stroke="#000" stroke-width=".5"/></g><g id="iwate" transform="translate(57.225 26.012)"><path d="m1430 1617.8c1.422 0.441 3.144 1.377 4.84 1.224 1.016-0.092 3.7858 1.3847 4.6078 2.1257 1.364 1.227 5.7381-1.4396 5.7447 2.5543 0.5735 4.9501 3.618-0.2942 4.5945 1.972 0.9104 2.1128 3.3467 1.8675 2.8158-0.598-0.8327-3.3052 1.411-2.646 2.7596-6.1596 0.8499-2.2144 3.8346-0.5862 3.8346-0.5862 1.0694-2.906 2.6869-5.3913 4.4944-6.8152 1.255-0.986 4.174-5.43 4.403-6.832 0.366-2.228 1.49-5.784 1.671-9.263 0.038-0.73 0.242-2.935 0.76-4.404 2.423-6.883 0.747-11.125-0.456-15.185-1.529-5.157-3.82-10.924-6.378-13.287-4.348-4.015-6.104-8.592-8.504-12.376-1.738-2.743-3.3789-5.3231-5.9476-7.797 0 0-2.1118 4.6-7.2618 4.835-5.748 0.266-3.5791 3.7307-6.834 4.783-1.6729 0.5408-3.3034 3.9232-5.0837 5.055-0.437 0.2779-0.883 0.4201-1.3409 0.3515-0.3273-0.031-0.8588-0.7253-1.1282-0.5697-2.4936 1.44-3.5003 4.057-3.8088 10.004-0.257 4.915-1.8374 9.3721-1.6284 13.921 0.313 6.847-1.429 5.049-2.119 8.669-0.265 1.393-0.617 3.976-0.835 5.468 0.2436 4.6755 1.8855 4.6133 2.733 7.212 0.735 0.66 1.484 1.77 2.051 2.582 0.852 1.225 1.1998 2.9025 1.9478 4.1935 0.4709 0.8129 2.197 1.4061 2.4479 2.0624 0.6938 1.8148-0.092 3.4046-0.2658 5.5373-0.1009 3.3584-9.6797 6.6557-4.5345 4.3803 4.8734-3.0404 5.7436-3.2674 6.4207-3.0575z" fill="none" stroke="#000" stroke-width=".5"/></g><g id="aomori" transform="translate(57.225 26.012)"><path d="m1390.4 1550.3c1.414-0.707 3.186-1.331 5.011-1.291 2.6965 0.061 5.503 0.7524 8.2972 0.76 3.0471 0.01 6.0796-0.6729 8.9388-0.76 4.166-0.125 3.853-1.607 4.251-2.354 1.209-2.263 5.8899-4.5162 6.2439-1.5992 0.261 2.155-1.2466 5.9523 0.379 5.619 4.9333-1.0115 1.9611 2.2844 2.8149 3.5602 0.693 1.0354 1.7336 3.5318 3.1356 3.142 2.0874-0.5802 3.641-4.7334 5.7246-5.407 3.2549-1.0523 1.086-4.517 6.834-4.783 5.15-0.235 7.5465-4.631 7.5465-4.631-1.6982-0.5718-5.7333-6.356-5.9007-6.5852-1.1809-1.6178-2.7212-3.6113-4.5308-4.9558-0.77-0.572-1.653-2.539-2.354-3.873-0.641-1.218-1.014-2.994-0.76-5.922 0.163-1.863 0.376-5.425 0.228-7.289-0.306-3.867-1.527-4.021-1.974-5.239-0.552-1.506-0.403-3.259-0.531-4.859-0.091-1.142-0.294-2.383-0.304-5.77-0.012-3.998-1.897-3.503-4.632-1.519-2.011 1.46-5.677 1.684-8.353-1.822-2.14-2.806-7.869-1.403-7.4373 3.341v-1e-4c0.182 2.001-0.876 3.868-1.512 5.008-1.135 2.02-3.737 6.652-1.063 7.745 6.747 2.759 10.84-2.126 11.997-3.493 2.691-3.176 5.778-3.378 5.693 1.519-0.057 3.268 0.788 10.332-0.228 11.921-2.272 3.557-3.052 3.151-4.858 1.366-3.624-3.579-6.677-1.13-7.593 1.595-1.566 4.651-4.53 3.261-5.771 1.898-1.267-1.392-2.976-3.074-3.188-5.239-0.23-2.344 0.378-6.411 0-7.517-1.039-3.032-2.602-6.725-6.683-4.479-0.93 0.514-2.702 1.244-3.947 0.835-1.895-0.621-2.967 4.052-3.038 6.15-0.036 1.097 0.427 11.149 0.076 12.451-0.877 3.263-2.114 6.489-7.061 9.719-0.942 0.616-2.486 0.864-3.493 1.367-2.04 1.021-4.978 2.775-1.519 5.922 0.945 0.859 1.802 2.382 2.43 3.492 0.52 0.919 1.83 2.524 3.3377 3.7981 0 0 2.3076-1.079 3.7926-1.821z" fill="none" stroke="#000" stroke-width=".5"/></g><g id="yamagata" transform="translate(57.225 26.012)"><path d="m1419 1665.5c1.1439-2.7453 1.8407 0.068 4.1163-3.7096 3.0632-5.0853-0.6607-8.0143-0.5587-12.743 0.075-3.515 3.1086-8.5451 0.9608-12.825 1.4124-3.6202-0.429-2.5275 0.037-6.7043-0.6359-5.4781-4.2442-4.3251-4.7329-6.3302-1.9408-0.1461-3.2129-0.8788-4.7502-2.1642-2.3272-2.7881-7.133-2.646-10.745-4.096-0.8056-0.3233-0.9674-0.1717-2.8657-1.4138-1.3035-0.8529-1.962 0.3258-2.9313 0.3498-1.755 0.043-5.9789 0.1875-5.9789 0.1875-0.2871 1.8086-0.1477 3.8273 0.047 5.9944 0.194 2.153-2.368 9.446-4.555 12.375-1.976 2.644-3.439 5.395-3.342 8.275 0.027 0.809-0.161 1.582-0.558 2.6521 2.205 2.591 7.8248 2.4209 6.5025 4.9212-2.5223 4.7692 2.8955 3.8868 5.9463 4.0441 3.7235 0.192 2.871 5.6073-1.1978 8.4307-6.1039-0.3633-2.9207 3.59-3.841 7.169-0.7141 8.0899 2.271 7.544 5.3571 9.1885 0 0 2.462-0.711 4.58 0.5985 3.3827-0.9654 6.2249 1.1095 9.4179 1.2425 4.5245 1.6481 7.8076-0.048 7.2201-5.8595-0.1784-1.7651 0.6125-2.5073 1.5557-3.0167 0.7069-0.3819 1.4995-0.633 0.9995-0.6143-1.3615-1.8876-1.4692-4.0662-0.6838-5.9511z" fill="none"/></g><g id="miyagi" transform="translate(57.225 26.012)"><path d="m1429.5 1617.7c1.422 0.441 3.644 1.4395 5.34 1.2865 1.016-0.092 3.7858 1.3847 4.6078 2.1257 1.364 1.227 5.7381-1.4396 5.7447 2.5543 0.5735 4.9501 3.618-0.2942 4.5945 1.972 0.9104 2.1128 3.3467 1.8675 2.8158-0.598-0.8327-3.3052 1.411-2.646 2.7596-6.1596 0.8499-2.2144 3.7946-0.4743 3.7946-0.4743-1.7303 4.8067-2.185 10.567-0.322 15.549 0.691 1.851 1.746 4.653 3.037 6.148 3.7938 3.5168 2.5897 10.6-1.367 4.557-1.7441-2.6636-5.9979-2.5163-9.187-1.063-0.8678 0.4764-1.7705 0.1233-1.7105 2.0132 0.036 1.1429-1.3903 3.3869-2.7531 1.7582-1.7499-2.0914-2.653 0.4736-2.8687 2.0482 2.0624 2.7668-3.5661 3.619-3.3928 6.2418 0.167 3.331 0.7981 7.0636 1.2351 10.184 0.347 2.474 0.7651 3.3776 1.5592 4.8508-0.1398-0.2693-5.077-0.6812-5.03 1.9959 0.1362 7.7368-0.5489 4.6138-6.168 4.5668-2.6819-0.022-1.3851-2.9567-3.1537-5.8186-3.5447-0.6685-5.2977 0.278-8.3462-0.4729-0.5338 0.4533-1.3264 0.7044-2.0505 1.0151-0.3448-2.4307-0.4525-4.6093 0.3329-6.4942 1.1439-2.7453 1.8407 0.068 4.1163-3.7096 3.0632-5.0853-0.6607-8.0143-0.5587-12.743 0.075-3.515 3.1086-8.5451 0.9608-12.825 1.4124-3.6202-0.429-2.5275 0.037-6.7043-0.6359-5.4781-4.6192-5.0126-4.2937-6.7449l4.2469-1.9251z" fill="none" stroke="#000" stroke-width=".5"/></g><g id="akita" transform="translate(57.225 26.012)"><path d="m1423.7 1620.7c2.1715-1.2764 4.3117-2.6794 4.4405-4.2635 0.1738-2.1327 0.9596-3.7225 0.2658-5.5373-0.2509-0.6563-1.977-1.2495-2.4479-2.0624-0.748-1.291-1.0958-2.9685-1.9478-4.1935-0.567-0.812-1.316-1.922-2.051-2.582-0.8475-2.5987-2.4894-2.5365-2.733-7.212 0.218-1.492 0.57-4.075 0.835-5.468 0.69-3.62 2.432-1.822 2.119-8.669-0.209-4.549 1.3714-9.0061 1.6284-13.921 0.2306-4.444 0.5697-6.1824 1.7029-7.9481 0.819-1.276 1.6466-1.464 2.1524-2.4608-0.6534-0.9696-1.7018-1.9821-1.5579-2.7534 0.5107-2.7365 1.1819-3.7515-2.6109-2.9738-1.6256 0.3333-0.118-3.464-0.379-5.619-0.354-2.917-5.0349-0.6638-6.2439 1.5992-0.398 0.747-0.085 2.229-4.251 2.354-2.8592 0.087-5.8917 0.77-8.9388 0.76-2.7942-0.01-5.6007-0.699-8.2972-0.76-1.825-0.04-3.597 0.584-5.011 1.291-1.485 0.742-3.7927 1.821-3.7927 1.821 1.6244 1.0899 1.9094 3.2089 1.9774 5.0099 0.032 0.857-0.025 2.0384-0.1011 3.256-0.072 1.1678-0.1609 2.3689-0.2029 3.349-0.073 1.7119-0.6808 3.508-1.4862 5.0672-0.9339 1.8081-2.1333 3.2977-3.0708 3.9678-1.69 1.21-0.776 0.9248-8.1199 3.4086-1.5621 2.5073 2.5184 4.7824 4.1406 7.1546 1.0226 1.4953 2.5141-1.8236 3.7238-2.9385 2.986-2.3091 5.7745-2.0657 5.7995-3.5257 0.11-6.024 2.652-2.939 2.05 0.152-0.287 1.476-0.083 3.509-0.152 5.011-0.078 1.723 0.666 3.937 1.974 5.01 1.275 1.045 1.216 3.517 1.216 5.163-0.01 3.995 0.245 12.051 0 15.338-0.131 1.754-1.5402 6.324-2.668 8.0861 0 0 4.1113 0.278 5.8663 0.235 0.9693-0.024 1.6278-1.2027 2.9313-0.3498 1.8983 1.2421 2.0601 1.0905 2.8657 1.4138 3.612 1.45 8.4178 1.3079 10.745 4.096 1.5373 1.2854 2.8094 2.0181 3.936 1.8915 1.7873-0.2009 3.7702-1.0671 5.6934-2.1968z" fill="none" stroke="#000" stroke-width=".5"/></g></g><g id="hokkaido-area" transform="translate(-3e-6)"><path id="hokkaido" d="m1454.9 1317.1c2.862 2.008 5.635 4.847 8.352 7.744 2.121 2.261 3.906 4.822 6.302 5.771 1.16 0.459 2.284 1.172 3.416 2.278 0.721 0.703 1.4 1.429 2.657 2.202 1.218 0.748 1.123 0.878 2.507 2.05 2.212 1.875 5.685 4.499 8.199 4.631 2.919 0.154 5.808 2.594 8.276 4.404 3.804 2.79 8.151 4.043 12.224 4.404 4.956 0.439 13.021 1.212 15.641 1.594 4.825 0.705 10.328 0.75 11.617-0.683 1.918-2.132 4.241-2.44 5.391-3.797 1.65-1.948 2.956-2.983 3.265-4.631 0.582-3.108 2.195-5.504 5.163-8.201 5.892-5.352 5.234-6.138 4.936 0.836-0.105 2.451-0.589 4.873-2.05 6.529-1.482 1.679-2.106 3.202-2.81 3.948-1.755 1.861-1.703 7.552-1.291 10.553 0.271 1.97 1.194 4.514 1.291 5.543 0.119 1.286 0.639 2.657 1.594 3.72 1.044 1.163 1.578 2.003 2.051 2.961 0.437 0.89 0.844 1.854 1.67 2.734 1.369 1.458 1.865 3.181 2.81 4.631 2.741 4.208 5.728 5.696 9.794 4.024 14.77-6.071 4.141-0.549 2.581 2.202-2.066 3.648-3.84 6.713-8.351 8.2-3.14 1.035-6.292 2.722-8.58 5.467-2.511 3.011-4.66 4.89-7.213 1.746-4.256-5.238-6.596 0.527-4.329 3.265 3.108 3.752 2.281 3.197-0.91 3.341-1.98 0.089-4.305 0.231-6.529-0.607-4.084-1.539-7.91-3.452-11.921 0.076-1.037 0.912-1.045 1.639-3.265 3.416-4.088 3.274-6.89 6.561-9.718 10.022-1.098 1.342-1.703 3.048-2.885 3.796-1.937 1.225-2.625 2.693-3.19 4.328-0.77 2.234-2.292 3.368-3.036 4.631-2.366 4.013-2.461 8.457-2.657 14.123l-0.304 8.731c-0.225 6.444 0.023 6.367-5.012 3.417-2.499-1.464-5.02-2.169-9.414-3.037-3.659-0.722-7.406-1.04-10.857-2.582-0.848-0.379-1.648-1.369-3.038-1.67-1.428-0.31-2.412-1.15-3.796-2.354-0.767-0.668-1.53-1.507-2.657-1.975-1.927-0.798-2.209-1.369-3.037-2.126-1.66-1.515-3.183-3.324-5.694-4.631-2.206-1.147-3.663-2.114-5.239-3.417-1.421-1.176-3.037-1.692-5.694-1.746-3.937-0.083-7.643-0.381-11.237 0.683-1.018 0.302-2.922 0.583-4.631 0.987-3.95 0.936-3.944 1.78-5.088 3.113l-8.199 9.566c-3.097 3.614-2.713 2.914-3.948-0.228-1.034-2.631-1.652-4.183-2.961-5.922-1.351-1.796-2.862-3.421-6.757-3.341-1.234 0.025-2.696 0.355-4.48 0.607-1.057 0.149-1.985 0.188-3.416 1.366-0.844 0.696-1.218 0.925-2.051 1.594-2.99 2.407-2.385 5.219-2.277 7.896l0.152 3.796c1.54 3.853 5.432 5.346 8.504 5.999 1.969 0.418 6.092 0.463 8.655 0.151 2.148-0.261 3.245 0.489 3.112 2.733l-0.151 2.582c-0.081 1.387 1.11 1.586 2.05 1.974 3.452 1.424 6.479 2.75 9.035 3.265 3.878 0.78 3.414 2.268 1.821 4.176-1.345 1.613-2.6 2.614-3.567 3.872-1.603 2.083-3.306 2.216-5.24 1.594-1.057-0.34-2.147-0.473-3.795-0.683-1.507-0.193-2.669-1.032-3.721-2.43-1.708-2.268-2.846-1.426-3.645-0.532-1.78 1.996-3.686 4.018-4.935 6.227-0.805 1.421-1.498 2.331-0.988 5.77 0.343 2.306-0.126 4.083-0.531 5.771-0.282 1.176-1.258 1.954-1.897 2.81-1.363 1.819-2.782 1.819-4.479 0.607-0.851-0.607-2.009-0.503-3.266-0.911-2.657-0.863-3.781-3.033-4.935-4.86-1.174-1.858-1.549-7.622 0.987-9.566l2.277-1.746c1.498-1.064 1.738-1.881 1.822-3.797l-0.607-4.783c-0.203-1.601-0.977-2.599-3.417-4.708-0.806-0.696-1.23-1.943-2.277-2.581-1.549-0.943-3.147-1.846-4.479-3.189-0.742-0.748-1.72-1.55-3.037-2.126-2.543-1.11-2.416-2.354-2.582-4.556v-8.124c0-1.522-0.085-3.113 0.988-4.403 0.67-0.808 0.613-2.155 1.594-3.417 1.552-1.997 2.197-3.022 3.113-3.493 1.378-0.709 2.338-0.995 3.113-1.671 1.164-1.017 1.948-1.35 2.505-1.595 1.606-0.704 2.627-1.648 3.341-2.277 2.241-1.974 4.173-3.919 5.771-5.923 2.264-2.84 3.429-7.389 0.607-9.49-1.96-1.46-3.173-2.5502-3.646-4.859-0.44-3.5702-0.9981-6.5947 1.7499-9.0627 4.8002-4.3107 11.526 5.4677 16.549 4.9627 3.177-0.319 6.697-0.051 9.262-0.151 5.367-0.208 7.771-3.882 8.504-7.289l1.3785-7.0228c0.036-1.782 0.082-5.1921-2.2125-7.3272-1.7698-2.9328-0.721-5.64 0.151-6.378 1.527-1.287 2.12-1.962 2.963-2.505 1.275-0.823 2.638-2.369 2.581-4.859 0 0 0.5495-6.7231-0.229-9.947-0.4863-2.0138-2.4991-3.5328-2.7082-5.5939-0.255-2.5137 1.8656-7.3465 1.8656-7.3465l1.1476-8.1666c0.032-1.671 0.291-3.165 1.366-4.479 0.876-1.071 0.961-3.295 0.379-5.011-0.344-1.016-0.954-2.037-1.138-3.265-0.186-1.247-1.21-2.785-3.416-4.859-1.893-1.777-3.583-3.635-3.722-5.011-0.11-1.119-1.541-1.781-2.202-2.885-1.927-3.221-1.088-7.514 0.608-9.719l2.96-2.278c1.566-1.205 2.036-1.342 2.052-2.354l0.07-5.311c0.22-4.754 6.234-4.198 8.809-1.29l13.059 14.729c1.521 1.714 3.349 2.983 4.935 4.859 2.166 2.562 3.976 4.512 5.771 5.771z" fill="none" stroke="#000" stroke-width="1.2148"/></g></g>
</svg>
