<svg id="svg1" width="159.5mm" height="207.9mm" version="1.1" viewBox="0 0 159.5 207.9" xmlns="http://www.w3.org/2000/svg">
 <defs id="defs2">
  <style id="style1" type="text/css"><![CDATA[
      .region {
  fill: #5d9c99;
}
      .region:hover{
        opacity: 0.7;
      }
    ]]></style>
 </defs>
 <path id="divider" d="m96.35 205.2 5.85-20.89 29.26-30.07 22.16-4.043" fill="none" stroke="#000" stroke-width=".6428"/>
 <g id="layer1" transform="translate(-25.13 -16.47)">
  <g id="g15" transform="matrix(.2646 0 0 .2646 -234.8 -324.6)">
   <a id="a1" href="https://inaka-japan.webflow.io/region/okinawa" target="_blank">
    <g id="okinawa-area" class="region" transform="translate(-3e-6)">
     <path id="path3585-0-2-05-2-4-4-6" class="region" d="m1584 1890c2.496 0.8659 0.6905 2.662-1.124 3.329-2.743 1.009-2.897 1.081-3.041-1.264zm-137.6 139.3c2.496 0.8659 2.966 2.337 1.152 3.004-2.743 1.009-2.897 1.081-3.041-1.264zm-68.41 10.52c2.496 0.8659 6.3 2.452 4.486 3.119-2.743 1.009-7.38 1.655-7.524-0.6895zm79.94-11.29 0.8427-4.154c1.893 0.01 1.91 4.171 3.138 4.866 3.76 2.13 6.3 2.452 4.486 3.119-2.743 1.009-3.702 0.7357-7.524 0.1152-0.816-0.931-0.7423-0.895-0.9423-3.947zm17.64-49.62c2.972-2.93 7.532 2.275 3.632 4.591-1.957 0.021-0.8061-0.4354-1.802-2.037-0.8656-1.391-2.706-0.9423-1.829-2.554zm52.55-46.44c1.687-1.405 1.116 0.7211 5.128-0.7283 1.964-2.382 3.98-4.798 3.384-0.036-1.662 2.739-3.139 3.197-5.815 5.172-3.447-3.831 0.1151-0.1615-2.697-4.408zm11.4-10.52c-0.426-1.893-2.136-5.456-1.7-5.93 2.21-3.29 2.745 0.087 6.247 3.241 0.7242 0.6523 4.772 1.521 3.64 3.388-1.662 2.739-2.326 3.522-5.002 5.498-2.877 0.5203-0.1833-1.59-3.185-6.196zm-115.9 122.7c-0.157-2.398 1.66-2.514 4.51-2.793 5.472 1.326 1.569-0.2305 7.253-4.58 0.879-0.6724-1.666 6.096-2.377 8.56-0.7892 2.733-1.518 4.184-5.34 3.564-0.816-0.931-1.777-3.309-4.046-4.752zm-17.92 4.962c-0.157-2.398 3.039-2.514 3.705-3.827 0.712-1.405 0-2.079 0.4383-2.553 2.21-3.29 0.1535-0.8032 6.01 3.146 3.819 2.575-1.023 3.815-0.8831 6.376 0.1305 2.388-6.001 0.5058-9.823-0.1147-0.816-0.931 0.752 0.025 0.552-3.027zm92.68-57.09c0.5472-1.702 4.94-3.004 3.751-3.831-3.276-2.278-0.4478-7.027 0.9376-9.635 1.478-2.782-3.763-3.351 2.082-5.883 6.518-2.824 4.282-6.04 7.192-9.521 5.132-6.141 12.8-5.517 12.82-12.52 0.013-3.615-3.074-8.94-5.565-5.478-2.996 4.164-7.212 8.194-8.66 8.69-2.981 1.022-4.793-1.296-8.085 1.34-1.63 4.966-0.295 4.001 2.178 6.255 2.135 1.945-3.455 4.509-4.346 6.354-1.169 2.421-7.401 3.446-3.456 9.873 1.527 2.488-3.351 4.61-4.539 6.154-2.955 3.84 3.667 14.49 5.686 8.207zm59.42-82.44c4.684 4.582 4.412-3.384 5.989-7.126 3.258-7.73-2.556-3.579 5.697-13.45 6.187-1.825 5.207-12.34-3.676-7.038-5.257 3.135-5.931 1.956-7.11 4.266-5.295 3.092-9.048 0.894-5.419 10.98 3.204 8.909-1.532 6.448 4.519 12.37z" stroke="#000"/>
    </g>
   </a>
   <a id="a2" href="https://inaka-japan.webflow.io/region/kyushu" target="_blank">
    <g id="kyushu-area" class="region" stroke="#000" stroke-width=".9">
     <path id="path849" transform="translate(-4.724e-7 1.26e-5)" d="m1048 1977c1.512-1.125 1.065-2.132 1.395-2.646 1.333-2.074 3.48-3.231 1.482-3.473-1.497-0.1815-0.5821-1.134-3.434 0.036-2.249 0.9227-1.581 1.671-3.007 1.531-1.477-0.1444-1.002-2.693-2.042-3.017-1.482-0.4615-2.968-0.2371-3.175-0.024-2.374 2.438-2.466 1.881-2.793 3.604-0.3791 1.996 0.3164 3.906 0.2389 5.572-0.069 1.476-0.9361 2.76-0.8555 3.742 0.1416 1.725 1.626 0.1507 3.251-0.5982 0.6623-0.3053 2.627-0.9938 3.538-2.515 0.9084-1.517 0.4815-4.071 0.8049-4.162 0.097 0.063 3.202 2.989 4.597 1.951zm-40.12-78.93c4.602-4.664 1.502-3.955 4.038-7.126 3.266-4.082 6.018-3.423 5.983-5.558-0.074-4.576-3.521-6.365-0.6115-9.846 5.132-6.141 4.142-0.4886 4.533-7.486 0.3281-5.862-3.415-3.605-5.934-1.503-1.03 0.8595-3.005-1.296-4.183 1.015-0.4923 0.9022-1.921 2.538 0.5525 4.792 2.135 1.945-1.829 5.972-2.72 7.817-4.829 9.998-6.084 22.38-1.659 17.9zm-9.047 30.91c-0.4735 1.206 4.773 1.886-1.028 6.722-1.173 0.8162-3.896 4.169-5.094 7.347-0.9135 2.424-2.098 5.183-5.137 5.14-4.287-0.061-4.305-1.109-3.266 3.472 0.9993 4.404-1.167 3.223-1.238 7.662-0.0145 0.8944 4.845 0.078 7.46 2.285 1.884 1.589 0.9708-2.501 2.107-4.312 0.8037-1.281 3.978 0.069 4.423-0.9399 1.747-3.962-1.55-3.354-1.573-6.701-0.0119-1.758 1.244-3.82 2.331-5.151 0.2397-0.2936 4.285 3.906 4.107 2.046-0.5861-6.141 2.065-6.765 3.533-7.688 3.625-2.278-1.253-2.813-0.9857-7.269 0.187-3.116-2.996-9.35-5.641-2.612zm21.28-18.55c-0.1165-1.774 0.9729-1.775 1.466-2.746 0.5267-1.042-0.2542-1.114 0.061-1.465 1.635-2.435 1.076-0.1667 3.256 0.2858 1.906 0.3952-0.8917 3.153-0.9075 4.465-0.052 3.927-3.472 0.2746-3.886-0.5394zm28.79-6.137c-0.8185 1.057-1.719 2.447-1.938 3.894-0.033 0.2212-0.049 0.436-0.051 0.6465 0 0.3231-0.051 0.671-0.1406 1.027-2.874 4.602-3.858 4.072-7.956 2.208-1.106-0.5032-2.44 0.9819-3.3 1.861-0.2293 0.2346-0.4353 0.5041-0.6113 0.8047-0.1761 0.3006-0.3217 0.6328-0.4356 0.9922s-0.1954 0.7471-0.2382 1.158c-0.053 0.5104-0.1293 0.9452-0.2305 1.318-0.1012 0.3731-0.2271 0.6845-0.377 0.9414-0.1498 0.2568-0.3245 0.4597-0.5234 0.6211-0.1989 0.1613-0.4233 0.2804-0.6719 0.3672-0.2485 0.087-0.5216 0.1408-0.8203 0.1738s-0.6214 0.045-0.9707 0.045c-2.089 0.026-2.59-2.783-6.227 0.2297-0.155 0.065-0.306 0.1437-0.4492 0.2343-0.1432 0.091-0.2803 0.1945-0.4082 0.3145-1.717 1.927 1.145 3.482 0.095 7.417 0.5851 2.755-1.453 1.683-2.216 0.4807-1.72-2.709-5.34-2.339-8.389-1.026-0.2564 0.1299-2.686 0.7357-2.917 0.8973-1.871 1.31-0.5673 3.124 0.9923 5.622 0.3743 0.6493 2.27-0.2713 3.978 2.461 2.089 3.342 3.951 4.185 5.998 5.758 1.791 1.377 3.803-0.1805 4.999 0.4104 1.894 0.9359 1.517 3.048 1.622 4.595 0.121 1.786 1.129 3.103 2.514 4.497-0.2995 2.408-3.368-0.7925-3.434 0.07-0.1337 1.742-1.601 1.616-2.388 0.2887-0.1686-0.099-0.395-0.1542-0.4844-0.3282-1.462-2.844 2.064-4.011-2.064-5.556-2.19-2.586-3.23-1.903-4.304-1.725-1.03 0.1707-1.774 1.252-1.757 3.971 0.035 5.415 3.404 7.111 6.256 10.8 1.092 3.453-1.767 7.539-0.3219 6.813 4.726-2.372 5.604-2.34 7.537-6.55 2.303-5.016 9.612-6.178 9.906-0.4039-1.572 2.981-0.8516 5.188 0.7085 5.029 1.85 0.5221 2.974-1.217 3.747-2.196 1.022-1.295 4.486-1.848 4.131-4.206-0.4018-2.673 2.133-5.454-1.002-6.693-4.392-1.736-5.756 2.329-6.738 0.308-3.175-2.567-0.026-2.486 0.9605-5.519-2.135-3.441-2.598-2.462-3.307-5.501-1.706-3.197 0.44-4.015 3.294-5.084 0.2273-0.045 0.4612-0.068 0.6993-0.068 5.003-0.1183 3.844 2.358 6.123 4.301 3.626 3.092 3.674 6.071 3.543 7.603-0.054 3.539 4.315 4.273 4.448 6.851 0.016 0.3206 0.016 0.6403 0 0.9551-1.121 2.795-1.936 1.46-1.471 5.28 0.2626 2.159-0.9089 3.617-3.071 4.39-2.564 0.9173-4.363 3.938-1.253 2.808 2.053-0.7457 2.76 0.2642 3.835-0.183 2.09-0.8692 1.814 2.827 1.511 4.62-0.9115 5.381-3.175 5.73-6.805 9.962-0.8585 1.012-1.173 3.484-2.652 3.297-3.109-0.3943-4.426-3.192-5.123-0.4896-0.5313 2.058 1.748 2.269 2.342 4.284 1.673 5.673-0.7878 7.66-1.679 11.72-0.2324 1.058-1.205 2.994 0.3993 4.172 2.802 2.058 3.388 1.918 4.85 4.867 0.1293 0.2607 0.2459 0.5368 0.3477 0.8242s0.1899 0.5865 0.2637 0.8945c0.074 0.308 0.1325 0.6248 0.1777 0.9473 0.3193 2.288 0.3109 4.271-0.7973 7.052-0.9457 2.373-4.492 1.727-3.548 4.764 2.072 4.901 2.943 3.058 7.175 4.214 2.477 0.6765 3.916 0.6589 4.484 1.666 1.578 2.795 2.165 2.426 3.786 2.809 2.309 0.03 2.656-0.1549 2.993-3.423 0.489-1.353-0.8322-2.856-3.235-4.914-2.476-2.12-2.692-6.769-2.254-10.15 0.078-0.2544 0.181-0.5098 0.3145-0.7676 0.1335-0.2577 0.2969-0.5172 0.4922-0.7773s0.4224-0.5217 0.6855-0.7832c0.2632-0.2616 0.5633-0.5232 0.9004-0.7852 0.7485-0.5825 1.353-0.912 2.187-2.907 3.093-7.402 7.977-0.044 5.793 1.589-1.977 1.154-3.842 0.8777-3.804 2.911-0.2447 3.127 0.1902 4.123 2.529 5.699 0.3453 0.242 0.7406 0.5353 1.191 0.9043 0.387 0.3167 0.7479 0.6579 1.074 1.018 2.137 2.355 2.791 5.529 0.074 8.598-0.2103 0.2375-0.4416 0.4748-0.6933 0.7109-0.4658 0.4372-0.8822 0.8559-1.252 1.256-0.3697 0.4-0.6931 0.78-0.9726 1.143-0.6864 1.06-0.7123 1.138-1.091 2.754 0.058 2.621-2.385 2.838 3.841 2.22 0.3288-0.066 0.6703-0.1528 1.02-0.2598 0.3492-0.1069 0.7066-0.2331 1.07-0.3808 1.375-0.4597 1.96-0.4309 3.039-1.348 0.5548-0.4598 1.628-2.035 2.451-2.586 0.4115-0.2758 0.8605-0.5593 1.356-0.8497 0.495-0.2903 1.035-0.5872 1.625-0.8867 2.002-2.275 2.77-2.158 3.037-5.465-0.082-1.468 1.728-3.232 0.377-4.41-2.733-2.384 0.8579-4.201 3.148-4.072 0.1415 0.01 0.2827 0.029 0.4219 0.064 0.2783 0.07 0.55 0.1919 0.8086 0.3496 0.2586 0.1578 0.5038 0.3513 0.7285 0.5664 0.2246 0.2152 0.429 0.4528 0.6055 0.6953 0.1765 0.2426 0.3253 0.4905 0.4394 0.7305 1.023 2.15 4.018 4.572 5.875 0.3047 0.015-0.034 0.8834-2.175 1.448-4.557 0.3286-1.386 1.369-3.016 1.27-4.193 0.088-0.9158-0.5959-2.104-0.4879-3.609 0.1352-1.884 0.238-4.01 0.1882-5.828-0.044-1.606-0.085-3.211-0.088-4.756 0-0.7724 0.01-1.529 0.029-2.264 0.023-0.7343 0.061-1.446 0.1172-2.127 0.061-0.7362 0.077-1.465 0.1035-2.221 0.027-0.7559 0.065-1.539 0.168-2.389 0.052-0.4246 0.1194-0.8663 0.2109-1.328 0.091-0.4618 0.2083-0.943 0.3535-1.451 0.1453-0.5081 0.3204-1.044 0.5332-1.607s0.4616-1.156 0.7559-1.785c0.2675-0.572 0.5541-1.05 0.834-1.524 0.2798-0.4733 0.5548-0.942 0.8007-1.498 0.123-0.278 0.238-0.5774 0.3438-0.9102 0.1058-0.3327 0.2023-0.6992 0.2852-1.109 0.083-0.4102 0.1528-0.8649 0.207-1.375 0.054-0.5102 0.092-1.076 0.1113-1.709 0.016-0.506 0.038-1.35 0.1309-2.393 0.046-0.5215 0.1094-1.091 0.1992-1.695 0.09-0.604 0.2059-1.241 0.3555-1.893 0.1495-0.652 0.3329-1.321 0.5586-1.986 0.2256-0.6654 0.4924-1.328 0.8105-1.973 0.159-0.3222 0.3305-0.6388 0.5156-0.9492 0.1852-0.3104 0.3843-0.6138 0.5977-0.9082 0.2133-0.2944 0.442-0.5795 0.6855-0.8535 0.2436-0.274 0.5035-0.5378 0.7793-0.7871 0.321-0.2903 0.7279-0.6746 1.162-1.135s0.8945-0.9959 1.322-1.586c0.2139-0.295 0.4195-0.604 0.6094-0.9239 0.1898-0.3199 0.3648-0.6505 0.5156-0.9902s0.2781-0.6884 0.375-1.043c0.097-0.3545 0.1634-0.7157 0.1914-1.08 0.032-0.4188 0.054-0.8052 0.1055-1.184 0.051-0.3784 0.1296-0.7491 0.2715-1.139 0.071-0.1948 0.1585-0.3943 0.2656-0.6016s0.2344-0.4222 0.3867-0.6484c0.3046-0.4524 1.078-0.7517 1.246-1.516 0.6751-3.058 4.738-4.406 1.034-8.068-0.7707-0.7619-1.325-1.796-1.941-2.723-0.3995-0.6268-0.7942-1.307-1.186-1.996-1.727-2.512-3.196-4.81-3.441-8.116-0.1549-2.085-2.567-0.9654-4.537-0.955-2.106 0.011-4.275 0.1456-5.838-1.502-1.973-2.903 3.807-4.671 4.718-7.034 0.1702-0.4413-0.037-1.692 0.032-2.123 0.07-0.431 0.093-0.8543 0.072-1.268s-0.086-0.8169-0.1875-1.205c-0.1016-0.3881-0.24-0.7615-0.4122-1.117-0.1721-0.3556-0.3784-0.6939-0.6113-1.01-0.2328-0.3158-0.4938-0.6084-0.7773-0.877-0.2836-0.2685-0.5898-0.5126-0.9141-0.7265s-0.6664-0.3989-1.022-0.5508c-0.355-0.1519-0.7218-0.2711-1.098-0.3535-0.3758-0.082-0.7599-0.1272-1.146-0.1328-0.3866-0.01-0.7767 0.029-1.164 0.1074-0.3874 0.078-0.7721 0.2011-1.15 0.3711-0.3782 0.17-0.7502 0.3873-1.109 0.6562-0.3592 0.269-0.7052 0.5896-1.035 0.9649-0.1577 0.1792-0.4141 0.389-0.7715 0.5976-0.1787 0.1043-0.382 0.2083-0.6113 0.3067-0.2293 0.098-0.4853 0.1917-0.7656 0.2753-0.2803 0.084-0.5862 0.1586-0.918 0.2188-0.3318 0.06-0.6885 0.107-1.072 0.1348-0.3838 0.028-0.7942 0.037-1.23 0.023-0.4363-0.013-0.8996-0.05-1.389-0.1133-0.4205-0.055-0.8674-0.1609-1.334-0.3125-0.4666-0.1515-0.9521-0.348-1.447-0.5859-0.4951-0.238-0.9998-0.5162-1.506-0.8301s-1.014-0.6637-1.514-1.043c-0.4993-0.3792-0.9898-0.7885-1.465-1.223-0.4751-0.4341-0.934-0.8926-1.367-1.371-1.016-0.955-2.063-1.07-2.34-3.352-0.4588-3.784 0.3916-8.253-2.84-6.512-1.88 1.013-3.106 4.34-6.656 1.271-2.052-1.635-10.28 1.61-13.76 5.934zm-0.9411 72.71c1.512-1.125 1.065-2.132 1.395-2.646 1.333-2.074 3.48-3.231 1.482-3.473-1.497-0.1815-0.5821-1.134-3.434 0.036-2.249 0.9227-1.581 1.671-3.007 1.531-1.477-0.1444-1.002-2.693-2.042-3.017-1.482-0.4615-2.968-0.2371-3.175-0.024-2.374 2.438-2.466 1.881-2.793 3.604-0.3791 1.996 0.3164 3.906 0.2389 5.572-0.069 1.476-0.9361 2.76-0.8555 3.742 0.1416 1.725 1.626 0.1507 3.251-0.5982 0.6623-0.3053 2.627-0.9938 3.538-2.515 0.9084-1.517 0.4815-4.071 0.8049-4.162 0.097 0.063 3.202 2.989 4.597 1.951zm-5.659 87.09c0.712-1.405 4.715-2.424 5.151-2.898 2.21-3.06 5.132-2.523 10.15 2.916 1.783 1.933 0.3986 7.069-1.688 8.56-2.858 2.043-7.035 1.54-10.86 0.9199-0.816-0.931-1.547-0.895-1.747-3.947-0.157-2.398-1.674-4.239-1.008-5.552zm28.06 2.585c1.735-4.392-0.3177-3.25 0.9958-4.663 3.641-3.916 3.724-4.721 3.96-9.326 0.1659-3.244-1.384-1.726-3.917 0.2183-3.266 2.508-1.898 2.759-2.403 4.606-1.06 3.871-0.208 1.931-1.013 3.598-1.152 2.386-3.116 1.786-2.747 5.475 0.2865 2.853-0.6473 5.008 2.078 3.479v1e-4c3.758-2.108 2.32-1.551 3.046-3.387z"/>
    </g>
   </a>
   <a id="a3" href="https://inaka-japan.webflow.io/region/shikoku" target="_blank">
    <g id="shikoku-area" class="region" transform="translate(-3e-6)">
     <path id="shikoku" d="m1193 1868c1.656 0.5404 2.559 1.274 3.795 0.76 0.6397-1.229 2.061-1.351 3.646-0.607 0.854 0.4 1.599 1.436 3.188 1.519 3.244 0.171 3.426 1.825 3.493 2.05 0.363 1.231 3.874 1.61 5.087 1.366 3.588-0.72 3.868 0.629 3.721 1.899-0.322 2.747 1.315 6.335 2.809 6.757 1.574 0.446 2.197 2.748 2.506 5.542 0.275 2.488-1.206 4.886-2.733 5.923-4.554 3.089-10.09 8.335-13.14 12.68-0.713 1.018-1.302 3.411-2.429 5.313-1.056 1.781-1.495 3.597-2.05 5.392-0.669 2.161-1.947 4.207-4.557 1.366-1.104-1.202-3.158-1.788-4.707-4.251-0.742-1.181-2.527-2.277-3.645-3.113-1.878-1.403-4.062-2.373-7.593-2.202-2.05 0.1-5.174-0.602-6.605 2.581-0.544 1.212-2.454 3.146-4.251 3.873-3.424 1.385-6.926 2.762-7.062 7.745-0.098 3.615-1.146 5.216-2.506 7.289-1.13 1.722-2.55 4.192-4.327 5.693-2.416 2.041-4.613 4.683-2.582 6.682 1.325 1.305 2.441 5.288-1.519 4.555-1.839-0.34-4.615 0.081-6.074 1.671-1.91 2.082-4.458 3.058-6.226 0-0.6034-1.043-2.428-0.2841-3.216-1.449-0.7157-1.058-0.3921-4.044-1.036-4.928-2.564-5.902-6.329 1.844-7.4-1.724-1.178-3.924 1.476-3.232 1.811-5.346 0.456-2.865 1.682-4.4 2.78-5.382 1.266-0.7602 1.588-2.929 0.683-3.644-1.073-0.846-1.094-2.402-1.93-3.483-0.6028-0.7801-2.01 0.8121-3.421 0.023-1.152-0.6445-0.7594-3.115-1.864-3.79-1.741-1.064-4.073 0.2631-6.452 0.2766-8.822 1.764-5.011-1.03 0-1.821 6.136-2.201 8.503-5.39 12-8.439 0.995-0.868 2.268-2.308 3.417-2.961 2.396-1.362 2.994-2.579 3.189-4.48 0.168-1.64 0.917-3.493 1.898-4.327 1.839-1.563 1.663-3.682 1.67-4.177 0.054-3.203 1.95-5.813 3.949-7.667 4.489-4.162 6.506-1.035 8.959 2.125 1.767 2.276 3.936 5.404 6.378 2.278 1.618-2.07 5.081-2.295 6.226-2.126 4.698 0.692 8.733-3.338 8.808-5.999 0.9168-3.465 0.79-4.921 4.404-8.2 1.788-1.494 3.637-2.685 5.499-3.627 2.813-1.003 5.715-2.42 7.408-1.614z" stroke="#000" stroke-width="1.215"/>
    </g>
   </a>
   <a id="a4" href="https://inaka-japan.webflow.io/region/chugoku" target="_blank">
    <g id="chugoku-area" class="region" transform="translate(-57.22 -26.01)" stroke="#000">
     <path id="path863" transform="translate(57.22 26.01)" d="m1201 1853c-2.109 2.391-6.066 5.592-7.821 6.377-4.786 2.144-5.73 4.279-5.922 5.087-0.703 2.974-6.576 3.961-7.744 2.43-0.971-1.271-3.627-2.665-4.708-0.911-0.721 1.172-2.052 1.574-4.404 1.063-1.99-0.433-4.778 1.225-4.708 2.885 0.109 2.555-2.365 3.093-4.404 1.52-2.427-1.875-7.06 1.116-7.896 2.354-2.076 3.068-5.319 4.077-8.048 4.327-2.705 0.248-6.398 2.178-8.504 4.024-1.515 3.208-8.078 8.231-9.111-0.229-1.371-5.975-9.184-1.15-11.08 2.43-0.545 1.996 0.525 2.886 0.8498 4.872 0.2454 1.501-0.4425 2.207-2.108 3.644-1.346 1.269 0.3151 5.871 0.058 7.327-0.254 1.438-2.088 7.207-4.722 4.051-0.708-0.85-1.425-0.924-2.126-1.216-1.104-0.458-2.302-1.638-3.037-2.58-0.559-0.719-1.71-2.001-3.189-2.733-0.949-0.471-2.675-1.518-3.34-1.747-6.206-2.146-9.22-2.086-10.67-0.3886-0.723 0.846-2.302 2.036-3.345 2.508-1.938 0.878-3.423 1.887-4.183 2.331-2.347 1.15-2.044 0.4436-4.663-1.357-0.7453-1.385 0.3428-4.172-0.6828-5.474-0.568-0.948-4.762-3.179-5.695-0.5768-1.524 2.238-3.416 4.533-3.996 3.272-0.231-0.34 0.2252-4.05-1.379-5.588-0.9147-2.505 0.5291-1.106 0.7829-3.039 0.4301-3.276-1.821-2.104 0.3931-6.04l2.009-1.668c2.262 0.139 3.648 0.23 4.404-0.38 1.981-1.604 4.221-1.403 5.922-1.898 3.592-1.046 4.634-3.9 5.618-5.922 1.36-2.792 4.747-6.808 7.821-6.379 2.695 0.377 4.545-0.649 8.124-5.314 1.73-2.254 3.94-5.197 6.226-7.137 3.393-2.881 4.84-5.24 6.757-7.593 3.772-4.625 8.932-9.797 13.44-12.91 3.49-2.408 4.326-4.625 3.395-5.97-5.196-3.52 3.444-4.447 6.53-6.453 2.279-1.482 5.209-2.122 5.943-3.444 0.875-1.574 2.896-1.866 4.935-1.898 3.9-0.062 3.801 1.77 2.582 2.962-1.355 1.324 0.779 3.201 2.733 2.96 1.719-0.211 4.433 0.145 6.151-0.075 4.328-0.554 4.948-4.246 11.69-3.645 2.94 0.262 7.33 0.232 9.566 0 1.88-0.195 4.217-0.962 5.998-1.595 2.14-0.761 3.655-2.782 7.289-3.189 2.11-0.235 4.702-2.031 6.529-3.113 1.168-0.01 0.3705 4.364 6.502 11.38 1.821 2.082-1.847 6.134-4.151 8.137-3.836 3.334-6.166 7.677-4.406 11.51 1.037 2.261-0.9505 3.812-1.066 5.908-0.1096 1.994 4.88 5.496 4.87 7.103zm-71.5-58c-0.157-2.398-1.214-1.25-0.5482-2.563 0.712-1.405 4.715-1.734 5.151-2.208 1.216-1.809 1.887-1.862 3.678-1.76 1.466 0.083 5.133-0.2627 4.171 3.067-1.238 4.287-2.709 0.8007-4.906 2.123-3.778 2.273 0.5513 1.77-3.271 1.15-1.736-2.08-4.076 3.243-4.276 0.1913zm12.3-13.8c-0.157-2.398 0.625-3.319 1.291-4.632 0.712-1.405 2.416-3.343 2.852-3.817 2.21-3.29 5.132-2.523 10.15 2.916 1.783 1.933-0.9763 6.096-1.688 8.56-0.7892 2.733-7.035 1.54-10.86 0.9199-0.816-0.931-1.547-0.895-1.747-3.947z"/>
    </g>
   </a>
   <a id="a5" href="https://inaka-japan.webflow.io/region/kansai" target="_blank">
    <g id="kansai-area" class="region" transform="translate(-57.22 -26.01)">
     <path id="path762" transform="translate(57.22 26.01)" d="m1245 1812c-0.3883 1.57-0.8184 3.131 0.6138 4.304 0.3259 0.2668-0.4281 0.6285 1.171 0.7355 1.461 0.098 3.206-0.051 5.002 0.2403 1.233 0.2001 2.489 0.9722 3.693 0.7125 2.369-1.794 2.376-2.68 4.522-3.457 2.188-0.091 2.279-2.019 3.152-2.538 1.08-0.643-0.5848-1.998 0.8618-3.993 1.21-1.425 3.578 0.7722 6.772-2.58 1.744-1.808-0.8377-3.011 0.2303-4.575 1.896-0.3901 3.35-0.1983 4.354 0.9637 1.177 1.362 2.826 6.285 3.458 8.357 0.891 2.916 2.326 2.724 2.726 4.728-0.7646 6.886 1.331 6.301 6.901 5.779 1.548-0.145 1.752 4.821 4.328 4.575 1.19 3.777 3.941 3.932 4.861 6.825m0.01 0c-1.058 0.337-4.437 2.394-5.087 3.569-0.88 1.587 0.6488 2.634-1.401 6.495-3.196 3.893-1.673 6.21 1.479 9.621 1.029 1.03 8.213 1.187 9.66 1.921 3.271 1.656 10.53 7.074 1.5 13.09-0.8418 0.3711-2.857-0.3779-4.48 0.3051-2.729 1.149-7.35 1.756-10.1 3.493-2.777 1.756-5.86 1.82-5.467 6.832 0.379 4.812-1.253 5.611-5.314 8.96-5.436 4.484-5.27 2.847-5.239 10.48 0.017 4.157 0.848 7.844-2.202 8.579-2.317 0.561-3.875 2.646-4.327 3.038-1.12 0.971-2.05 2.837-4.556 2.506-0.521-0.069-1.525-0.927-2.505-0.911-1.04 0.015-2.034-0.411-3.342-1.519-1.448-1.228-3.583-2.486-5.466-2.734-0.674-0.088-1.473-0.271-4.328-2.277-0.59-0.414-1.376-1.881-1.975-2.505-1.004-1.047-2.232-1.976-2.505-3.267-0.386-1.825-1.92-3.663-4.101-4.1-1.935-0.385-3.909-3.643-3.188-6.529 0.571-2.283 0.358-5.548 0-7.136-1.367-6.061-0.745-7.31 1.974-8.731 1.287-0.674 3.4-2.227 4.176-3.342 0.672-0.964 1.406-2.218 2.354-3.037 1.606-1.388 2.67-3.349 2.505-5.467-0.182-2.352 0.435-5.74-3.947-5.087-2.501 0.375-6.368 2.376-11.46 0.607-2.065-0.717-4.955-1.29-7.441-1.063-3.187 0.292-6.03-0.914-9.188-1.441-4.649-0.781-10.48-0.811-12 0.91 0.043-1.9-3.621-3.805-4.552-5.994-1.174-2.76 1.768-4.429 0.9172-6.354-1.578-3.566-0.2753-8.153 2.386-10.36 4.476-3.72 7.011-7.525 6.453-9.119-0.5001-1.43-2.577-3.061-3.729-5.063-1.354-2.355-2.274-5.267-3.224-7.142 0.018-0.01 0.035-0.021 0.053-0.031 2.29-1.37 1.791-2.259 6.401-2.398 4.602-0.142 6.638 1.4 9.643 1.595 5.056 0.327 4.994-0.804 7.44-2.431 0.996-0.661 1.892-2.211 2.582-3.188 1.646-2.325 3.121-2.391 4.556-3.34 1.686-1.114 4.461 0.7111 5.406 4.619-2.578 4.497-1.548 1.839-2.976 4.492 1.011 5.65 3.878 6.518 4.859 3.188 0.857-2.91 4.279-4.557 5.239-2.353 0.44 1.009 1.159 2.093 1.87 2.549m-26.31 58.3c-0.157-2.398 0.625-3.319 1.291-4.632 0.712-1.405 1.766-1.88 2.202-2.354 0.563-0.609 1.521-1.629 1.898-2.506 0.382-0.891 2.063-1.356 2.429-2.354 0.352-0.958 1.695-1.354 2.81-0.985 1.692 0.558 2.394 2.081 1.898 3.644-0.221 0.7-0.371 1.962-0.607 2.658-0.347 1.025-0.841 1.88-1.595 2.656-1.854 1.911-1.616 3.621-1.594 3.948 0.399 5.965-4.835 6.328-6.985 3.872-0.816-0.931-1.547-0.895-1.747-3.947z" stroke="#000"/>
    </g>
   </a>
   <a id="a6" href="https://inaka-japan.webflow.io/region/chubu" target="_blank">
    <g id="chubu-area" class="region" transform="translate(-57.22 -26.01)">
     <path id="path1059" transform="translate(57.22 26.01)" d="m1292 1825c-2.576 0.2456-2.78-4.72-4.328-4.575-5.57 0.5219-7.666 1.107-6.901-5.779-0.4-2.004-1.835-1.812-2.726-4.728-0.6319-2.072-2.281-6.995-3.458-8.357-1.004-1.162-2.458-1.354-4.354-0.9637-1.068 1.564 1.514 2.767-0.2303 4.575-3.194 3.352-5.563 1.155-6.772 2.58-1.447 1.996 0.2182 3.35-0.8618 3.993-0.873 0.519-0.9634 2.447-3.152 2.538-2.147 0.7772-2.153 1.663-4.522 3.457-1.204 0.2597-2.46-0.5124-3.693-0.7125-1.795-0.2913-3.54-0.1423-5.002-0.2403-1.599-0.107-0.8449-0.4687-1.171-0.7355-1.432-1.172-1.002-2.734-0.6103-4.306 1.448 0.927 2.998 0.278 3.98-0.198 1.4-0.677 2.884-0.827 3.947-1.518 1.08-0.702 2.316-1.999 2.811-3.188 0.2036-0.4892 1.875-1.871 1.173-4.841-0.5926-2.506 2.844-6.082 3.837-1.742 1.078 2.476 3.449 1.326 3.561 0.063 0.3574-4.05-0.4285-7.749-1.51-8.969-0.7327-0.8263-2.991-1.628-2.897-2.567 0.335-3.344-1.911-4.231 0.1863-6.458 1.648-1.75 4.402-4.012 5.596-6.617 0.6086-1.326 0.4424-5.664 2.298-4.801 1.218 0.5663 1.941-1.178 2.561-2.032 0.2142-0.2951 0.435-0.5965 0.6612-0.9033 2.764-3.748 6.344-8.306 8.83-12 0.832-1.238 1.743-3.321 2.581-4.555 1.421-2.095 2.545-4.668 1.963-8.812 1.572-5.25-0.2123-9.702-1.735-12.45-0.06-2.399-0.4346-5.008-2.486-4.485-1.564 0.3995 0.1527-4.043 1.879-5.993 0.896-0.886 2.009-2.157 2.734-3.188 0.985-1.399 4.214-3.64 5.77-3.797 5.339-1.828 6.691-2.697 7.441-4.099 1.316-2.467 8.834-4.179 9.209-0.9238 0.5699 4.949-1.298 2.628-3.108 4.908-0.8979 2.146 2.938 2.981-1.69 4.576-3.183 1.889 0.5491 2.894-1.939 4.918-1.862 1.515-1.142-0.2009-4.065 0.831-2.221 1.175-4.473 4.69-1.293 5.43 2.896 0.674 3.781 2.22 1.822 4.251-0.5061 0.5253-0.3644 1.941 0.2589 3.55 1.064 2.747 3.531 6.059 6.574 6.473 4.396 0.597 6.771-2.513 6.757-5.088-0.01-1.519 1.176-2.787 1.746-2.961 0.989-0.299 2.293-1.955 3.114-2.582 1.12-0.8538 3.196-0.7593 4.919-0.9364 0.5332-0.055 1.033-0.1356 1.459-0.2786 3.688-1.233 5.379-1.502 7.212-3.188 1.444-1.327 3.718-1.997 4.86-3.264 0.855-0.949 2.397-2.043 3.795-2.658 1.402-0.616 3.013-1.96 4.101-3.037 1.192-1.179 2.941-2.465 4.252-3.34 1.74-1.164 3.438-3.635 4.783-5.239 1.257-1.497 2.028-3.773 2.657-5.695 0.523-1.597 1.347-5.054 2.581-6.833 1.75-2.52 2.71-5.19 2.887-6.605 0.674-5.414 8.522-12.71 10.93-13.9 5.688-2.787 11.06-11.28 11.24-18.22 0.073-2.832-0.268-8.705 0.5311-9.72 0.714-0.9075 1.322-2.206 1.794-3.5 2.205 2.591 7.825 2.421 6.502 4.921-2.522 4.769 2.896 3.887 5.946 4.044 3.724 0.192 2.871 5.607-1.198 8.431-6.104-0.3633-2.921 3.59-3.841 7.169-0.7141 8.09 2.271 7.544 5.506 9.332-3.486 4.973-5.268 6.401-3.913 9.718 2.137 9.818-2.909 7.009-6.512 7.07-1.762 0.03-0.9791 2.538-1.819 2.629-5.285 0.574-5.583 3.211-5.573 6.519 2.307 0.5655 1.184 3.014 1.609 4.699 0.4718 1.87-0.176 4.664 1.227 5.175 3.306 1.203 2.541 2.667 3.099 5.784 0.036-0.5748-0.1403 4.164-0.4532 5.572-0.1409 0.6337-2.536 0.103-5.914-3.603-1.345-1.476-1.788 2.689-3.722 4.885-2.926 2.213 0.1468 4.603-3.238 6.59-2.774 0.7341-2.92 2.319-5.115 2.214 0.1037 3.745-5.808 4.165-7.534 6.729-2.48 3.079-3.878 8.025-0.3859 9.142 4.616 1.475 3.459-0.5503 5.918 1.975 3.063 2.225 3.553 5.945 1.44 9.532-0.5693 2.087 1.054 3.21-0.4908 5.488-0.8059 1.188 0.4673 2.22 3.415 3.132 0.7867 0.2434 0.9645 1.538 1.724 2.147 0.4832 0.3874 1.008 0.7683 1.566 1.139 1.578 1.049 3.414 2.015 5.285 2.806 2.55 2.226 2.479 4.138 8.303 4.6 1.606 0.959 3.214 1.331 4.322 2.434 0.1583 3.016 1.096 5.92-0.8463 7.784-0.896 0.8601-1.324 1.335-2.413 1.485-2.941 1.784-5.089 3.588-4.796 4.929 1.328 0.133 3.243 0.3509 3.973 1.058 2.254 2.181 0.9893 3.752 0.9973 4.96 0.014 2.123 0.8142 3.628 1.938 4.98 0.6459 0.7767 2.96 0.7809 4.112 0.8058 0.109 0.865 0.384 1.662 0.932 2.219 1.17 1.186 2.295 2.55 2.202 4.328-0.095 1.819-0.163 4.26 0 6.074 0.26 2.894-1.167 4.591-2.582 5.391-2.529 2.348-0.9426 3.918-5.769 7.516-4.743 3.834-6.647-1.363-6.378-5.923 0.177-2.991-2.21-6.183 0.3136-9.251 5.974-3.884-3.571-5.654-6.16-4.49-2.567 1.151-4.409 2.679-5.694 3.112-1.79 0.604-3.448 2.976-3.493 5.011-0.076 3.456-1.022 6.337-2.506 7.745-1.545 0.2559-3.74 0.8977-2.809 5.998 4.375 8.726-0.7988 3.966-5.163 4.631-6.566 0.867-17.58-0.451-24.07 0.76-0.3462 0.064-1.988 0.4052-4.027 0.8644-3.05 0.687-6.987 1.639-8.805 2.324-3.846 1.451-11.79 4.127-6.816-0.6716 0.8055-0.7766 2.988-0.6193 5.297-2.061 1.665-1.039 3.484-5.519-1.821-4.556-1.024 0.094-2.203 1.086-4.968 0.76-3.746 0.036-4.281-2.106-5.833 4.194-0.6963 2.826-2.488-1.699-3.126-5.106-0.896-1.462 0.4397-3.907 0.5627-5.617 0.388-5.39-0.331-4.538-4.33-3.264-0.9236-2.891-3.675-3.046-4.865-6.823zm55-157.9c-0.673 0.873-0.822 2.312-1.215 3.341-1.552 4.076 0.447 5.18 1.595 4.858 3-0.836 3.306 1.965 1.671 4.557-1.42 2.248-4.389 4.396-6.074 6.453-1.192 1.455-3.451 3.915-3.796-0.684-0.066-0.873 0.187-2.32 0.304-3.188 0.333-2.498-0.624-3.445-1.291-3.645-1.589-0.472-3.083-2.854-0.988-5.087 1.147-1.221 2.23-0.82 2.203-3.796-0.016-1.6 1.167-3.416 1.669-4.935 2.237-6.769 9.369-2.344 5.922 2.126z" stroke="#000"/>
    </g>
   </a>
   <a id="a7" href="https://inaka-japan.webflow.io/region/kanto" target="_blank">
    <g id="kanto-area" class="region" transform="translate(-57.22 -26.01)">
     <path id="path992" transform="translate(57.22 26.01)" d="m1389 1728c3.423 1.332 4.394-3.401 6.933-5.185 1.925-1.35 4.144-2.519 5.596-4.191 0.7209-0.8308 3.353 0.4287 3.451-1.936 0.2234-5.38 5.178-4.774 14.59-2.888 2.171 1.373 2.887 1.646 4.216 2.926 1.376 1.325 3.021 3.196 4.474 4.505 0.621 1.339 2.084 0.9559 2.627 1.728 2.393 3.4 4.986 1.515 4.55-1.581-0.556-5.068 1.579-3.019 2.627-2.418 1.761 1.01 4.925 0.8065 9.386 1.838-0.9437 2.847-2.351 5.682-3.492 8.047-1.137 2.356-1.908 5.696-1.822 8.201 0.102 2.959 0.088 7.062 0.076 10.02-0.021 5.019 2.098 10.9 5.39 14.73 1.517 1.76 3.962 4.294 5.62 5.921 2.081 2.046 4.562 4.564-0.532 6.985-1.785 0.85-3.712 2.292-5.543 3.037-5.022 2.046-4.576 6.41-4.479 9.947 0.066 2.451-0.638 6.378-0.38 9.414 0.516 6.106-1.414 7.519-3.948 8.579-2.035 0.853-4.134 3.102-5.694 4.024-3.197 1.89-3.367 4.143-3.569 5.089-0.506 2.366-2.618 4.228-5.011 4.554-1.822 0.25-4.68 0.9353-3.189-3.644 0.158-1.313 0.074-2.661-0.455-3.872-0.48-1.104 0.036-2.918-0.028-4.024-0.159-2.774 0.6107-5.756 0.6147-8.533-2.174-5.983-0.3702-6.25 2.231-7.598 1.73-1.509 2.356-3.445 3.181-4.368 5.185-5.813-6.087-6.961-7.213-5.468-1.033 1.873-0.023 0.3864-3.698 2.608-0.9385 2.055 2.362 1.784-2.238 3.557-1.686 0.6497-1.337 1.542-1.353 3.458 0.18 2.298 1.373 4.604 2.278 5.714 4.117 6.1-0.4366 6.665 0 9.31 0.4296 2.62-3.76 1.977-4.249-1.718-0.384-2.041-1.22-3.803-4.556-3.644-2.402 0.115-5.713-0.171-7.82 0.987-1.781 0.979-3.774 2.594-4.556 5.238-0.283 0.961-0.667 2.789-0.476 4.39-1.151-0.022-3.465-0.027-4.111-0.8033-1.124-1.352-1.924-2.858-1.938-4.98-0.01-1.208 1.257-2.779-0.9973-4.96-0.73-0.707-2.645-0.9249-3.973-1.058-0.293-1.341 1.855-3.145 4.796-4.929 1.089-0.1496 1.517-0.6245 2.413-1.485 1.942-1.864 1.005-4.768 0.8463-7.784-1.108-1.103-2.716-1.475-4.322-2.434-5.823-0.4622-5.753-2.374-8.303-4.6-2.531-1.07-4.999-2.46-6.85-3.944-0.7595-0.609-0.9373-1.903-1.724-2.147-2.948-0.9121-4.221-1.945-3.415-3.132 1.545-2.278-0.079-3.4 0.4908-5.488 2.113-3.587 1.624-7.306-1.44-9.532-2.459-2.525-1.302-0.4996-5.918-1.975-3.492-1.116-2.094-6.062 0.3859-9.142 1.726-2.564 7.638-2.984 7.534-6.729 2.196 0.1046 2.341-1.48 5.115-2.214 3.384-1.987 0.3117-4.378 3.238-6.59 1.933-2.196 2.377-6.361 3.722-4.885 3.378 3.706 5.773 4.237 6.03 3.843 2.202 0.9512 3.172 0.5646 4.878 1.228z" stroke="#000"/>
    </g>
   </a>
   <a id="a8" href="https://inaka-japan.webflow.io/region/tohoku" target="_blank">
    <g id="tohoku-area" class="region" transform="translate(-57.22 -26.01)">
     <path id="tohoku" transform="translate(57.22 26.01)" d="m1389 1728c3.423 1.332 4.394-3.401 6.933-5.185 1.925-1.35 4.144-2.519 5.596-4.191 0.7209-0.8308 3.353 0.4287 3.451-1.936 0.2234-5.38 5.178-4.774 14.59-2.888 2.171 1.373 2.887 1.646 4.216 2.926 1.376 1.325 3.021 3.196 4.474 4.505 0.621 1.339 2.084 0.9559 2.627 1.728 2.393 3.4 4.986 1.515 4.55-1.581-0.556-5.068 1.579-3.019 2.627-2.418 1.761 1.01 4.925 0.8065 9.386 1.838 0.5563-1.671 0.1223-3.596 3.342-7.441 1.33-1.59 2.137-4.969 2.276-7.896 0.094-1.975 0.203-5.04 0.153-7.441-0.043-1.966-0.822-4.344-1.291-6.074-0.531-1.953-0.573-4.74-1.139-6.682-1.097-3.756-3.036-8.777-5.468-11.84-1.539-1.942-2.841-4.967-3.188-7.441-0.437-3.12-1.068-6.853-1.235-10.18-0.1733-2.623 5.455-3.475 3.393-6.242 0.2157-1.575 1.119-4.14 2.869-2.048 1.363 1.629 2.789-0.6153 2.753-1.758-0.06-1.89 0.8427-1.537 1.71-2.013 3.189-1.453 7.443-1.601 9.187 1.063 3.957 6.043 5.161-1.04 1.367-4.557-1.291-1.495-2.346-4.297-3.037-6.148-3.117-8.336 0.254-18.85 4.858-22.48 1.255-0.986 4.174-5.43 4.403-6.832 0.366-2.228 1.49-5.784 1.671-9.263 0.038-0.73 0.242-2.935 0.76-4.404 2.423-6.883 0.747-11.12-0.456-15.18-1.529-5.157-3.82-10.92-6.378-13.29-4.348-4.015-6.104-8.592-8.504-12.38-1.738-2.743-4.086-6.207-6.985-8.808-1.317-1.181-2.793-2.899-4.1-4.708-1.23-1.702-2.945-4.083-5.011-5.618-0.77-0.572-1.653-2.539-2.354-3.873-0.641-1.218-1.014-2.994-0.76-5.922 0.163-1.863 0.376-5.425 0.228-7.289-0.306-3.867-1.527-4.021-1.974-5.239-0.552-1.506-0.403-3.259-0.531-4.859-0.091-1.142-0.294-2.383-0.304-5.77-0.012-3.998-1.897-3.503-4.632-1.519-2.011 1.46-5.677 1.684-8.353-1.822-2.14-2.806-7.869-1.403-7.437 3.341v-1e-4c0.182 2.001-0.876 3.868-1.512 5.008-1.135 2.02-3.737 6.652-1.063 7.745 6.747 2.759 10.84-2.126 12-3.493 2.691-3.176 5.778-3.378 5.693 1.519-0.057 3.268 0.788 10.33-0.228 11.92-2.272 3.557-3.052 3.151-4.858 1.366-3.624-3.579-6.677-1.13-7.593 1.595-1.566 4.651-4.53 3.261-5.771 1.898-1.267-1.392-2.976-3.074-3.188-5.239-0.23-2.344 0.378-6.411 0-7.517-1.039-3.032-2.602-6.725-6.683-4.479-0.93 0.514-2.702 1.244-3.947 0.835-1.895-0.621-2.967 4.052-3.038 6.15-0.036 1.097 0.427 11.15 0.076 12.45-0.877 3.263-2.114 6.489-7.061 9.719-0.942 0.616-2.486 0.864-3.493 1.367-2.04 1.021-4.978 2.775-1.519 5.922 0.945 0.859 1.802 2.382 2.43 3.492 0.52 0.919 1.83 2.524 3.113 3.493 1.849 1.395 2.134 3.514 2.202 5.315 0.032 0.857-0.025 2.038-0.1011 3.256-0.072 1.168-0.1609 2.369-0.2029 3.349-0.073 1.712-0.6808 3.508-1.486 5.067-0.9339 1.808-2.133 3.298-3.071 3.968-1.69 1.21-0.776 0.9248-8.12 3.409-1.562 2.507 2.518 4.782 4.141 7.155 1.023 1.495 2.514-1.824 3.724-2.938 2.986-2.309 5.774-2.066 5.8-3.526 0.11-6.024 2.652-2.939 2.05 0.152-0.287 1.476-0.083 3.509-0.152 5.011-0.078 1.723 0.666 3.937 1.974 5.01 1.275 1.045 1.216 3.517 1.216 5.163-0.01 3.995 0.245 12.05 0 15.34-0.131 1.754-0.634 4.199-1.671 5.619-1.555 2.129-1.384 5.304-1.063 8.884 0.194 2.153-2.368 9.446-4.555 12.38-1.976 2.644-3.439 5.395-3.342 8.275 0.027 0.809-0.161 1.582-0.558 2.652 2.205 2.591 7.825 2.421 6.502 4.921-2.522 4.769 2.896 3.887 5.946 4.044 3.724 0.192 2.871 5.607-1.198 8.431-6.104-0.3633-2.921 3.59-3.841 7.169-0.7141 8.09 2.271 7.544 5.506 9.332-3.486 4.973-5.268 6.401-3.913 9.718 2.137 9.818-2.909 7.009-6.512 7.07-1.762 0.03-0.9791 2.538-1.819 2.629-5.285 0.574-5.583 3.211-5.573 6.519 2.307 0.5655 1.184 3.014 1.609 4.699 0.4718 1.87-0.176 4.664 1.227 5.175 3.306 1.203 2.541 2.667 3.099 5.784 0.036-0.5748-0.1403 4.164-0.3366 5.812 2.202 0.9512 3.172 0.5646 4.878 1.228z" stroke="#000"/>
    </g>
   </a>
   <a id="a9" href="https://inaka-japan.webflow.io/region/hokkaido" target="_blank">
    <g id="hokkaido-area" class="region" transform="translate(-3e-6)" stroke="#000">
     <path id="hokkaido" class="region" d="m1455 1317c2.862 2.008 5.635 4.847 8.352 7.744 2.121 2.261 3.906 4.822 6.302 5.771 1.16 0.459 2.284 1.172 3.416 2.278 0.721 0.703 1.4 1.429 2.657 2.202 1.218 0.748 1.123 0.878 2.507 2.05 2.212 1.875 5.685 4.499 8.199 4.631 2.919 0.154 5.808 2.594 8.276 4.404 3.804 2.79 8.151 4.043 12.22 4.404 4.956 0.439 13.02 1.212 15.64 1.594 4.825 0.705 10.33 0.75 11.62-0.683 1.918-2.132 4.241-2.44 5.391-3.797 1.65-1.948 2.956-2.983 3.265-4.631 0.582-3.108 2.195-5.504 5.163-8.201 5.892-5.352 5.234-6.138 4.936 0.836-0.105 2.451-0.589 4.873-2.05 6.529-1.482 1.679-2.106 3.202-2.81 3.948-1.755 1.861-1.703 7.552-1.291 10.55 0.271 1.97 1.194 4.514 1.291 5.543 0.119 1.286 0.639 2.657 1.594 3.72 1.044 1.163 1.578 2.003 2.051 2.961 0.437 0.89 0.844 1.854 1.67 2.734 1.369 1.458 1.865 3.181 2.81 4.631 2.741 4.208 5.728 5.696 9.794 4.024 14.77-6.071 4.141-0.549 2.581 2.202-2.066 3.648-3.84 6.713-8.351 8.2-3.14 1.035-6.292 2.722-8.58 5.467-2.511 3.011-4.66 4.89-7.213 1.746-4.256-5.238-6.596 0.527-4.329 3.265 3.108 3.752 2.281 3.197-0.91 3.341-1.98 0.089-4.305 0.231-6.529-0.607-4.084-1.539-7.91-3.452-11.92 0.076-1.037 0.912-1.045 1.639-3.265 3.416-4.088 3.274-6.89 6.561-9.718 10.02-1.098 1.342-1.703 3.048-2.885 3.796-1.937 1.225-2.625 2.693-3.19 4.328-0.77 2.234-2.292 3.368-3.036 4.631-2.366 4.013-2.461 8.457-2.657 14.12l-0.304 8.731c-0.225 6.444 0.023 6.367-5.012 3.417-2.499-1.464-5.02-2.169-9.414-3.037-3.659-0.722-7.406-1.04-10.86-2.582-0.848-0.379-1.648-1.369-3.038-1.67-1.428-0.31-2.412-1.15-3.796-2.354-0.767-0.668-1.53-1.507-2.657-1.975-1.927-0.798-2.209-1.369-3.037-2.126-1.66-1.515-3.183-3.324-5.694-4.631-2.206-1.147-3.663-2.114-5.239-3.417-1.421-1.176-3.037-1.692-5.694-1.746-3.937-0.083-7.643-0.381-11.24 0.683-1.018 0.302-2.922 0.583-4.631 0.987-3.95 0.936-3.944 1.78-5.088 3.113l-8.199 9.566c-3.097 3.614-2.713 2.914-3.948-0.228-1.034-2.631-1.652-4.183-2.961-5.922-1.351-1.796-2.862-3.421-6.757-3.341-1.234 0.025-2.696 0.355-4.48 0.607-1.057 0.149-1.985 0.188-3.416 1.366-0.844 0.696-1.218 0.925-2.051 1.594-2.99 2.407-2.385 5.219-2.277 7.896l0.152 3.796c1.54 3.853 5.432 5.346 8.504 5.999 1.969 0.418 6.092 0.463 8.655 0.151 2.148-0.261 3.245 0.489 3.112 2.733l-0.151 2.582c-0.081 1.387 1.11 1.586 2.05 1.974 3.452 1.424 6.479 2.75 9.035 3.265 3.878 0.78 3.414 2.268 1.821 4.176-1.345 1.613-2.6 2.614-3.567 3.872-1.603 2.083-3.306 2.216-5.24 1.594-1.057-0.34-2.147-0.473-3.795-0.683-1.507-0.193-2.669-1.032-3.721-2.43-1.708-2.268-2.846-1.426-3.645-0.532-1.78 1.996-3.686 4.018-4.935 6.227-0.805 1.421-1.498 2.331-0.988 5.77 0.343 2.306-0.126 4.083-0.531 5.771-0.282 1.176-1.258 1.954-1.897 2.81-1.363 1.819-2.782 1.819-4.479 0.607-0.851-0.607-2.009-0.503-3.266-0.911-2.657-0.863-3.781-3.033-4.935-4.86-1.174-1.858-1.549-7.622 0.987-9.566l2.277-1.746c1.498-1.064 1.738-1.881 1.822-3.797l-0.607-4.783c-0.203-1.601-0.977-2.599-3.417-4.708-0.806-0.696-1.23-1.943-2.277-2.581-1.549-0.943-3.147-1.846-4.479-3.189-0.742-0.748-1.72-1.55-3.037-2.126-2.543-1.11-2.416-2.354-2.582-4.556v-8.124c0-1.522-0.085-3.113 0.988-4.403 0.67-0.808 0.613-2.155 1.594-3.417 1.552-1.997 2.197-3.022 3.113-3.493 1.378-0.709 2.338-0.995 3.113-1.671 1.164-1.017 1.948-1.35 2.505-1.595 1.606-0.704 2.627-1.648 3.341-2.277 2.241-1.974 4.173-3.919 5.771-5.923 2.264-2.84 3.429-7.389 0.607-9.49-1.96-1.46-3.173-2.55-3.646-4.859-0.44-3.57-0.9981-6.595 1.75-9.063 4.8-4.311 11.53 5.468 16.55 4.963 3.177-0.319 6.697-0.051 9.262-0.151 5.367-0.208 7.771-3.882 8.504-7.289l1.378-7.023c0.036-1.782 0.082-5.192-2.212-7.327-1.77-2.933-0.721-5.64 0.151-6.378 1.527-1.287 2.12-1.962 2.963-2.505 1.275-0.823 2.638-2.369 2.581-4.859 0 0 0.5495-6.723-0.229-9.947-0.4863-2.014-2.499-3.533-2.708-5.594-0.255-2.514 1.866-7.346 1.866-7.346l1.148-8.167c0.032-1.671 0.291-3.165 1.366-4.479 0.876-1.071 0.961-3.295 0.379-5.011-0.344-1.016-0.954-2.037-1.138-3.265-0.186-1.247-1.21-2.785-3.416-4.859-1.893-1.777-3.583-3.635-3.722-5.011-0.11-1.119-1.541-1.781-2.202-2.885-1.927-3.221-1.088-7.514 0.608-9.719l2.96-2.278c1.566-1.205 2.036-1.342 2.052-2.354l0.07-5.311c0.22-4.754 6.234-4.198 8.809-1.29l13.06 14.73c1.521 1.714 3.349 2.983 4.935 4.859 2.166 2.562 3.976 4.512 5.771 5.771z" fill="none" stroke="#000"/>
    </g>
   </a>
  </g>
 </g>
</svg>
